<mxfile modified="2021-06-10T07:16:46.493Z" host="app.diagrams.net" agent="5.0 (Windows NT 10.0; Win64; x64) AppleWebKit/537.36 (KHTML, like Gecko) Chrome/91.0.4472.77 Safari/537.36" etag="GUeytzugSs5NJHPN8XqJ" version="14.2.4" type="github">
  <diagram id="WI9T0HZ2pTsCkuznbFz-" name="Page-1">
    <mxGraphModel dx="1273" dy="805" grid="1" gridSize="10" guides="1" tooltips="1" connect="1" arrows="1" fold="1" page="1" pageScale="1" pageWidth="1169" pageHeight="827" math="0" shadow="0">
      <root>
        <mxCell id="0" />
        <mxCell id="1" parent="0" />
        <mxCell id="iqBsh06_ElT_HYazCzKP-2" value="" style="shape=image;verticalLabelPosition=bottom;labelBackgroundColor=#ffffff;verticalAlign=top;aspect=fixed;imageAspect=0;image=data:image/svg+xml,PHN2ZyB4bWxuczpjYz0iaHR0cDovL2NyZWF0aXZlY29tbW9ucy5vcmcvbnMjIiB4bWxuczpkYz0iaHR0cDovL3B1cmwub3JnL2RjL2VsZW1lbnRzLzEuMS8iIHhtbG5zOmlua3NjYXBlPSJodHRwOi8vd3d3Lmlua3NjYXBlLm9yZy9uYW1lc3BhY2VzL2lua3NjYXBlIiB4bWxuczpyZGY9Imh0dHA6Ly93d3cudzMub3JnLzE5OTkvMDIvMjItcmRmLXN5bnRheC1ucyMiIHhtbG5zOnNvZGlwb2RpPSJodHRwOi8vc29kaXBvZGkuc291cmNlZm9yZ2UubmV0L0RURC9zb2RpcG9kaS0wLmR0ZCIgeG1sbnM6c3ZnPSJodHRwOi8vd3d3LnczLm9yZy8yMDAwL3N2ZyIgeG1sbnM9Imh0dHA6Ly93d3cudzMub3JnLzIwMDAvc3ZnIiB4bWxuczp4bGluaz0iaHR0cDovL3d3dy53My5vcmcvMTk5OS94bGluayIgdmVyc2lvbj0iMS4xIiBpZD0ic3ZnNTg0NTUiIGlua3NjYXBlOnZlcnNpb249IjAuOTIuMyAoMjQwNTU0NiwgMjAxOC0wMy0xMSkiIHNvZGlwb2RpOmRvY25hbWU9ImF6dXJlX2ZpcmV3YWxsLnN2ZyIgeD0iMHB4IiB5PSIwcHgiIHZpZXdCb3g9IjAgMCAzNy40MiAzNy40MyIgc3R5bGU9ImVuYWJsZS1iYWNrZ3JvdW5kOm5ldyAwIDAgMzcuNDIgMzcuNDM7IiB4bWw6c3BhY2U9InByZXNlcnZlIj4mI3hhOzxzb2RpcG9kaTpuYW1lZHZpZXcgYm9yZGVyY29sb3I9IiM2NjY2NjYiIGJvcmRlcm9wYWNpdHk9IjEiIGZpdC1tYXJnaW4tYm90dG9tPSIwIiBmaXQtbWFyZ2luLWxlZnQ9IjAiIGZpdC1tYXJnaW4tcmlnaHQ9IjAiIGZpdC1tYXJnaW4tdG9wPSIwIiBncmlkdG9sZXJhbmNlPSIxMCIgZ3VpZGV0b2xlcmFuY2U9IjEwIiBpZD0ibmFtZWR2aWV3NTg0NTciIGlua3NjYXBlOmN1cnJlbnQtbGF5ZXI9InN2ZzU4NDU1IiBpbmtzY2FwZTpjeD0iMzQuMTg2MzE2IiBpbmtzY2FwZTpjeT0iMTguNzQ1Mzk3IiBpbmtzY2FwZTpwYWdlb3BhY2l0eT0iMCIgaW5rc2NhcGU6cGFnZXNoYWRvdz0iMiIgaW5rc2NhcGU6d2luZG93LWhlaWdodD0iMTAxNyIgaW5rc2NhcGU6d2luZG93LW1heGltaXplZD0iMSIgaW5rc2NhcGU6d2luZG93LXdpZHRoPSIxOTIwIiBpbmtzY2FwZTp3aW5kb3cteD0iLTgiIGlua3NjYXBlOndpbmRvdy15PSItOCIgaW5rc2NhcGU6em9vbT0iMTEuODEyMzYyIiBvYmplY3R0b2xlcmFuY2U9IjEwIiBwYWdlY29sb3I9IiNmZmZmZmYiIHNob3dncmlkPSJmYWxzZSI+JiN4YTsJPC9zb2RpcG9kaTpuYW1lZHZpZXc+JiN4YTs8ZyBpZD0iZzU4NDUzIiB0cmFuc2Zvcm09InRyYW5zbGF0ZSgtMC43NSwtMC43NTA3KSI+JiN4YTsJPHRpdGxlIGlkPSJ0aXRsZTU4Mjg0Ij5QYWdlLTE8L3RpdGxlPiYjeGE7CTxnIGlkPSJncm91cDU5NTAtMSIgdHJhbnNmb3JtPSJ0cmFuc2xhdGUoMC43NSwtMC43NSkiPiYjeGE7CQk8dGl0bGUgaWQ9InRpdGxlNTgyODYiPkF6dXJlIEZpcmV3YWxsPC90aXRsZT4mI3hhOwkJPGcgaWQ9InNoYXBlNTk1MS0yIiB0cmFuc2Zvcm09InRyYW5zbGF0ZSg3LjU3NSwtMTQuMjQ5MykiPiYjeGE7CQkJPHRpdGxlIGlkPSJ0aXRsZTU4Mjg4Ij5TaGVldC41OTUxPC90aXRsZT4mI3hhOwkJCTxwYXRoIGlkPSJwYXRoNTgyOTAiIGlua3NjYXBlOmNvbm5lY3Rvci1jdXJ2YXR1cmU9IjAiIHN0eWxlPSJmaWxsOiM1OUI0RDk7IiBkPSJNNy4wOSwyMy4yOGMwLjY5LTQuMjcsNC4zNy03LjUzLDguODItNy41MyAgICAgYzQuOTQsMCw4Ljk1LDQuMDIsOC45NSw4Ljk4YzAsMC41OC0wLjA2LDEuMTQtMC4xNywxLjY5YzIuOSwwLjMyLDUuMTYsMi45OCw1LjE2LDYuMjJjMCwzLjQ1LTIuNTksNi4yOS01Ljc2LDYuMjkgICAgIGMtMC43MSwwLTE2LjQ2LDAtMTYuNDYsMEMzLjQzLDM4LjkyLDAsMzUuMzEsMCwzMC45N0MwLDI2LjkxLDMuMTIsMjMuNiw3LjA5LDIzLjI4eiIvPiYjeGE7CQk8L2c+JiN4YTsJCTxnIGlkPSJncm91cDU5NTItNCI+JiN4YTsJCQk8dGl0bGUgaWQ9InRpdGxlNTgyOTMiPlNoZWV0LjU5NTI8L3RpdGxlPiYjeGE7CQkJPGcgaWQ9Imdyb3VwNTk1My01IiB0cmFuc2Zvcm09InRyYW5zbGF0ZSg5Ljc1LC0xNS43NSkiPiYjeGE7CQkJCTx0aXRsZSBpZD0idGl0bGU1ODI5NSI+U2hlZXQuNTk1MzwvdGl0bGU+JiN4YTsJCQkJPGcgaWQ9InNoYXBlNTk1NC02IiB0cmFuc2Zvcm09InRyYW5zbGF0ZSgwLjc1LC0wLjc1KSI+JiN4YTsJCQkJCTx0aXRsZSBpZD0idGl0bGU1ODI5NyI+U2hlZXQuNTk1NDwvdGl0bGU+JiN4YTsJCQkJCTxwYXRoIGlkPSJwYXRoNTgyOTkiIGlua3NjYXBlOmNvbm5lY3Rvci1jdXJ2YXR1cmU9IjAiIHN0eWxlPSJmaWxsOiNERDU5MDA7IiBkPSJNMC43NSwzOC45M0MwLjM0LDM4LjkzLDAsMzguNTksMCwzOC4xOHYtMy43NiAgICAgICBjMC0wLjQxLDAuMzQtMC43NSwwLjc1LTAuNzVIOWMwLjQxLDAsMC43NSwwLjM0LDAuNzUsMC43NXYzLjc2YzAsMC40MS0wLjM0LDAuNzUtMC43NSwwLjc1TDAuNzUsMzguOTN6Ii8+JiN4YTsJCQkJPC9nPiYjeGE7CQkJCTxnIGlkPSJzaGFwZTU5NTUtOCI+JiN4YTsJCQkJCTx0aXRsZSBpZD0idGl0bGU1ODMwMiI+U2hlZXQuNTk1NTwvdGl0bGU+JiN4YTsJCQkJCTxwYXRoIGlkPSJwYXRoNTgzMDQiIGlua3NjYXBlOmNvbm5lY3Rvci1jdXJ2YXR1cmU9IjAiIHN0eWxlPSJmaWxsOiNBMEExQTI7IiBkPSJNOS43NSwzMy42N3YzLjc2SDEuNXYtMy43Nkg5Ljc1eiBNOS43NSwzMi4xNyAgICAgICBIMS41Yy0wLjgzLDAtMS41LDAuNjgtMS41LDEuNXYzLjc2YzAsMC44MiwwLjY3LDEuNSwxLjUsMS41aDguMjVjMC44MywwLDEuNS0wLjY4LDEuNS0xLjV2LTMuNzYgICAgICAgQzExLjI1LDMyLjg1LDEwLjU4LDMyLjE3LDkuNzUsMzIuMTd6Ii8+JiN4YTsJCQkJPC9nPiYjeGE7CQkJPC9nPiYjeGE7CQkJPGcgaWQ9Imdyb3VwNTk1Ni0xMCIgdHJhbnNmb3JtPSJ0cmFuc2xhdGUoMTkuNSwtMTUuNzUpIj4mI3hhOwkJCQk8dGl0bGUgaWQ9InRpdGxlNTgzMDgiPlNoZWV0LjU5NTY8L3RpdGxlPiYjeGE7CQkJCTxnIGlkPSJzaGFwZTU5NTctMTEiIHRyYW5zZm9ybT0idHJhbnNsYXRlKDAuNzUsLTAuNzUpIj4mI3hhOwkJCQkJPHRpdGxlIGlkPSJ0aXRsZTU4MzEwIj5TaGVldC41OTU3PC90aXRsZT4mI3hhOwkJCQkJPHBhdGggaWQ9InBhdGg1ODMxMiIgaW5rc2NhcGU6Y29ubmVjdG9yLWN1cnZhdHVyZT0iMCIgc3R5bGU9ImZpbGw6I0JBMTQxQTsiIGQ9Ik0wLjc1LDM4LjkzQzAuMzQsMzguOTMsMCwzOC41OSwwLDM4LjE4di0zLjc2ICAgICAgIGMwLTAuNDEsMC4zNC0wLjc1LDAuNzUtMC43NUg5YzAuNDEsMCwwLjc1LDAuMzQsMC43NSwwLjc1djMuNzZjMCwwLjQxLTAuMzQsMC43NS0wLjc1LDAuNzVMMC43NSwzOC45M3oiLz4mI3hhOwkJCQk8L2c+JiN4YTsJCQkJPGcgaWQ9InNoYXBlNTk1OC0xMyI+JiN4YTsJCQkJCTx0aXRsZSBpZD0idGl0bGU1ODMxNSI+U2hlZXQuNTk1ODwvdGl0bGU+JiN4YTsJCQkJCTxwYXRoIGlkPSJwYXRoNTgzMTciIGlua3NjYXBlOmNvbm5lY3Rvci1jdXJ2YXR1cmU9IjAiIHN0eWxlPSJmaWxsOiNBMEExQTI7IiBkPSJNOS43NSwzMy42N3YzLjc2SDEuNXYtMy43Nkg5Ljc1eiBNOS43NSwzMi4xNyAgICAgICBIMS41Yy0wLjgzLDAtMS41LDAuNjgtMS41LDEuNXYzLjc2YzAsMC44MiwwLjY3LDEuNSwxLjUsMS41aDguMjVjMC44MywwLDEuNS0wLjY4LDEuNS0xLjV2LTMuNzYgICAgICAgQzExLjI1LDMyLjg1LDEwLjU4LDMyLjE3LDkuNzUsMzIuMTd6Ii8+JiN4YTsJCQkJPC9nPiYjeGE7CQkJPC9nPiYjeGE7CQkJPGcgaWQ9Imdyb3VwNTk1OS0xNSIgdHJhbnNmb3JtPSJ0cmFuc2xhdGUoMCwtMTUuNzUpIj4mI3hhOwkJCQk8dGl0bGUgaWQ9InRpdGxlNTgzMjEiPlNoZWV0LjU5NTk8L3RpdGxlPiYjeGE7CQkJCTxnIGlkPSJzaGFwZTU5NjAtMTYiIHRyYW5zZm9ybT0idHJhbnNsYXRlKDAuNzUsLTAuNzUpIj4mI3hhOwkJCQkJPHRpdGxlIGlkPSJ0aXRsZTU4MzIzIj5TaGVldC41OTYwPC90aXRsZT4mI3hhOwkJCQkJPHBhdGggaWQ9InBhdGg1ODMyNSIgaW5rc2NhcGU6Y29ubmVjdG9yLWN1cnZhdHVyZT0iMCIgc3R5bGU9ImZpbGw6I0JBMTQxQTsiIGQ9Ik0wLjc1LDM4LjkzQzAuMzQsMzguOTMsMCwzOC41OSwwLDM4LjE4di0zLjc2ICAgICAgIGMwLTAuNDEsMC4zNC0wLjc1LDAuNzUtMC43NUg5YzAuNDEsMCwwLjc1LDAuMzQsMC43NSwwLjc1djMuNzZjMCwwLjQxLTAuMzQsMC43NS0wLjc1LDAuNzVMMC43NSwzOC45M3oiLz4mI3hhOwkJCQk8L2c+JiN4YTsJCQkJPGcgaWQ9InNoYXBlNTk2MS0xOCI+JiN4YTsJCQkJCTx0aXRsZSBpZD0idGl0bGU1ODMyOCI+U2hlZXQuNTk2MTwvdGl0bGU+JiN4YTsJCQkJCTxwYXRoIGlkPSJwYXRoNTgzMzAiIGlua3NjYXBlOmNvbm5lY3Rvci1jdXJ2YXR1cmU9IjAiIHN0eWxlPSJmaWxsOiNBMEExQTI7IiBkPSJNOS43NSwzMy42N3YzLjc2SDEuNXYtMy43Nkg5Ljc1eiBNOS43NSwzMi4xNyAgICAgICBIMS41Yy0wLjgzLDAtMS41LDAuNjgtMS41LDEuNXYzLjc2YzAsMC44MiwwLjY3LDEuNSwxLjUsMS41aDguMjVjMC44MywwLDEuNS0wLjY4LDEuNS0xLjV2LTMuNzYgICAgICAgQzExLjI1LDMyLjg1LDEwLjU4LDMyLjE3LDkuNzUsMzIuMTd6Ii8+JiN4YTsJCQkJPC9nPiYjeGE7CQkJPC9nPiYjeGE7CQkJPGcgaWQ9Imdyb3VwNTk2Mi0yMCIgdHJhbnNmb3JtPSJ0cmFuc2xhdGUoOS43NSwtMTAuNSkiPiYjeGE7CQkJCTx0aXRsZSBpZD0idGl0bGU1ODMzNCI+U2hlZXQuNTk2MjwvdGl0bGU+JiN4YTsJCQkJPGcgaWQ9InNoYXBlNTk2My0yMSIgdHJhbnNmb3JtPSJ0cmFuc2xhdGUoMC43NSwtMC43NSkiPiYjeGE7CQkJCQk8dGl0bGUgaWQ9InRpdGxlNTgzMzYiPlNoZWV0LjU5NjM8L3RpdGxlPiYjeGE7CQkJCQk8cGF0aCBpZD0icGF0aDU4MzM4IiBpbmtzY2FwZTpjb25uZWN0b3ItY3VydmF0dXJlPSIwIiBzdHlsZT0iZmlsbDojQkExNDFBOyIgZD0iTTAuNzUsMzguOTNDMC4zNCwzOC45MywwLDM4LjU5LDAsMzguMTh2LTMuNzYgICAgICAgYzAtMC40MSwwLjM0LTAuNzUsMC43NS0wLjc1SDljMC40MSwwLDAuNzUsMC4zNCwwLjc1LDAuNzV2My43NmMwLDAuNDEtMC4zNCwwLjc1LTAuNzUsMC43NUwwLjc1LDM4LjkzeiIvPiYjeGE7CQkJCTwvZz4mI3hhOwkJCQk8ZyBpZD0ic2hhcGU1OTY0LTIzIj4mI3hhOwkJCQkJPHRpdGxlIGlkPSJ0aXRsZTU4MzQxIj5TaGVldC41OTY0PC90aXRsZT4mI3hhOwkJCQkJPHBhdGggaWQ9InBhdGg1ODM0MyIgaW5rc2NhcGU6Y29ubmVjdG9yLWN1cnZhdHVyZT0iMCIgc3R5bGU9ImZpbGw6I0EwQTFBMjsiIGQ9Ik05Ljc1LDMzLjY3djMuNzZIMS41di0zLjc2SDkuNzV6IE05Ljc1LDMyLjE3ICAgICAgIEgxLjVjLTAuODMsMC0xLjUsMC42OC0xLjUsMS41djMuNzZjMCwwLjgyLDAuNjcsMS41LDEuNSwxLjVoOC4yNWMwLjgzLDAsMS41LTAuNjgsMS41LTEuNXYtMy43NiAgICAgICBDMTEuMjUsMzIuODUsMTAuNTgsMzIuMTcsOS43NSwzMi4xN3oiLz4mI3hhOwkJCQk8L2c+JiN4YTsJCQk8L2c+JiN4YTsJCQk8ZyBpZD0iZ3JvdXA1OTY1LTI1IiB0cmFuc2Zvcm09InRyYW5zbGF0ZSgwLC01LjI1KSI+JiN4YTsJCQkJPHRpdGxlIGlkPSJ0aXRsZTU4MzQ3Ij5TaGVldC41OTY1PC90aXRsZT4mI3hhOwkJCQk8ZyBpZD0ic2hhcGU1OTY2LTI2IiB0cmFuc2Zvcm09InRyYW5zbGF0ZSgwLjc1LC0wLjc1KSI+JiN4YTsJCQkJCTx0aXRsZSBpZD0idGl0bGU1ODM0OSI+U2hlZXQuNTk2NjwvdGl0bGU+JiN4YTsJCQkJCTxwYXRoIGlkPSJwYXRoNTgzNTEiIGlua3NjYXBlOmNvbm5lY3Rvci1jdXJ2YXR1cmU9IjAiIHN0eWxlPSJmaWxsOiNERDU5MDA7IiBkPSJNMC43NSwzOC45M0MwLjM0LDM4LjkzLDAsMzguNTksMCwzOC4xOHYtMy43NiAgICAgICBjMC0wLjQxLDAuMzQtMC43NSwwLjc1LTAuNzVIOWMwLjQxLDAsMC43NSwwLjM0LDAuNzUsMC43NXYzLjc2YzAsMC40MS0wLjM0LDAuNzUtMC43NSwwLjc1TDAuNzUsMzguOTN6Ii8+JiN4YTsJCQkJPC9nPiYjeGE7CQkJCTxnIGlkPSJzaGFwZTU5NjctMjgiPiYjeGE7CQkJCQk8dGl0bGUgaWQ9InRpdGxlNTgzNTQiPlNoZWV0LjU5Njc8L3RpdGxlPiYjeGE7CQkJCQk8cGF0aCBpZD0icGF0aDU4MzU2IiBpbmtzY2FwZTpjb25uZWN0b3ItY3VydmF0dXJlPSIwIiBzdHlsZT0iZmlsbDojQTBBMUEyOyIgZD0iTTkuNzUsMzMuNjd2My43NkgxLjV2LTMuNzZIOS43NXogTTkuNzUsMzIuMTcgICAgICAgSDEuNWMtMC44MywwLTEuNSwwLjY4LTEuNSwxLjV2My43NmMwLDAuODIsMC42NywxLjUsMS41LDEuNWg4LjI1YzAuODMsMCwxLjUtMC42OCwxLjUtMS41di0zLjc2ICAgICAgIEMxMS4yNSwzMi44NSwxMC41OCwzMi4xNyw5Ljc1LDMyLjE3eiIvPiYjeGE7CQkJCTwvZz4mI3hhOwkJCTwvZz4mI3hhOwkJCTxnIGlkPSJncm91cDU5NjgtMzAiIHRyYW5zZm9ybT0idHJhbnNsYXRlKDAsLTEwLjUpIj4mI3hhOwkJCQk8dGl0bGUgaWQ9InRpdGxlNTgzNjAiPlNoZWV0LjU5Njg8L3RpdGxlPiYjeGE7CQkJCTxnIGlkPSJzaGFwZTU5NjktMzEiIHRyYW5zZm9ybT0idHJhbnNsYXRlKDAuNzUsLTAuNzUpIj4mI3hhOwkJCQkJPHRpdGxlIGlkPSJ0aXRsZTU4MzYyIj5TaGVldC41OTY5PC90aXRsZT4mI3hhOwkJCQkJPHBhdGggaWQ9InBhdGg1ODM2NCIgaW5rc2NhcGU6Y29ubmVjdG9yLWN1cnZhdHVyZT0iMCIgc3R5bGU9ImZpbGw6I0JBMTQxQTsiIGQ9Ik0wLjc1LDM4LjkzQzAuMzQsMzguOTMsMCwzOC41OSwwLDM4LjE4di0zLjc2ICAgICAgIGMwLTAuNDEsMC4zNC0wLjc1LDAuNzUtMC43NUg5YzAuNDEsMCwwLjc1LDAuMzQsMC43NSwwLjc1djMuNzZjMCwwLjQxLTAuMzQsMC43NS0wLjc1LDAuNzVMMC43NSwzOC45M3oiLz4mI3hhOwkJCQk8L2c+JiN4YTsJCQkJPGcgaWQ9InNoYXBlNTk3MC0zMyI+JiN4YTsJCQkJCTx0aXRsZSBpZD0idGl0bGU1ODM2NyI+U2hlZXQuNTk3MDwvdGl0bGU+JiN4YTsJCQkJCTxwYXRoIGlkPSJwYXRoNTgzNjkiIGlua3NjYXBlOmNvbm5lY3Rvci1jdXJ2YXR1cmU9IjAiIHN0eWxlPSJmaWxsOiNBMEExQTI7IiBkPSJNOS43NSwzMy42N3YzLjc2SDEuNXYtMy43Nkg5Ljc1eiBNOS43NSwzMi4xNyAgICAgICBIMS41Yy0wLjgzLDAtMS41LDAuNjgtMS41LDEuNXYzLjc2YzAsMC44MiwwLjY3LDEuNSwxLjUsMS41aDguMjVjMC44MywwLDEuNS0wLjY4LDEuNS0xLjV2LTMuNzYgICAgICAgQzExLjI1LDMyLjg1LDEwLjU4LDMyLjE3LDkuNzUsMzIuMTd6Ii8+JiN4YTsJCQkJPC9nPiYjeGE7CQkJPC9nPiYjeGE7CQkJPGcgaWQ9Imdyb3VwNTk3MS0zNSIgdHJhbnNmb3JtPSJ0cmFuc2xhdGUoOS43NSkiPiYjeGE7CQkJCTx0aXRsZSBpZD0idGl0bGU1ODM3MyI+U2hlZXQuNTk3MTwvdGl0bGU+JiN4YTsJCQkJPGcgaWQ9InNoYXBlNTk3Mi0zNiIgdHJhbnNmb3JtPSJ0cmFuc2xhdGUoMC43NSwtMC43NSkiPiYjeGE7CQkJCQk8dGl0bGUgaWQ9InRpdGxlNTgzNzUiPlNoZWV0LjU5NzI8L3RpdGxlPiYjeGE7CQkJCQk8cGF0aCBpZD0icGF0aDU4Mzc3IiBpbmtzY2FwZTpjb25uZWN0b3ItY3VydmF0dXJlPSIwIiBzdHlsZT0iZmlsbDojQkExNDFBOyIgZD0iTTAuNzUsMzguOTNDMC4zNCwzOC45MywwLDM4LjU5LDAsMzguMTh2LTMuNzYgICAgICAgYzAtMC40MSwwLjM0LTAuNzUsMC43NS0wLjc1SDljMC40MSwwLDAuNzUsMC4zNCwwLjc1LDAuNzV2My43NmMwLDAuNDEtMC4zNCwwLjc1LTAuNzUsMC43NUwwLjc1LDM4LjkzeiIvPiYjeGE7CQkJCTwvZz4mI3hhOwkJCQk8ZyBpZD0ic2hhcGU1OTczLTM4Ij4mI3hhOwkJCQkJPHRpdGxlIGlkPSJ0aXRsZTU4MzgwIj5TaGVldC41OTczPC90aXRsZT4mI3hhOwkJCQkJPHBhdGggaWQ9InBhdGg1ODM4MiIgaW5rc2NhcGU6Y29ubmVjdG9yLWN1cnZhdHVyZT0iMCIgc3R5bGU9ImZpbGw6I0EwQTFBMjsiIGQ9Ik05Ljc1LDMzLjY3djMuNzZIMS41di0zLjc2SDkuNzV6IE05Ljc1LDMyLjE3ICAgICAgIEgxLjVjLTAuODMsMC0xLjUsMC42OC0xLjUsMS41djMuNzZjMCwwLjgyLDAuNjcsMS41LDEuNSwxLjVoOC4yNWMwLjgzLDAsMS41LTAuNjgsMS41LTEuNXYtMy43NiAgICAgICBDMTEuMjUsMzIuODUsMTAuNTgsMzIuMTcsOS43NSwzMi4xN3oiLz4mI3hhOwkJCQk8L2c+JiN4YTsJCQk8L2c+JiN4YTsJCQk8ZyBpZD0iZ3JvdXA1OTc0LTQwIiB0cmFuc2Zvcm09InRyYW5zbGF0ZSgxOS41LC01LjI1KSI+JiN4YTsJCQkJPHRpdGxlIGlkPSJ0aXRsZTU4Mzg2Ij5TaGVldC41OTc0PC90aXRsZT4mI3hhOwkJCQk8ZyBpZD0ic2hhcGU1OTc1LTQxIiB0cmFuc2Zvcm09InRyYW5zbGF0ZSgwLjc1LC0wLjc1KSI+JiN4YTsJCQkJCTx0aXRsZSBpZD0idGl0bGU1ODM4OCI+U2hlZXQuNTk3NTwvdGl0bGU+JiN4YTsJCQkJCTxwYXRoIGlkPSJwYXRoNTgzOTAiIGlua3NjYXBlOmNvbm5lY3Rvci1jdXJ2YXR1cmU9IjAiIHN0eWxlPSJmaWxsOiNCQTE0MUE7IiBkPSJNMC43NSwzOC45M0MwLjM0LDM4LjkzLDAsMzguNTksMCwzOC4xOHYtMy43NiAgICAgICBjMC0wLjQxLDAuMzQtMC43NSwwLjc1LTAuNzVIOWMwLjQxLDAsMC43NSwwLjM0LDAuNzUsMC43NXYzLjc2YzAsMC40MS0wLjM0LDAuNzUtMC43NSwwLjc1TDAuNzUsMzguOTN6Ii8+JiN4YTsJCQkJPC9nPiYjeGE7CQkJCTxnIGlkPSJzaGFwZTU5NzYtNDMiPiYjeGE7CQkJCQk8dGl0bGUgaWQ9InRpdGxlNTgzOTMiPlNoZWV0LjU5NzY8L3RpdGxlPiYjeGE7CQkJCQk8cGF0aCBpZD0icGF0aDU4Mzk1IiBpbmtzY2FwZTpjb25uZWN0b3ItY3VydmF0dXJlPSIwIiBzdHlsZT0iZmlsbDojQTBBMUEyOyIgZD0iTTkuNzUsMzMuNjd2My43NkgxLjV2LTMuNzZIOS43NXogTTkuNzUsMzIuMTcgICAgICAgSDEuNWMtMC44MywwLTEuNSwwLjY4LTEuNSwxLjV2My43NmMwLDAuODIsMC42NywxLjUsMS41LDEuNWg4LjI1YzAuODMsMCwxLjUtMC42OCwxLjUtMS41di0zLjc2ICAgICAgIEMxMS4yNSwzMi44NSwxMC41OCwzMi4xNyw5Ljc1LDMyLjE3eiIvPiYjeGE7CQkJCTwvZz4mI3hhOwkJCTwvZz4mI3hhOwkJCTxnIGlkPSJncm91cDU5NzctNDUiIHRyYW5zZm9ybT0idHJhbnNsYXRlKDE5LjUsLTEwLjUpIj4mI3hhOwkJCQk8dGl0bGUgaWQ9InRpdGxlNTgzOTkiPlNoZWV0LjU5Nzc8L3RpdGxlPiYjeGE7CQkJCTxnIGlkPSJzaGFwZTU5NzgtNDYiIHRyYW5zZm9ybT0idHJhbnNsYXRlKDAuNzUsLTAuNzUpIj4mI3hhOwkJCQkJPHRpdGxlIGlkPSJ0aXRsZTU4NDAxIj5TaGVldC41OTc4PC90aXRsZT4mI3hhOwkJCQkJPHBhdGggaWQ9InBhdGg1ODQwMyIgaW5rc2NhcGU6Y29ubmVjdG9yLWN1cnZhdHVyZT0iMCIgc3R5bGU9ImZpbGw6I0JBMTQxQTsiIGQ9Ik0wLjc1LDM4LjkzQzAuMzQsMzguOTMsMCwzOC41OSwwLDM4LjE4di0zLjc2ICAgICAgIGMwLTAuNDEsMC4zNC0wLjc1LDAuNzUtMC43NUg5YzAuNDEsMCwwLjc1LDAuMzQsMC43NSwwLjc1djMuNzZjMCwwLjQxLTAuMzQsMC43NS0wLjc1LDAuNzVMMC43NSwzOC45M3oiLz4mI3hhOwkJCQk8L2c+JiN4YTsJCQkJPGcgaWQ9InNoYXBlNTk3OS00OCI+JiN4YTsJCQkJCTx0aXRsZSBpZD0idGl0bGU1ODQwNiI+U2hlZXQuNTk3OTwvdGl0bGU+JiN4YTsJCQkJCTxwYXRoIGlkPSJwYXRoNTg0MDgiIGlua3NjYXBlOmNvbm5lY3Rvci1jdXJ2YXR1cmU9IjAiIHN0eWxlPSJmaWxsOiNBMEExQTI7IiBkPSJNOS43NSwzMy42N3YzLjc2SDEuNXYtMy43Nkg5Ljc1eiBNOS43NSwzMi4xNyAgICAgICBIMS41Yy0wLjgzLDAtMS41LDAuNjgtMS41LDEuNXYzLjc2YzAsMC44MiwwLjY3LDEuNSwxLjUsMS41aDguMjVjMC44MywwLDEuNS0wLjY4LDEuNS0xLjV2LTMuNzYgICAgICAgQzExLjI1LDMyLjg1LDEwLjU4LDMyLjE3LDkuNzUsMzIuMTd6Ii8+JiN4YTsJCQkJPC9nPiYjeGE7CQkJPC9nPiYjeGE7CQkJPGcgaWQ9Imdyb3VwNTk4MC01MCIgdHJhbnNmb3JtPSJ0cmFuc2xhdGUoOS43NSwtNS4yNSkiPiYjeGE7CQkJCTx0aXRsZSBpZD0idGl0bGU1ODQxMiI+U2hlZXQuNTk4MDwvdGl0bGU+JiN4YTsJCQkJPGcgaWQ9InNoYXBlNTk4MS01MSIgdHJhbnNmb3JtPSJ0cmFuc2xhdGUoMC43NSwtMC43NSkiPiYjeGE7CQkJCQk8dGl0bGUgaWQ9InRpdGxlNTg0MTQiPlNoZWV0LjU5ODE8L3RpdGxlPiYjeGE7CQkJCQk8cGF0aCBpZD0icGF0aDU4NDE2IiBpbmtzY2FwZTpjb25uZWN0b3ItY3VydmF0dXJlPSIwIiBzdHlsZT0iZmlsbDojQkExNDFBOyIgZD0iTTAuNzUsMzguOTNDMC4zNCwzOC45MywwLDM4LjU5LDAsMzguMTh2LTMuNzYgICAgICAgYzAtMC40MSwwLjM0LTAuNzUsMC43NS0wLjc1SDljMC40MSwwLDAuNzUsMC4zNCwwLjc1LDAuNzV2My43NmMwLDAuNDEtMC4zNCwwLjc1LTAuNzUsMC43NUwwLjc1LDM4LjkzeiIvPiYjeGE7CQkJCTwvZz4mI3hhOwkJCQk8ZyBpZD0ic2hhcGU1OTgyLTUzIj4mI3hhOwkJCQkJPHRpdGxlIGlkPSJ0aXRsZTU4NDE5Ij5TaGVldC41OTgyPC90aXRsZT4mI3hhOwkJCQkJPHBhdGggaWQ9InBhdGg1ODQyMSIgaW5rc2NhcGU6Y29ubmVjdG9yLWN1cnZhdHVyZT0iMCIgc3R5bGU9ImZpbGw6I0EwQTFBMjsiIGQ9Ik05Ljc1LDMzLjY3djMuNzZIMS41di0zLjc2SDkuNzV6IE05Ljc1LDMyLjE3ICAgICAgIEgxLjVjLTAuODMsMC0xLjUsMC42OC0xLjUsMS41djMuNzZjMCwwLjgyLDAuNjcsMS41LDEuNSwxLjVoOC4yNWMwLjgzLDAsMS41LTAuNjgsMS41LTEuNXYtMy43NiAgICAgICBDMTEuMjUsMzIuODUsMTAuNTgsMzIuMTcsOS43NSwzMi4xN3oiLz4mI3hhOwkJCQk8L2c+JiN4YTsJCQk8L2c+JiN4YTsJCQk8ZyBpZD0iZ3JvdXA1OTgzLTU1IiB0cmFuc2Zvcm09InRyYW5zbGF0ZSgxOS41KSI+JiN4YTsJCQkJPHRpdGxlIGlkPSJ0aXRsZTU4NDI1Ij5TaGVldC41OTgzPC90aXRsZT4mI3hhOwkJCQk8ZyBpZD0ic2hhcGU1OTg0LTU2IiB0cmFuc2Zvcm09InRyYW5zbGF0ZSgwLjc1LC0wLjc1KSI+JiN4YTsJCQkJCTx0aXRsZSBpZD0idGl0bGU1ODQyNyI+U2hlZXQuNTk4NDwvdGl0bGU+JiN4YTsJCQkJCTxwYXRoIGlkPSJwYXRoNTg0MjkiIGlua3NjYXBlOmNvbm5lY3Rvci1jdXJ2YXR1cmU9IjAiIHN0eWxlPSJmaWxsOiNERDU5MDA7IiBkPSJNMC43NSwzOC45M0MwLjM0LDM4LjkzLDAsMzguNTksMCwzOC4xOHYtMy43NiAgICAgICBjMC0wLjQxLDAuMzQtMC43NSwwLjc1LTAuNzVIOWMwLjQxLDAsMC43NSwwLjM0LDAuNzUsMC43NXYzLjc2YzAsMC40MS0wLjM0LDAuNzUtMC43NSwwLjc1TDAuNzUsMzguOTN6Ii8+JiN4YTsJCQkJPC9nPiYjeGE7CQkJCTxnIGlkPSJzaGFwZTU5ODUtNTgiPiYjeGE7CQkJCQk8dGl0bGUgaWQ9InRpdGxlNTg0MzIiPlNoZWV0LjU5ODU8L3RpdGxlPiYjeGE7CQkJCQk8cGF0aCBpZD0icGF0aDU4NDM0IiBpbmtzY2FwZTpjb25uZWN0b3ItY3VydmF0dXJlPSIwIiBzdHlsZT0iZmlsbDojQTBBMUEyOyIgZD0iTTkuNzUsMzMuNjd2My43NkgxLjV2LTMuNzZIOS43NXogTTkuNzUsMzIuMTcgICAgICAgSDEuNWMtMC44MywwLTEuNSwwLjY4LTEuNSwxLjV2My43NmMwLDAuODIsMC42NywxLjUsMS41LDEuNWg4LjI1YzAuODMsMCwxLjUtMC42OCwxLjUtMS41di0zLjc2ICAgICAgIEMxMS4yNSwzMi44NSwxMC41OCwzMi4xNyw5Ljc1LDMyLjE3eiIvPiYjeGE7CQkJCTwvZz4mI3hhOwkJCTwvZz4mI3hhOwkJCTxnIGlkPSJncm91cDU5ODYtNjAiPiYjeGE7CQkJCTx0aXRsZSBpZD0idGl0bGU1ODQzOCI+U2hlZXQuNTk4NjwvdGl0bGU+JiN4YTsJCQkJPGcgaWQ9InNoYXBlNTk4Ny02MSIgdHJhbnNmb3JtPSJ0cmFuc2xhdGUoMC43NSwtMC43NSkiPiYjeGE7CQkJCQk8dGl0bGUgaWQ9InRpdGxlNTg0NDAiPlNoZWV0LjU5ODc8L3RpdGxlPiYjeGE7CQkJCQk8cGF0aCBpZD0icGF0aDU4NDQyIiBpbmtzY2FwZTpjb25uZWN0b3ItY3VydmF0dXJlPSIwIiBzdHlsZT0iZmlsbDojQkExNDFBOyIgZD0iTTAuNzUsMzguOTNDMC4zNCwzOC45MywwLDM4LjU5LDAsMzguMTh2LTMuNzYgICAgICAgYzAtMC40MSwwLjM0LTAuNzUsMC43NS0wLjc1SDljMC40MSwwLDAuNzUsMC4zNCwwLjc1LDAuNzV2My43NmMwLDAuNDEtMC4zNCwwLjc1LTAuNzUsMC43NUwwLjc1LDM4LjkzeiIvPiYjeGE7CQkJCTwvZz4mI3hhOwkJCQk8ZyBpZD0ic2hhcGU1OTg4LTYzIj4mI3hhOwkJCQkJPHRpdGxlIGlkPSJ0aXRsZTU4NDQ1Ij5TaGVldC41OTg4PC90aXRsZT4mI3hhOwkJCQkJPHBhdGggaWQ9InBhdGg1ODQ0NyIgaW5rc2NhcGU6Y29ubmVjdG9yLWN1cnZhdHVyZT0iMCIgc3R5bGU9ImZpbGw6I0EwQTFBMjsiIGQ9Ik05Ljc1LDMzLjY3djMuNzZIMS41di0zLjc2SDkuNzV6IE05Ljc1LDMyLjE3ICAgICAgIEgxLjVjLTAuODMsMC0xLjUsMC42OC0xLjUsMS41djMuNzZjMCwwLjgyLDAuNjcsMS41LDEuNSwxLjVoOC4yNWMwLjgzLDAsMS41LTAuNjgsMS41LTEuNXYtMy43NiAgICAgICBDMTEuMjUsMzIuODUsMTAuNTgsMzIuMTcsOS43NSwzMi4xN3oiLz4mI3hhOwkJCQk8L2c+JiN4YTsJCQk8L2c+JiN4YTsJCTwvZz4mI3hhOwk8L2c+JiN4YTs8L2c+JiN4YTs8L3N2Zz4=;" vertex="1" parent="1">
          <mxGeometry x="239.99999999999994" y="40" width="37" height="37" as="geometry" />
        </mxCell>
        <mxCell id="iqBsh06_ElT_HYazCzKP-3" value="" style="shape=image;verticalLabelPosition=bottom;labelBackgroundColor=#ffffff;verticalAlign=top;aspect=fixed;imageAspect=0;image=data:image/svg+xml,PHN2ZyB4bWxuczpkYz0iaHR0cDovL3B1cmwub3JnL2RjL2VsZW1lbnRzLzEuMS8iIHhtbG5zOmNjPSJodHRwOi8vY3JlYXRpdmVjb21tb25zLm9yZy9ucyMiIHhtbG5zOnJkZj0iaHR0cDovL3d3dy53My5vcmcvMTk5OS8wMi8yMi1yZGYtc3ludGF4LW5zIyIgeG1sbnM6c3ZnPSJodHRwOi8vd3d3LnczLm9yZy8yMDAwL3N2ZyIgeG1sbnM9Imh0dHA6Ly93d3cudzMub3JnLzIwMDAvc3ZnIiB4bWxuczpzb2RpcG9kaT0iaHR0cDovL3NvZGlwb2RpLnNvdXJjZWZvcmdlLm5ldC9EVEQvc29kaXBvZGktMC5kdGQiIHhtbG5zOmlua3NjYXBlPSJodHRwOi8vd3d3Lmlua3NjYXBlLm9yZy9uYW1lc3BhY2VzL2lua3NjYXBlIiB2ZXJzaW9uPSIxLjEiIGlkPSJzdmc0OTI1OSIgaW5rc2NhcGU6dmVyc2lvbj0iMC45Mi4zICgyNDA1NTQ2LCAyMDE4LTAzLTExKSIgc29kaXBvZGk6ZG9jbmFtZT0iYXBwbGljYXRpb25fZ2F0ZXdheS5zdmciIHg9IjBweCIgeT0iMHB4IiB2aWV3Qm94PSIwIDAgMTAwLjMxIDEwMC4xMSIgeG1sOnNwYWNlPSJwcmVzZXJ2ZSIgd2lkdGg9IjEwMC4zMSIgaGVpZ2h0PSIxMDAuMTEiPjxtZXRhZGF0YSBpZD0ibWV0YWRhdGExNjMzNSI+PHJkZjpSREY+PGNjOldvcmsgcmRmOmFib3V0PSIiPjxkYzpmb3JtYXQ+aW1hZ2Uvc3ZnK3htbDwvZGM6Zm9ybWF0PjxkYzp0eXBlIHJkZjpyZXNvdXJjZT0iaHR0cDovL3B1cmwub3JnL2RjL2RjbWl0eXBlL1N0aWxsSW1hZ2UiLz48ZGM6dGl0bGUvPjwvY2M6V29yaz48L3JkZjpSREY+PC9tZXRhZGF0YT48ZGVmcyBpZD0iZGVmczE2MzMzIi8+JiN4YTs8ZmlsdGVyIGlkPSJmaWx0ZXJfMiI+JiN4YTsJPGZlR2F1c3NpYW5CbHVyIGlkPSJmZUdhdXNzaWFuQmx1cjQ5MTg0IiBzdGREZXZpYXRpb249IjIiLz4mI3hhOzwvZmlsdGVyPiYjeGE7PHNvZGlwb2RpOm5hbWVkdmlldyBib3JkZXJjb2xvcj0iIzY2NjY2NiIgYm9yZGVyb3BhY2l0eT0iMSIgZml0LW1hcmdpbi1ib3R0b209IjAiIGZpdC1tYXJnaW4tbGVmdD0iMCIgZml0LW1hcmdpbi1yaWdodD0iMCIgZml0LW1hcmdpbi10b3A9IjAiIGdyaWR0b2xlcmFuY2U9IjEwIiBndWlkZXRvbGVyYW5jZT0iMTAiIGlkPSJuYW1lZHZpZXc0OTI2MSIgaW5rc2NhcGU6Y3VycmVudC1sYXllcj0ic3ZnNDkyNTkiIGlua3NjYXBlOmN4PSIzNy42OTE3NzEiIGlua3NjYXBlOmN5PSI0OC40MTY5MjYiIGlua3NjYXBlOnBhZ2VvcGFjaXR5PSIwIiBpbmtzY2FwZTpwYWdlc2hhZG93PSIyIiBpbmtzY2FwZTp3aW5kb3ctaGVpZ2h0PSIxMDE3IiBpbmtzY2FwZTp3aW5kb3ctbWF4aW1pemVkPSIxIiBpbmtzY2FwZTp3aW5kb3ctd2lkdGg9IjE5MjAiIGlua3NjYXBlOndpbmRvdy14PSItOCIgaW5rc2NhcGU6d2luZG93LXk9Ii04IiBpbmtzY2FwZTp6b29tPSI1LjIxOTMxOTgiIG9iamVjdHRvbGVyYW5jZT0iMTAiIHBhZ2Vjb2xvcj0iI2ZmZmZmZiIgc2hvd2dyaWQ9ImZhbHNlIj4mI3hhOwk8L3NvZGlwb2RpOm5hbWVkdmlldz4mI3hhOyYjeGE7PHBhdGggaWQ9InBhdGg0OTE5NyIgaW5rc2NhcGU6Y29ubmVjdG9yLWN1cnZhdHVyZT0iMCIgc3R5bGU9ImZpbGw6IzdmYmEwMCIgZD0ibSA1MC4wNSwxMDAuMTEgYyAtMi40LDAgLTQuOCwtMS4wMSAtNi42LC0yLjgxIEwgMi44LDU2LjY2IEMgMSw1NC44NiAwLDUyLjQ2IDAsNTAuMDUgYyAwLC0yLjQgMSwtNC44IDIuOCwtNi42IEwgNDMuNDUsMi44IEMgNDUuMjUsMSA0Ny42NSwwIDUwLjA1LDAgYyAyLjQxLDAgNC44MSwxIDYuNjEsMi44IEwgOTcuNSw0My42NSBjIDEuOCwxLjggMi44MSw0IDIuODEsNi42IDAsMi40MSAtMS4wMSw0LjgxIC0yLjgxLDYuNjEgTCA1Ni42Niw5Ny4zIGMgLTEuOCwxLjggLTQuMiwyLjgxIC02LjYxLDIuODEgeiIvPiYjeGE7JiN4YTs8cGF0aCBpZD0icGF0aDQ5MjA1IiBpbmtzY2FwZTpjb25uZWN0b3ItY3VydmF0dXJlPSIwIiBzdHlsZT0iZmlsbDojZmZmZmZmIiBkPSJtIDU5LjU0LDM3LjIgYyAtMi44LDIuMTQgLTYuMDksMy4xOSAtOS4zNywzLjE5IC00LjY0LDAgLTkuMjQsLTIuMDkgLTEyLjI3LC02LjA2IC01LjE5LC02Ljc3IC0zLjkxLC0xNi40NiAyLjg3LC0yMS42NSAyLjgsLTIuMTUgNi4xLC0zLjE4IDkuMzcsLTMuMTggNC42NSwwIDkuMjQsMi4wOSAxMi4yOCw2LjA2IDUuMTgsNi43OCAzLjg5LDE2LjQ2IC0yLjg4LDIxLjY0IHoiLz4mI3hhOyYjeGE7PHBhdGggaWQ9InBhdGg0OTIxMyIgaW5rc2NhcGU6Y29ubmVjdG9yLWN1cnZhdHVyZT0iMCIgc3R5bGU9ImZpbGw6I2ZmZmZmZjtmaWxsLW9wYWNpdHk6MC4xNSIgZD0iTSA1Ni42NiwyLjggQyA1NC44NiwxIDUyLjQ2LDAgNTAuMDUsMCBjIC0yLjQsMCAtNC44LDEgLTYuNiwyLjggTCAyLjgsNDMuNDUgQyAxLDQ1LjI1IDAsNDcuNjUgMCw1MC4wNSBjIDAsMi40MSAxLDQuODEgMi44LDYuNjEgTCAyNS44Myw3OS42OSA2OS4yNywxNS40MiBaIi8+JiN4YTsmI3hhOzxwYXRoIGlkPSJwYXRoNDkyMjEiIGlua3NjYXBlOmNvbm5lY3Rvci1jdXJ2YXR1cmU9IjAiIHN0eWxlPSJmaWxsOiNmZmZmZmYiIGQ9Ik0gNTAuMDUsOTEuMyA2My4yNyw3OC4wOCBIIDUzLjg2IFYgMzguMzQgaCAtNy44MSB2IDM5Ljc0IGggLTkuMjEgeiIvPiYjeGE7JiN4YTs8cGF0aCBpZD0icGF0aDQ5MjI5IiBpbmtzY2FwZTpjb25uZWN0b3ItY3VydmF0dXJlPSIwIiBzdHlsZT0iZmlsbDojZmZmZmZmIiBkPSJNIDc4Ljc0LDY3LjA0IFYgNDguMzUgbCAtNi41MSw2LjUxIC0xNi45MSwtMTYuOTEgLTUuNjYsNS42NyAxNi45MSwxNi45IC02LjUyLDYuNTIgeiIvPiYjeGE7JiN4YTs8cGF0aCBpZD0icGF0aDQ5MjM3IiBpbmtzY2FwZTpjb25uZWN0b3ItY3VydmF0dXJlPSIwIiBzdHlsZT0iZmlsbDojZmZmZmZmIiBkPSJNIDIxLjM5LDY3LjExIEggNDAuMDggTCAzMy41Niw2MC41OSA1MC45NSw0My4yMSA0NS4yOCwzNy41NSAyNy45LDU0LjkzIDIxLjM5LDQ4LjQyIFoiLz4mI3hhOyYjeGE7PHBhdGggaWQ9InBhdGg0OTI0NSIgaW5rc2NhcGU6Y29ubmVjdG9yLWN1cnZhdHVyZT0iMCIgc3R5bGU9ImZpbGw6IzU5YjRkOSIgZD0ibSA1OC4yOSwzNS41OCBjIC0yLjQyLDEuODUgLTUuMjgsMi43NiAtOC4xMiwyLjc2IC00LjAzLDAgLTguMDEsLTEuODEgLTEwLjY0LC01LjI2IC00LjUsLTUuODcgLTMuMzksLTE0LjI3IDIuNDksLTE4Ljc3IDIuNDMsLTEuODYgNS4yOSwtMi43NSA4LjEyLC0yLjc1IDQuMDMsMCA4LjAyLDEuOCAxMC42NSw1LjI1IDQuNSw1Ljg3IDMuMzgsMTQuMjcgLTIuNSwxOC43NyB6Ii8+JiN4YTsmI3hhOzxwYXRoIGlkPSJwYXRoNDkyNTMiIGlua3NjYXBlOmNvbm5lY3Rvci1jdXJ2YXR1cmU9IjAiIHN0eWxlPSJmaWxsOiNmZmZmZmYiIGQ9Im0gNTUuODMsMjcuMyBjIDAuOTgsMS4yNyAyLjc4LDEuNDkgNC4wNCwwLjU0IDAuMDcsLTAuMDUgMC4xMiwtMC4xMiAwLjE4LC0wLjE3IDEuMjksMC45MSAyLjE4LDEuNTEgMi42OSwxLjg1IDAuMTUsLTAuMzkgMC4yNSwtMC43NiAwLjM2LC0xLjE1IC0wLjUzLC0wLjM5IC0xLjI2LC0wLjk1IC0yLjMsLTEuNzkgMC4zNCwtMC45IDAuMjMsLTEuOTUgLTAuMzksLTIuNzggLTAuOSwtMS4xNSAtMi40OCwtMS40NSAtMy43MiwtMC43MyAtMS4zNiwtMS4yMyAtMi44NiwtMi42MyAtNC40NCwtNC4yIDQuOTEsLTIuNjQgOC40LC0yLjI1IDguNCwtMi4yNSAtMC41OSwtMC43NSAtMS4yNCwtMS40IC0xLjkzLC0xLjk4IC0yLjA3LC0wLjMyIC01LjI5LC0wLjI5IC04Ljk3LDEuNjcgViAxNi4zIGMgLTEuMjIsLTEuMjggLTIuNDcsLTIuNjUgLTMuNzQsLTQuMTMgLTAuNiwwLjIgLTEuMiwwLjQ0IC0xLjc3LDAuNzMgMC45MywxLjUzIDIuMiwzLjA3IDMuNjIsNC41OCAwLDAuMDEgMCwwLjAxIDAuMDEsMC4wMSAtMS4xOSwwLjgzIC0yLjUxLDEuOTQgLTMuNzIsMy4yMyAtMC4xNiwwLjE2IC0wLjMxLDAuMzMgLTAuNDUsMC40OSAtMC43MywtMC4xNSAtMS41LC0wLjEgLTIuMjEsMC4xNSAtMS4yMSwtMi42MSAtMS4xMiwtNC43MSAtMC45MiwtNS44IC0wLjUzLDAuNTUgLTEuMDIsMS4xMyAtMS40NSwxLjc1IC0wLjMxLDEuMyAtMC40LDMuMTYgMC41Myw1LjQxIC0xLjA4LDEuNDIgLTEuMTMsMy40MiAwLDQuOSAwLjEsMC4xMiAwLjIsMC4yNCAwLjMsMC4zNSAtMC40OSwxLjY4IC0wLjcxLDMuMyAtMC43OCw0LjY5IDAuMTIsMC4xNyAwLjEyLDAuMzEgMC4yNSwwLjQ4IDAuNjQsMC44MyAxLjQ1LDEuNTIgMi4yMywyLjE1IC0wLjEsLTEuNDcgMC4wMSwtMy42NSAwLjkyLC02LjA5IDAuNjMsMC4wNCAxLjI3LC0wLjA2IDEuODYsLTAuMzEgMC4zNSwwLjMxIDAuNywwLjYxIDEuMDksMC45MiAxLjMxLDEuMDQgMi42MiwxLjg1IDMuOSwyLjQ5IC0wLjA2LDAuNjUgMC4xLDEuMzIgMC41MiwxLjg4IDAuOSwxLjE3IDIuNTcsMS4zOSAzLjc0LDAuNDkgMC4yNCwtMC4xOCAwLjQzLC0wLjQxIDAuNTksLTAuNjUgMi4wOSwwLjQ3IDMuOTEsMC41NSA1LjI2LDAuNTUgMC4yLDAgMS4xNiwtMS4zMSAxLjcxLC0yLjExIC0wLjgyLDAuMTcgLTMuMjYsMC41IC02LjU5LC0wLjQ1IC0wLjA4LC0wLjM4IC0wLjIzLC0wLjc0IC0wLjQ4LC0xLjA3IC0wLjg0LC0xLjEgLTIuMzksLTEuMzUgLTMuNTQsLTAuNiAtMS4xNiwtMC42MyAtMi4zNywtMS40MiAtMy42MiwtMi40MSAtMC4yNiwtMC4yIC0wLjUsLTAuNCAtMC43MywtMC42IDAuNzYsLTEuMiAwLjg0LC0yLjc0IDAuMTcsLTQuMDQgMC4xNSwtMC4xNSAwLjMsLTAuMzEgMC40NiwtMC40NiAxLjI0LC0xLjE2IDIuNDEsLTIuMDggMy41LC0yLjgyIC0wLjA1LC0wLjA0IC0wLjA5LC0wLjA5IC0wLjEzLC0wLjEzIDAuMDQsMC4wNCAwLjA4LDAuMDggMC4xMywwLjEyIHYgMCBjIDEuNjcsMS41NSAzLjQ0LDMuMDIgNS4xMiw0LjMzIC0wLjQ0LDAuOTQgLTAuMzcsMi4wOCAwLjMsMi45NyB6Ii8+JiN4YTs8L3N2Zz4=;" vertex="1" parent="1">
          <mxGeometry x="800" width="100" height="100" as="geometry" />
        </mxCell>
        <mxCell id="iqBsh06_ElT_HYazCzKP-4" value="" style="shape=image;verticalLabelPosition=bottom;labelBackgroundColor=#ffffff;verticalAlign=top;aspect=fixed;imageAspect=0;image=data:image/svg+xml,PHN2ZyB4bWxuczpkYz0iaHR0cDovL3B1cmwub3JnL2RjL2VsZW1lbnRzLzEuMS8iIHhtbG5zOmNjPSJodHRwOi8vY3JlYXRpdmVjb21tb25zLm9yZy9ucyMiIHhtbG5zOnJkZj0iaHR0cDovL3d3dy53My5vcmcvMTk5OS8wMi8yMi1yZGYtc3ludGF4LW5zIyIgeG1sbnM6c3ZnPSJodHRwOi8vd3d3LnczLm9yZy8yMDAwL3N2ZyIgeG1sbnM9Imh0dHA6Ly93d3cudzMub3JnLzIwMDAvc3ZnIiB4bWxuczpzb2RpcG9kaT0iaHR0cDovL3NvZGlwb2RpLnNvdXJjZWZvcmdlLm5ldC9EVEQvc29kaXBvZGktMC5kdGQiIHhtbG5zOmlua3NjYXBlPSJodHRwOi8vd3d3Lmlua3NjYXBlLm9yZy9uYW1lc3BhY2VzL2lua3NjYXBlIiB2ZXJzaW9uPSIxLjEiIGlkPSJzdmc1MDUyOCIgaW5rc2NhcGU6dmVyc2lvbj0iMC45Mi4zICgyNDA1NTQ2LCAyMDE4LTAzLTExKSIgc29kaXBvZGk6ZG9jbmFtZT0iYXp1cmVfYWN0aXZlX2RpcmVjdG9yeS5zdmciIHg9IjBweCIgeT0iMHB4IiB2aWV3Qm94PSIwIDAgNzcuNzUgNzcuNzUiIHhtbDpzcGFjZT0icHJlc2VydmUiIHdpZHRoPSI3Ny43NSIgaGVpZ2h0PSI3Ny43NSI+PG1ldGFkYXRhIGlkPSJtZXRhZGF0YTE3MTc1Ij48cmRmOlJERj48Y2M6V29yayByZGY6YWJvdXQ9IiI+PGRjOmZvcm1hdD5pbWFnZS9zdmcreG1sPC9kYzpmb3JtYXQ+PGRjOnR5cGUgcmRmOnJlc291cmNlPSJodHRwOi8vcHVybC5vcmcvZGMvZGNtaXR5cGUvU3RpbGxJbWFnZSIvPjxkYzp0aXRsZS8+PC9jYzpXb3JrPjwvcmRmOlJERj48L21ldGFkYXRhPjxkZWZzIGlkPSJkZWZzMTcxNzMiLz4mI3hhOzxmaWx0ZXIgaWQ9ImZpbHRlcl8yIj4mI3hhOwk8ZmVHYXVzc2lhbkJsdXIgaWQ9ImZlR2F1c3NpYW5CbHVyNTA0NDUiIHN0ZERldmlhdGlvbj0iMiIvPiYjeGE7PC9maWx0ZXI+JiN4YTs8c29kaXBvZGk6bmFtZWR2aWV3IGJvcmRlcmNvbG9yPSIjNjY2NjY2IiBib3JkZXJvcGFjaXR5PSIxIiBmaXQtbWFyZ2luLWJvdHRvbT0iMCIgZml0LW1hcmdpbi1sZWZ0PSIwIiBmaXQtbWFyZ2luLXJpZ2h0PSIwIiBmaXQtbWFyZ2luLXRvcD0iMCIgZ3JpZHRvbGVyYW5jZT0iMTAiIGd1aWRldG9sZXJhbmNlPSIxMCIgaWQ9Im5hbWVkdmlldzUwNTMwIiBpbmtzY2FwZTpjdXJyZW50LWxheWVyPSJzdmc1MDUyOCIgaW5rc2NhcGU6Y3g9IjM4Ljk1OTQ2IiBpbmtzY2FwZTpjeT0iNDguMjc1NzU2IiBpbmtzY2FwZTpwYWdlb3BhY2l0eT0iMCIgaW5rc2NhcGU6cGFnZXNoYWRvdz0iMiIgaW5rc2NhcGU6d2luZG93LWhlaWdodD0iMTAxNyIgaW5rc2NhcGU6d2luZG93LW1heGltaXplZD0iMSIgaW5rc2NhcGU6d2luZG93LXdpZHRoPSIxOTIwIiBpbmtzY2FwZTp3aW5kb3cteD0iLTgiIGlua3NjYXBlOndpbmRvdy15PSItOCIgaW5rc2NhcGU6em9vbT0iNC40OTc3OTQzIiBvYmplY3R0b2xlcmFuY2U9IjEwIiBwYWdlY29sb3I9IiNmZmZmZmYiIHNob3dncmlkPSJmYWxzZSI+JiN4YTsJPC9zb2RpcG9kaTpuYW1lZHZpZXc+JiN4YTsmI3hhOzxwYXRoIGlkPSJwYXRoNTA0NTgiIGlua3NjYXBlOmNvbm5lY3Rvci1jdXJ2YXR1cmU9IjAiIHN0eWxlPSJmaWxsOiM1OWI0ZDkiIGQ9Im0gMzguODcsNzcuNzUgYyAtMS45MSwwIC0zLjcxLC0wLjc1IC01LjA3LC0yLjEgTCAyLjEsNDMuOTQgQyAwLjc3LDQyLjYxIDAsNDAuNzYgMCwzOC44NyAwLDM2Ljk5IDAuNzcsMzUuMTQgMi4xLDMzLjggTCAzMy44LDIuMSBDIDM1LjE2LDAuNzUgMzYuOTYsMCAzOC44NywwIGMgMS45MiwwIDMuNzIsMC43NSA1LjA4LDIuMSBsIDMxLjY5LDMxLjcgYyAxLjM2LDEuMzUgMi4xMSwzLjE2IDIuMTEsNS4wNyAwLDEuOTIgLTAuNzUsMy43MiAtMi4xMSw1LjA4IGwgLTMxLjY5LDMxLjcgYyAtMS4zNiwxLjM1IC0zLjE2LDIuMSAtNS4wOCwyLjEgeiIvPiYjeGE7JiN4YTs8cGF0aCBpZD0icGF0aDUwNDY2IiBpbmtzY2FwZTpjb25uZWN0b3ItY3VydmF0dXJlPSIwIiBzdHlsZT0iZmlsbDojZmZmZmZmIiBkPSJtIDYwLjA1LDMyLjggYyAtMy4zNiwwIC02LjA4LDIuNzIgLTYuMDgsNi4wOCAwLDEuMjMgMC4zNywyLjM3IDEsMy4zMyBMIDQyLjkzLDU0LjI1IEMgNDIuNjEsNTQuMDIgNDIuMjYsNTMuODQgNDEuOTEsNTMuNjcgViAyMi45NSBjIDEuODEsLTEuMDUgMy4wNSwtMi45OSAzLjA1LC01LjI0IDAsLTMuMzYgLTIuNzIsLTYuMDggLTYuMDgsLTYuMDggLTMuMzYsMCAtNi4wOCwyLjcyIC02LjA4LDYuMDggMCwyLjI1IDEuMjMsNC4xOSAzLjA1LDUuMjQgViA1My42NyBDIDM1LjUxLDUzLjgzIDM1LjE3LDU0IDM0Ljg3LDU0LjIyIEwgMjIuODEsNDIuMTYgYyAwLjYxLC0wLjk1IDAuOTgsLTIuMDcgMC45OCwtMy4yOCAwLC0zLjM2IC0yLjcyLC02LjA4IC02LjA4LC02LjA4IC0zLjM2LDAgLTYuMDgsMi43MiAtNi4wOCw2LjA4IDAsMy4zNSAyLjcyLDYuMDcgNi4wOCw2LjA3IDAuNywwIDEuMzYsLTAuMTQgMS45OCwtMC4zNSBsIDEyLjY3LDEyLjY3IGMgLTAuMzYsMC44NSAtMC41NiwxLjc5IC0wLjU2LDIuNzcgMCwzLjkxIDMuMTcsNy4wOCA3LjA3LDcuMDggMy45MSwwIDcuMDgsLTMuMTcgNy4wOCwtNy4wOCAwLC0wLjk2IC0wLjIsLTEuODggLTAuNTUsLTIuNzIgTCA1OC4xMSw0NC42MSBjIDAuNjEsMC4yMSAxLjI1LDAuMzQgMS45MywwLjM0IDMuMzYsMCA2LjA4LC0yLjcyIDYuMDgsLTYuMDcgMCwtMy4zNiAtMi43MiwtNi4wOCAtNi4wNywtNi4wOCB6Ii8+JiN4YTsmI3hhOyYjeGE7JiN4YTsmI3hhOyYjeGE7PHBhdGggaWQ9InBhdGg1MDQ5MCIgaW5rc2NhcGU6Y29ubmVjdG9yLWN1cnZhdHVyZT0iMCIgc3R5bGU9ImZpbGw6I2I4ZDQzMiIgZD0ibSA0My4wMiw2MC4wNSBjIDAsMi4zMiAtMS44OSw0LjIxIC00LjIyLDQuMjEgLTIuMzMsMCAtNC4yMSwtMS44OSAtNC4yMSwtNC4yMSAwLC0yLjMzIDEuODgsLTQuMjIgNC4yMSwtNC4yMiAyLjMzLDAgNC4yMiwxLjg5IDQuMjIsNC4yMiB6Ii8+JiN4YTsmI3hhOzxwYXRoIGlkPSJwYXRoNTA0OTgiIGlua3NjYXBlOmNvbm5lY3Rvci1jdXJ2YXR1cmU9IjAiIHN0eWxlPSJmaWxsOiNiOGQ0MzIiIGQ9Im0gNDIuMjUsMTcuNzIgYyAwLDEuODYgLTEuNTEsMy4zOCAtMy4zOCwzLjM4IC0xLjg3LDAgLTMuMzgsLTEuNTIgLTMuMzgsLTMuMzggMCwtMS44NyAxLjUxLC0zLjM4IDMuMzgsLTMuMzggMS44NywwIDMuMzgsMS41MSAzLjM4LDMuMzggeiIvPiYjeGE7JiN4YTs8cGF0aCBpZD0icGF0aDUwNTA2IiBpbmtzY2FwZTpjb25uZWN0b3ItY3VydmF0dXJlPSIwIiBzdHlsZT0iZmlsbDojYjhkNDMyIiBkPSJtIDIxLjA5LDM4Ljg4IGMgMCwxLjg2IC0xLjUyLDMuMzggLTMuMzgsMy4zOCAtMS44NywwIC0zLjM4LC0xLjUyIC0zLjM4LC0zLjM4IDAsLTEuODcgMS41MSwtMy4zOCAzLjM4LC0zLjM4IDEuODYsMCAzLjM4LDEuNTEgMy4zOCwzLjM4IHoiLz4mI3hhOyYjeGE7PHBhdGggaWQ9InBhdGg1MDUxNCIgaW5rc2NhcGU6Y29ubmVjdG9yLWN1cnZhdHVyZT0iMCIgc3R5bGU9ImZpbGw6I2I4ZDQzMiIgZD0ibSA2My40MiwzOC44OCBjIDAsMS44NiAtMS41MSwzLjM4IC0zLjM4LDMuMzggLTEuODcsMCAtMy4zOCwtMS41MiAtMy4zOCwtMy4zOCAwLC0xLjg3IDEuNTEsLTMuMzggMy4zOCwtMy4zOCAxLjg3LDAgMy4zOCwxLjUxIDMuMzgsMy4zOCB6Ii8+JiN4YTsmI3hhOzxwYXRoIGlkPSJwYXRoNTA1MjIiIGlua3NjYXBlOmNvbm5lY3Rvci1jdXJ2YXR1cmU9IjAiIHN0eWxlPSJmaWxsOiNmZmZmZmY7ZmlsbC1vcGFjaXR5OjAuMDk4MDAwMDIiIGQ9Ik0gNDMuOTUsMi4xMSBDIDQyLjU5LDAuNzUgNDAuNzksMCAzOC44NywwIDM2Ljk2LDAgMzUuMTYsMC43NSAzMy44MSwyLjExIEwgMi4xLDMzLjgxIEMgMC43NywzNS4xNCAwLDM2Ljk5IDAsMzguODggYyAwLDEuODkgMC43NywzLjczIDIuMSw1LjA3IEwgMjAuMDUsNjEuOSA1My44MiwxMS45OCBaIi8+JiN4YTs8L3N2Zz4=;" vertex="1" parent="1">
          <mxGeometry x="300" y="370" width="78" height="78" as="geometry" />
        </mxCell>
        <mxCell id="iqBsh06_ElT_HYazCzKP-5" value="" style="shape=image;verticalLabelPosition=bottom;labelBackgroundColor=#ffffff;verticalAlign=top;aspect=fixed;imageAspect=0;image=data:image/svg+xml,PHN2ZyB4bWxuczp2PSJodHRwOi8vc2NoZW1hcy5taWNyb3NvZnQuY29tL3Zpc2lvLzIwMDMvU1ZHRXh0ZW5zaW9ucy8iIHhtbG5zOmRjPSJodHRwOi8vcHVybC5vcmcvZGMvZWxlbWVudHMvMS4xLyIgeG1sbnM6Y2M9Imh0dHA6Ly9jcmVhdGl2ZWNvbW1vbnMub3JnL25zIyIgeG1sbnM6cmRmPSJodHRwOi8vd3d3LnczLm9yZy8xOTk5LzAyLzIyLXJkZi1zeW50YXgtbnMjIiB4bWxuczpzdmc9Imh0dHA6Ly93d3cudzMub3JnLzIwMDAvc3ZnIiB4bWxucz0iaHR0cDovL3d3dy53My5vcmcvMjAwMC9zdmciIHhtbG5zOnNvZGlwb2RpPSJodHRwOi8vc29kaXBvZGkuc291cmNlZm9yZ2UubmV0L0RURC9zb2RpcG9kaS0wLmR0ZCIgeG1sbnM6aW5rc2NhcGU9Imh0dHA6Ly93d3cuaW5rc2NhcGUub3JnL25hbWVzcGFjZXMvaW5rc2NhcGUiIHZlcnNpb249IjEuMSIgaWQ9InN2ZzU2NjExIiBpbmtzY2FwZTp2ZXJzaW9uPSIwLjkyLjMgKDI0MDU1NDYsIDIwMTgtMDMtMTEpIiBzb2RpcG9kaTpkb2NuYW1lPSJhenVyZV9jb250YWluZXJfcmVnaXN0cnkuc3ZnIiB4PSIwcHgiIHk9IjBweCIgdmlld0JveD0iMCAwIDI2Ljk0IDIzLjYzIiB4bWw6c3BhY2U9InByZXNlcnZlIiB3aWR0aD0iMjYuOTQwMDAxIiBoZWlnaHQ9IjIzLjYyOTk5OSI+PG1ldGFkYXRhIGlkPSJtZXRhZGF0YTU5OTIiPjxyZGY6UkRGPjxjYzpXb3JrIHJkZjphYm91dD0iIj48ZGM6Zm9ybWF0PmltYWdlL3N2Zyt4bWw8L2RjOmZvcm1hdD48ZGM6dHlwZSByZGY6cmVzb3VyY2U9Imh0dHA6Ly9wdXJsLm9yZy9kYy9kY21pdHlwZS9TdGlsbEltYWdlIi8+PGRjOnRpdGxlLz48L2NjOldvcms+PC9yZGY6UkRGPjwvbWV0YWRhdGE+PGRlZnMgaWQ9ImRlZnM1OTkwIi8+JiN4YTs8ZmlsdGVyIGlkPSJmaWx0ZXJfMiI+JiN4YTsJPGZlR2F1c3NpYW5CbHVyIGlkPSJmZUdhdXNzaWFuQmx1cjU2NTI0IiBzdGREZXZpYXRpb249IjIiLz4mI3hhOzwvZmlsdGVyPiYjeGE7PHNvZGlwb2RpOm5hbWVkdmlldyBib3JkZXJjb2xvcj0iIzY2NjY2NiIgYm9yZGVyb3BhY2l0eT0iMSIgZml0LW1hcmdpbi1ib3R0b209IjAiIGZpdC1tYXJnaW4tbGVmdD0iMCIgZml0LW1hcmdpbi1yaWdodD0iMCIgZml0LW1hcmdpbi10b3A9IjAiIGdyaWR0b2xlcmFuY2U9IjEwIiBndWlkZXRvbGVyYW5jZT0iMTAiIGlkPSJuYW1lZHZpZXc1NjYxMyIgaW5rc2NhcGU6Y3VycmVudC1sYXllcj0ic3ZnNTY2MTEiIGlua3NjYXBlOmN4PSItMy4yMzMzOTE1IiBpbmtzY2FwZTpjeT0iMy4zOTE1MjcxIiBpbmtzY2FwZTpwYWdlb3BhY2l0eT0iMCIgaW5rc2NhcGU6cGFnZXNoYWRvdz0iMiIgaW5rc2NhcGU6d2luZG93LWhlaWdodD0iMTAxNyIgaW5rc2NhcGU6d2luZG93LW1heGltaXplZD0iMSIgaW5rc2NhcGU6d2luZG93LXdpZHRoPSIxOTIwIiBpbmtzY2FwZTp3aW5kb3cteD0iLTgiIGlua3NjYXBlOndpbmRvdy15PSItOCIgaW5rc2NhcGU6em9vbT0iMTUuMjM5OTUyIiBvYmplY3R0b2xlcmFuY2U9IjEwIiBwYWdlY29sb3I9IiNmZmZmZmYiIHNob3dncmlkPSJmYWxzZSI+JiN4YTsJPC9zb2RpcG9kaTpuYW1lZHZpZXc+JiN4YTs8djpkb2N1bWVudFByb3BlcnRpZXMgdjpsYW5nSUQ9IjIwNTciIHY6bWV0cmljPSJ0cnVlIiB2OnZpZXdNYXJrdXA9ImZhbHNlIi8+JiN4YTsmI3hhOzxwYXRoIGlkPSJwYXRoNTY1MzciIGlua3NjYXBlOmNvbm5lY3Rvci1jdXJ2YXR1cmU9IjAiIHN0eWxlPSJmaWxsOiM1OWI0ZDkiIGQ9Ik0gOC4xOCwxOC4wMyBIIDQuNDMgQyAxLjkzLDE3LjM5IDAsMTUuMzYgMCwxMi42NyAwLDEwLjQ0IDEuNCw4LjQgMy4yOSw3LjYzIDMuMjcsNy40IDMuMjYsNy4xNiAzLjI2LDYuOTMgMy4yNiwzLjEgNi4yNywwIDkuOTgsMCBjIDIuMDQsMCAzLjk3LDAuOTUgNS4yNCwyLjU5IDAuNzYsLTAuNCAxLjYsLTAuNiAyLjQ1LC0wLjYgMi45NCwwIDUuNDksMi42OSA1LjU5LDUuNyBMIDEzLjIyLDMuNDIgOC4xOCw2LjU1IFoiLz4mI3hhOyYjeGE7PHBhdGggaWQ9InBhdGg1NjU0NyIgaW5rc2NhcGU6Y29ubmVjdG9yLWN1cnZhdHVyZT0iMCIgc3R5bGU9ImZpbGw6Izk1OTU5NSIgZD0iTSAyNi45NCwyMC44OCAxMy4xLDIzLjYgMTMuMTYsMTMuNTggMjYuOTQsMTYuMjEgWiBNIDEzLjE1LDQuNzMgMjYuOTQsMTAuMDcgdiA1LjM2IEwgMTMuMTcsMTIuNDEgWiIvPiYjeGE7JiN4YTsmI3hhOzxwYXRoIGlkPSJwYXRoNTY1NTkiIGlua3NjYXBlOmNvbm5lY3Rvci1jdXJ2YXR1cmU9IjAiIHN0eWxlPSJmaWxsOiNiM2I0YjUiIGQ9Ik0gMTMuMTcsMTIuNCA5LjQyLDE0LjIgViA3LjA2IGwgMy43MywtMi4zMyB6IG0gMTMuMTQsMi40MSAtMTIuNSwtMi45NCB2IC02LjQgbCAxMi41LDQuNzUgeiBtIC02Ljg4LC0yLjMgMS4yNSwwLjM2IFYgOC42OSBMIDE5LjQzLDguMjQgWiBNIDE4LjE4LDcuODMgMTYuOTMsNy4zNyB2IDQuNDYgbCAxLjI1LDAuMzYgeiBtIDMuNzUsNS4zOSAxLjI0LDAuMzMgMC4wMiwtMy45NyAtMS4yNiwtMC40NCB6IG0gLTcuNSwtMi4wNSAxLjI1LDAuMzMgViA2Ljk0IEwgMTQuNDMsNi41MiBaIG0gMTEuMjUsLTAuNzEgLTEuMjUsLTAuNDUgdiAzLjg4IGwgMS4yNSwwLjM1IHogbSAtMTEuODcsNC4xOSB2IDguMjYgbCAxMi41LC0yLjM2IHYgLTMuOTIgeiBtIDAuNjIsNy4yOSB2IC02LjM1IGwgMS4yNSwwLjE2IHYgNS45OCB6IG0gMy43NSwtMC42NSAtMS4yNSwwLjI0IHYgLTUuNjIgbCAxLjI1LDAuMTkgeiBtIDEuMjUsLTAuMTggdiAtNC44OCBsIDEuMjUsMC4xNiB2IDQuNDggeiBtIDMuNzUsLTAuNjggLTEuMjUsMC4yMiB2IC00LjEgbCAxLjI1LDAuMTkgeiBtIDIuNTUsLTAuNDIgLTEuMywwLjI0IHYgLTMuMzggbCAxLjIxLDAuMTYgeiIvPiYjeGE7JiN4YTsmI3hhOzxwYXRoIGlkPSJwYXRoNTY1NjkiIGlua3NjYXBlOmNvbm5lY3Rvci1jdXJ2YXR1cmU9IjAiIHN0eWxlPSJmaWxsOiM5NTk1OTUiIGQ9Im0gMTAuNjksMTIuMjggLTAuNjMsMC4zOCBWIDcuNTkgbCAwLjYzLC0wLjM1IHogbSAxLjI0LC01Ljc4IC0wLjYyLDAuNDQgLTAuMDEsNC45MyAwLjYzLC0wLjM1IHoiLz4mI3hhOyYjeGE7PHBhdGggaWQ9InBhdGg1NjU3OSIgaW5rc2NhcGU6Y29ubmVjdG9yLWN1cnZhdHVyZT0iMCIgc3R5bGU9ImZpbGw6I2IzYjRiNSIgZD0iTSA5LjQyLDIxLjMyIDkuNCwxNS40NiAxMy4xNiwxMy41OSAxMy4xOCwyMy42MyBaIi8+JiN4YTsmI3hhOyYjeGE7PHBhdGggaWQ9InBhdGg1NjU4OSIgaW5rc2NhcGU6Y29ubmVjdG9yLWN1cnZhdHVyZT0iMCIgc3R5bGU9ImZpbGw6Izk1OTU5NSIgZD0iTSAxMC42MSwyMS4zIDEwLjA0LDIxIHYgLTQuOTUgbCAwLjU3LC0wLjI2IHogbSAxLjM0LC02LjEzIC0wLjYyLDAuMjggLTAuMDIsNi4yNCAwLjY0LDAuMzQgeiIvPiYjeGE7JiN4YTs8cGF0aCBpZD0icGF0aDU2NTk3IiBpbmtzY2FwZTpjb25uZWN0b3ItY3VydmF0dXJlPSIwIiBzdHlsZT0iZmlsbDojN2E3YTdhIiBkPSJtIDI1LjY3LDEwLjg4IC0xMS4yNCwtMy44OSAwLjAyLC0wLjUgMTEuMjIsMy45OCB6IG0gLTAuMDMsNi4xNSAtMTEuMTksLTEuNDQgdiAwLjUgbCAxMS4yLDEuMzYgeiBNIDExLjkzLDcuMTcgViA2LjUzIEwgMTAuMTIsNy41NyAxMC4wOSw4LjEgWiBtIC0xLjg5LDkuMjUgMS45MSwtMC43MSB2IC0wLjU1IGwgLTEuOTEsMC44OSB6Ii8+JiN4YTsmI3hhOyYjeGE7PC9zdmc+;" vertex="1" parent="1">
          <mxGeometry x="212" y="239.5" width="52" height="47" as="geometry" />
        </mxCell>
        <mxCell id="iqBsh06_ElT_HYazCzKP-6" value="" style="shape=image;verticalLabelPosition=bottom;labelBackgroundColor=#ffffff;verticalAlign=top;aspect=fixed;imageAspect=0;image=data:image/svg+xml,PHN2ZyB4bWxuczpkYz0iaHR0cDovL3B1cmwub3JnL2RjL2VsZW1lbnRzLzEuMS8iIHhtbG5zOmNjPSJodHRwOi8vY3JlYXRpdmVjb21tb25zLm9yZy9ucyMiIHhtbG5zOnJkZj0iaHR0cDovL3d3dy53My5vcmcvMTk5OS8wMi8yMi1yZGYtc3ludGF4LW5zIyIgeG1sbnM6c3ZnPSJodHRwOi8vd3d3LnczLm9yZy8yMDAwL3N2ZyIgeG1sbnM9Imh0dHA6Ly93d3cudzMub3JnLzIwMDAvc3ZnIiB4bWxuczpzb2RpcG9kaT0iaHR0cDovL3NvZGlwb2RpLnNvdXJjZWZvcmdlLm5ldC9EVEQvc29kaXBvZGktMC5kdGQiIHhtbG5zOmlua3NjYXBlPSJodHRwOi8vd3d3Lmlua3NjYXBlLm9yZy9uYW1lc3BhY2VzL2lua3NjYXBlIiB2ZXJzaW9uPSIxLjEiIGlkPSJzdmc1NjAxOCIgaW5rc2NhcGU6dmVyc2lvbj0iMC45Mi4zICgyNDA1NTQ2LCAyMDE4LTAzLTExKSIgc29kaXBvZGk6ZG9jbmFtZT0iYXp1cmVfY29udGFpbmVyLnN2ZyIgeD0iMHB4IiB5PSIwcHgiIHZpZXdCb3g9IjAgMCA2NS41MiA0OC40OSIgeG1sOnNwYWNlPSJwcmVzZXJ2ZSIgd2lkdGg9IjY1LjUxOTk5NyIgaGVpZ2h0PSI0OC40OTAwMDIiPjxtZXRhZGF0YSBpZD0ibWV0YWRhdGE1NTM4Ij48cmRmOlJERj48Y2M6V29yayByZGY6YWJvdXQ9IiI+PGRjOmZvcm1hdD5pbWFnZS9zdmcreG1sPC9kYzpmb3JtYXQ+PGRjOnR5cGUgcmRmOnJlc291cmNlPSJodHRwOi8vcHVybC5vcmcvZGMvZGNtaXR5cGUvU3RpbGxJbWFnZSIvPjxkYzp0aXRsZS8+PC9jYzpXb3JrPjwvcmRmOlJERj48L21ldGFkYXRhPjxkZWZzIGlkPSJkZWZzNTUzNiIvPiYjeGE7PGZpbHRlciBpZD0iZmlsdGVyXzIiPiYjeGE7CTxmZUdhdXNzaWFuQmx1ciBpZD0iZmVHYXVzc2lhbkJsdXI1NTgzOSIgc3RkRGV2aWF0aW9uPSIyIi8+JiN4YTs8L2ZpbHRlcj4mI3hhOzxzb2RpcG9kaTpuYW1lZHZpZXcgYm9yZGVyY29sb3I9IiM2NjY2NjYiIGJvcmRlcm9wYWNpdHk9IjEiIGZpdC1tYXJnaW4tYm90dG9tPSIwIiBmaXQtbWFyZ2luLWxlZnQ9IjAiIGZpdC1tYXJnaW4tcmlnaHQ9IjAiIGZpdC1tYXJnaW4tdG9wPSIwIiBncmlkdG9sZXJhbmNlPSIxMCIgZ3VpZGV0b2xlcmFuY2U9IjEwIiBpZD0ibmFtZWR2aWV3NTYwMjAiIGlua3NjYXBlOmN1cnJlbnQtbGF5ZXI9InN2ZzU2MDE4IiBpbmtzY2FwZTpjeD0iLTMuNDYzNzEzOSIgaW5rc2NhcGU6Y3k9IjIwLjQ1NjkyNyIgaW5rc2NhcGU6cGFnZW9wYWNpdHk9IjAiIGlua3NjYXBlOnBhZ2VzaGFkb3c9IjIiIGlua3NjYXBlOndpbmRvdy1oZWlnaHQ9IjEwMTciIGlua3NjYXBlOndpbmRvdy1tYXhpbWl6ZWQ9IjEiIGlua3NjYXBlOndpbmRvdy13aWR0aD0iMTkyMCIgaW5rc2NhcGU6d2luZG93LXg9Ii04IiBpbmtzY2FwZTp3aW5kb3cteT0iLTgiIGlua3NjYXBlOnpvb209IjguOTExNjU1NyIgb2JqZWN0dG9sZXJhbmNlPSIxMCIgcGFnZWNvbG9yPSIjZmZmZmZmIiBzaG93Z3JpZD0iZmFsc2UiPiYjeGE7CTwvc29kaXBvZGk6bmFtZWR2aWV3PiYjeGE7JiN4YTs8cGF0aCBpZD0icGF0aDU1ODUyIiBpbmtzY2FwZTpjb25uZWN0b3ItY3VydmF0dXJlPSIwIiBzdHlsZT0iZmlsbDojODA0OTk4IiBkPSJNIDMwLjAxLDEyLjMyIDE5LjkyLDE2LjI1IFYgMCBsIDEwLjA5LDMuNTQgeiIvPiYjeGE7JiN4YTs8cGF0aCBpZD0icGF0aDU1ODYwIiBpbmtzY2FwZTpjb25uZWN0b3ItY3VydmF0dXJlPSIwIiBzdHlsZT0iZmlsbDojODA0OTk4IiBkPSJtIDEwLjg4LDIuNzUgdiAxMC42MSBsIDcuNDcsMi44OSBWIDAuMTMgWiBtIDAuNzksOS44MyAtMC40LC0wLjEzIFYgMy42NyBsIDAuNCwtMC4xMyAwLjM5LC0wLjE0IDAuMzksLTAuMTMgdiA5LjU3IGwgLTAuMzksLTAuMTMgeiBtIDEuOTYsMC41MiAtMC41MiwtMC4xMyBWIDMuMTQgbCAwLjUyLC0wLjEzIDAuNTMsLTAuMTMgMC41MiwtMC4xMyB2IDEwLjc0IGwgLTAuNTIsLTAuMTMgeiBtIDIuMzYsMC43OSAtMC42NSwtMC4yNiBWIDIuNDkgbCAwLjY1LC0wLjEzIDAuNjYsLTAuMjcgMC43OCwtMC4yNiB2IDEyLjQ1IGwgLTAuNzgsLTAuMjYgeiIvPiYjeGE7JiN4YTs8cGF0aCBpZD0icGF0aDU1ODY4IiBpbmtzY2FwZTpjb25uZWN0b3ItY3VydmF0dXJlPSIwIiBzdHlsZT0iZmlsbDojODA0OTk4IiBkPSJNIDUzLjQ3LDEyLjMyIDQzLjM4LDE2LjI1IFYgMCBsIDEwLjA5LDMuNTQgeiIvPiYjeGE7JiN4YTs8cGF0aCBpZD0icGF0aDU1ODc2IiBpbmtzY2FwZTpjb25uZWN0b3ItY3VydmF0dXJlPSIwIiBzdHlsZT0iZmlsbDojODA0OTk4IiBkPSJtIDM0LjMzLDIuNzUgdiAxMC42MSBsIDcuNDcsMi44OSBWIDAuMTMgWiBtIDAuNzksOS44MyAtMC40LC0wLjEzIFYgMy42NyBMIDM1LjEyLDMuNTQgMzUuNTEsMy40IDM1LjksMy4yNyB2IDkuNTcgbCAtMC4zOSwtMC4xMyB6IG0gMS45NiwwLjUyIC0wLjUyLC0wLjEzIFYgMy4xNCBsIDAuNTIsLTAuMTMgMC41MywtMC4xMyAwLjUyLC0wLjEzIHYgMTAuNzQgbCAtMC41MiwtMC4xMyB6IG0gMi4zNiwwLjc5IC0wLjY1LC0wLjI2IFYgMi40OSBMIDM5LjQ0LDIuMzYgNDAuMSwyLjA5IDQwLjg4LDEuODMgViAxNC4yOCBMIDQwLjEsMTQuMDIgWiIvPiYjeGE7JiN4YTs8cGF0aCBpZD0icGF0aDU1ODg0IiBpbmtzY2FwZTpjb25uZWN0b3ItY3VydmF0dXJlPSIwIiBzdHlsZT0iZmlsbDojODA0OTk4IiBkPSJNIDMwLjAxLDQ0LjU2IDE5LjkyLDQ4LjQ5IFYgMzIuMjQgbCAxMC4wOSwzLjU0IHoiLz4mI3hhOyYjeGE7PHBhdGggaWQ9InBhdGg1NTg5MiIgaW5rc2NhcGU6Y29ubmVjdG9yLWN1cnZhdHVyZT0iMCIgc3R5bGU9ImZpbGw6IzgwNDk5OCIgZD0iTSAxMC44OCwzNC45OSBWIDQ1LjYgbCA3LjQ3LDIuODkgViAzMi4zNyBaIG0gMC43OSw5LjgzIC0wLjQsLTAuMTMgdiAtOC43OCBsIDAuNCwtMC4xMyAwLjM5LC0wLjE0IDAuMzksLTAuMTMgdiA5LjU3IGwgLTAuMzksLTAuMTMgeiBtIDEuOTYsMC41MiAtMC41MiwtMC4xMyB2IC05LjgzIGwgMC41MiwtMC4xMyAwLjUzLC0wLjEzIDAuNTIsLTAuMTMgViA0NS43MyBMIDE0LjE2LDQ1LjYgWiBtIDIuMzYsMC43OSAtMC42NSwtMC4yNiBWIDM0LjczIGwgMC42NSwtMC4xMyAwLjY2LC0wLjI3IDAuNzgsLTAuMjYgdiAxMi40NSBsIC0wLjc4LC0wLjI2IHoiLz4mI3hhOyYjeGE7PHBhdGggaWQ9InBhdGg1NTkwMCIgaW5rc2NhcGU6Y29ubmVjdG9yLWN1cnZhdHVyZT0iMCIgc3R5bGU9ImZpbGw6IzgwNDk5OCIgZD0iTSA1My40Nyw0NC41NiA0My4zOCw0OC40OSBWIDMyLjI0IGwgMTAuMDksMy41NCB6Ii8+JiN4YTsmI3hhOzxwYXRoIGlkPSJwYXRoNTU5MDgiIGlua3NjYXBlOmNvbm5lY3Rvci1jdXJ2YXR1cmU9IjAiIHN0eWxlPSJmaWxsOiM4MDQ5OTgiIGQ9Ik0gMzQuMzMsMzQuOTkgViA0NS42IGwgNy40NywyLjg5IFYgMzIuMzcgWiBtIDAuNzksOS44MyAtMC40LC0wLjEzIHYgLTguNzggbCAwLjQsLTAuMTMgMC4zOSwtMC4xNCAwLjM5LC0wLjEzIHYgOS41NyBsIC0wLjM5LC0wLjEzIHogbSAxLjk2LDAuNTIgLTAuNTIsLTAuMTMgdiAtOS44MyBsIDAuNTIsLTAuMTMgMC41MywtMC4xMyAwLjUyLC0wLjEzIFYgNDUuNzMgTCAzNy42MSw0NS42IFogbSAyLjM2LDAuNzkgLTAuNjUsLTAuMjYgViAzNC43MyBsIDAuNjUsLTAuMTMgMC42NiwtMC4yNyAwLjc4LC0wLjI2IFYgNDYuNTIgTCA0MC4xLDQ2LjI2IFoiLz4mI3hhOyYjeGE7PHBhdGggaWQ9InBhdGg1NTkxNiIgaW5rc2NhcGU6Y29ubmVjdG9yLWN1cnZhdHVyZT0iMCIgc3R5bGU9ImZpbGw6IzgwNDk5OCIgZD0ibSA0Mi40NiwyOC40NCAtOS45NiwzLjggViAxNi4xMiBsIDkuOTYsMy41NCB6Ii8+JiN4YTsmI3hhOzxwYXRoIGlkPSJwYXRoNTU5MjQiIGlua3NjYXBlOmNvbm5lY3Rvci1jdXJ2YXR1cmU9IjAiIHN0eWxlPSJmaWxsOiM4MDQ5OTgiIGQ9Im0gMjMuMzMsMTguNzQgdiAxMC42MSBsIDcuNDcsMi44OSBWIDE2LjEyIFogbSAwLjc5LDkuODMgLTAuNCwtMC4xMyB2IC04Ljc4IGwgMC40LC0wLjEzIDAuMzksLTAuMTQgMC4zOSwtMC4xMyB2IDkuNTcgTCAyNC41MSwyOC43IFogbSAxLjk2LDAuNjUgLTAuNTIsLTAuMTMgdiAtOS44MyBsIDAuNTIsLTAuMTMgMC41MywtMC4xMyAwLjUyLC0wLjEzIHYgMTAuNzUgbCAtMC41MiwtMC4xNCB6IG0gMi4zNiwwLjc5IC0wLjY1LC0wLjI2IFYgMTguNjEgbCAwLjY1LC0wLjEzIDAuNjYsLTAuMjcgMC43OCwtMC4yNiBWIDMwLjQgTCAyOS4xLDMwLjE0IFoiLz4mI3hhOyYjeGE7PHBhdGggaWQ9InBhdGg1NTkzMiIgaW5rc2NhcGU6Y29ubmVjdG9yLWN1cnZhdHVyZT0iMCIgc3R5bGU9ImZpbGw6IzgwNDk5OCIgZD0ibSAxOS4xMywyOC40NCAtOS45NiwzLjggViAxNi4xMiBsIDkuOTYsMy41NCB6Ii8+JiN4YTsmI3hhOzxwYXRoIGlkPSJwYXRoNTU5NDAiIGlua3NjYXBlOmNvbm5lY3Rvci1jdXJ2YXR1cmU9IjAiIHN0eWxlPSJmaWxsOiM4MDQ5OTgiIGQ9Im0gMCwxOC43NCB2IDEwLjYxIGwgNy40NywyLjg5IFYgMTYuMTIgWiBtIDAuNzksOS44MyAtMC40LC0wLjEzIHYgLTguNzggbCAwLjQsLTAuMTMgMC4zOSwtMC4xNCAwLjM5LC0wLjEzIHYgOS41NyBMIDEuMTgsMjguNyBaIE0gMi43NSwyOS4yMiAyLjIzLDI5LjA5IFYgMTkuMjYgTCAyLjc1LDE5LjEzIDMuMjgsMTkgMy44LDE4Ljg3IFYgMjkuNjIgTCAzLjI4LDI5LjQ4IFogTSA1LjExLDMwLjAxIDQuNDYsMjkuNzUgViAxOC42MSBMIDUuMTEsMTguNDggNS43NywxOC4yMSA2LjU1LDE3Ljk1IFYgMzAuNCBMIDUuNzcsMzAuMTQgWiIvPiYjeGE7JiN4YTs8cGF0aCBpZD0icGF0aDU1OTQ4IiBpbmtzY2FwZTpjb25uZWN0b3ItY3VydmF0dXJlPSIwIiBzdHlsZT0iZmlsbDojODA0OTk4IiBkPSJtIDY1LjUyLDI4LjQ0IC05Ljk2LDMuOCBWIDE2LjEyIGwgOS45NiwzLjU0IHoiLz4mI3hhOyYjeGE7JiN4YTsmI3hhOyYjeGE7JiN4YTsmI3hhOyYjeGE7JiN4YTsmI3hhOyYjeGE7JiN4YTsmI3hhOyYjeGE7JiN4YTsmI3hhOzxwYXRoIGlkPSJwYXRoNTYwMTIiIGlua3NjYXBlOmNvbm5lY3Rvci1jdXJ2YXR1cmU9IjAiIHN0eWxlPSJmaWxsOiM4MDQ5OTgiIGQ9Im0gNDYuMzksMTguNzQgdiAxMC42MSBsIDcuNDcsMi44OSBWIDE2LjEyIFogbSAwLjc5LDkuODMgLTAuNCwtMC4xMyB2IC04Ljc4IGwgMC40LC0wLjEzIDAuMzksLTAuMTQgMC4zOSwtMC4xMyB2IDkuNTcgTCA0Ny41NywyOC43IFogbSAxLjk2LDAuNjUgLTAuNTIsLTAuMTMgdiAtOS44MyBsIDAuNTIsLTAuMTMgMC41MywtMC4xMyAwLjUyLC0wLjEzIHYgMTAuNzUgbCAtMC41MiwtMC4xNCB6IG0gMi4zNiwwLjc5IC0wLjY1LC0wLjI2IFYgMTguNjEgbCAwLjY1LC0wLjEzIDAuNjYsLTAuMjcgMC43OCwtMC4yNiBWIDMwLjQgbCAtMC43OCwtMC4yNiB6Ii8+JiN4YTs8L3N2Zz4=;" vertex="1" parent="1">
          <mxGeometry x="155.99999999999994" y="110" width="66" height="48" as="geometry" />
        </mxCell>
        <mxCell id="iqBsh06_ElT_HYazCzKP-7" value="" style="shape=image;verticalLabelPosition=bottom;labelBackgroundColor=#ffffff;verticalAlign=top;aspect=fixed;imageAspect=0;image=data:image/svg+xml,PHN2ZyB4bWxuczpkYz0iaHR0cDovL3B1cmwub3JnL2RjL2VsZW1lbnRzLzEuMS8iIHhtbG5zOmNjPSJodHRwOi8vY3JlYXRpdmVjb21tb25zLm9yZy9ucyMiIHhtbG5zOnJkZj0iaHR0cDovL3d3dy53My5vcmcvMTk5OS8wMi8yMi1yZGYtc3ludGF4LW5zIyIgeG1sbnM6c3ZnPSJodHRwOi8vd3d3LnczLm9yZy8yMDAwL3N2ZyIgeG1sbnM9Imh0dHA6Ly93d3cudzMub3JnLzIwMDAvc3ZnIiB4bWxuczpzb2RpcG9kaT0iaHR0cDovL3NvZGlwb2RpLnNvdXJjZWZvcmdlLm5ldC9EVEQvc29kaXBvZGktMC5kdGQiIHhtbG5zOmlua3NjYXBlPSJodHRwOi8vd3d3Lmlua3NjYXBlLm9yZy9uYW1lc3BhY2VzL2lua3NjYXBlIiB2ZXJzaW9uPSIxLjEiIGlkPSJzdmc3ODgzMiIgaW5rc2NhcGU6dmVyc2lvbj0iMC45Mi4zICgyNDA1NTQ2LCAyMDE4LTAzLTExKSIgc29kaXBvZGk6ZG9jbmFtZT0iZG5zLnN2ZyIgeD0iMHB4IiB5PSIwcHgiIHZpZXdCb3g9IjAgMCA3Mi4wMDQ5OTUgNzEuOTk5OTk4IiB4bWw6c3BhY2U9InByZXNlcnZlIiB3aWR0aD0iNzIuMDA0OTk3IiBoZWlnaHQ9IjcyIj48bWV0YWRhdGEgaWQ9Im1ldGFkYXRhNjUwIj48cmRmOlJERj48Y2M6V29yayByZGY6YWJvdXQ9IiI+PGRjOmZvcm1hdD5pbWFnZS9zdmcreG1sPC9kYzpmb3JtYXQ+PGRjOnR5cGUgcmRmOnJlc291cmNlPSJodHRwOi8vcHVybC5vcmcvZGMvZGNtaXR5cGUvU3RpbGxJbWFnZSIvPjxkYzp0aXRsZS8+PC9jYzpXb3JrPjwvcmRmOlJERj48L21ldGFkYXRhPjxkZWZzIGlkPSJkZWZzNjQ4Ij4mI3hhOwkmI3hhOyYjeGE7CSYjeGE7JiN4YTsJJiN4YTsmI3hhOwkmI3hhOyYjeGE7CSYjeGE7JiN4YTsJJiN4YTsmI3hhOwkJJiN4YTsJJiN4YTsJCSYjeGE7CSYjeGE7CQkmI3hhOwkmI3hhOwkJJiN4YTsJPC9kZWZzPiYjeGE7PGZpbHRlciBpZD0iZmlsdGVyXzIiPiYjeGE7CTxmZUdhdXNzaWFuQmx1ciBpZD0iZmVHYXVzc2lhbkJsdXI3ODc3MyIgc3RkRGV2aWF0aW9uPSIyIi8+JiN4YTs8L2ZpbHRlcj4mI3hhOzxzb2RpcG9kaTpuYW1lZHZpZXcgYm9yZGVyY29sb3I9IiM2NjY2NjYiIGJvcmRlcm9wYWNpdHk9IjEiIGZpdC1tYXJnaW4tYm90dG9tPSIwIiBmaXQtbWFyZ2luLWxlZnQ9IjAiIGZpdC1tYXJnaW4tcmlnaHQ9IjAiIGZpdC1tYXJnaW4tdG9wPSIwIiBncmlkdG9sZXJhbmNlPSIxMCIgZ3VpZGV0b2xlcmFuY2U9IjEwIiBpZD0ibmFtZWR2aWV3Nzg4MzQiIGlua3NjYXBlOmN1cnJlbnQtbGF5ZXI9InN2Zzc4ODMyIiBpbmtzY2FwZTpjeD0iLTkuNTU1NDkxIiBpbmtzY2FwZTpjeT0iNDEuNDU4NDQ4IiBpbmtzY2FwZTpwYWdlb3BhY2l0eT0iMCIgaW5rc2NhcGU6cGFnZXNoYWRvdz0iMiIgaW5rc2NhcGU6d2luZG93LWhlaWdodD0iMTAxNyIgaW5rc2NhcGU6d2luZG93LW1heGltaXplZD0iMSIgaW5rc2NhcGU6d2luZG93LXdpZHRoPSIxOTIwIiBpbmtzY2FwZTp3aW5kb3cteD0iLTgiIGlua3NjYXBlOndpbmRvdy15PSItOCIgaW5rc2NhcGU6em9vbT0iNS43MTIyNDIyIiBvYmplY3R0b2xlcmFuY2U9IjEwIiBwYWdlY29sb3I9IiNmZmZmZmYiIHNob3dncmlkPSJmYWxzZSI+JiN4YTsJPC9zb2RpcG9kaTpuYW1lZHZpZXc+JiN4YTsmI3hhOzxjaXJjbGUgaWQ9ImVsbGlwc2U3ODc4NiIgc3R5bGU9ImZpbGw6IzAwNzJjNiIgY3g9IjM2LjAwNTAwMSIgY3k9IjM2IiByPSIzNiIvPiYjeGE7JiN4YTs8cGF0aCBpZD0icGF0aDc4Nzk0IiBpbmtzY2FwZTpjb25uZWN0b3ItY3VydmF0dXJlPSIwIiBzdHlsZT0iZmlsbDojZmZmZmZmO2ZpbGwtb3BhY2l0eTowLjIiIGQ9Im0gMTAuNTQ1LDYxLjQ2IGMgLTE0LjA2LC0xNC4wNiAtMTQuMDYsLTM2Ljg1IDAsLTUwLjkxIDE0LjA2LC0xNC4wNiAzNi44NiwtMTQuMDYgNTAuOTIsMCB6Ii8+JiN4YTsmI3hhOzxwYXRoIGlkPSJwYXRoNzg4MDIiIGlua3NjYXBlOmNvbm5lY3Rvci1jdXJ2YXR1cmU9IjAiIHN0eWxlPSJmaWxsOiNmZmZmZmY7ZmlsbC1vcGFjaXR5OjAuOCIgZD0ibSA2OS4xMzUsMzUuOTkgYyAwLC03LjQyIC0yLjUyLC0xNC41NyAtNy4xNiwtMjAuNCBsIC0wLjI2LC0wLjI3IGMgLTAuMTQsLTAuMTMgLTAuMTQsLTAuMjYgLTAuMjcsLTAuMzkgbCAtMi4xMiwtMi4yNiBjIC02LjIzLC02LjM2IC0xNC40NCwtOS44IC0yMy4zMiwtOS44IDAsMCAwLDAgLTAuMTMsMCBoIC0wLjEzIEMgMjYuOTk1LDMgMTguOTE1LDYuMzEgMTIuNjg1LDEyLjU0IGwgLTIuMjUsMi4zOSBjIC0wLjEzLDAuMTMgLTAuMTMsMC4yNiAtMC4yNiwwLjM5IGwgLTAuMjcsMC4xNCBjIC00LjUsNS44MyAtNy4wMiwxMy4xMSAtNy4wMiwyMC41MyAwLDcuNDIgMi41MiwxNC41OCA3LjE1LDIwLjQxIGwgMC4yNywwLjI2IGMgMC4xMywwLjEzIDAuMTMsMC4yNyAwLjI2LDAuNCBsIDIuMTIsMi4yNSBjIDYuMjMsNi4yMyAxNC4zMSw5LjY3IDIzLjA2LDkuNjcgaCAwLjEzIGMgMCwwIDAsMCAwLjEzLDAgOC43NSwwIDE3LjA5LC0zLjQ0IDIzLjMyLC05LjY3IGwgMi4xMiwtMi4zOCBjIDAuMTMsLTAuMTQgMC4xMywtMC4yNyAwLjI3LC0wLjQgbCAwLjI2LC0wLjI3IGMgNC42NCwtNS41NiA3LjE2LC0xMi44NSA3LjE2LC0yMC4yNyB6IE0gNTUuNzQ1LDE0LjQgYyAtMC4xMywwIC0wLjI2LDAuMTMgLTAuMzksMC4xMyAtMC4yNywwLjEzIC0wLjUzLDAuMjYgLTAuNjcsMC4yNiAtMC41MywwLjI3IC0xLjE5LDAuNCAtMS44NSwwLjY3IC0wLjEzLDAgLTAuMjcsMC4xMyAtMC40LDAuMTMgLTAuNzksMC4yNiAtMS40NiwwLjQgLTIuMjUsMC42NiAtMC4xMywwIC0wLjQsMC4xMyAtMC41MywwLjEzIC0xLjE5LC0zLjE4IC0yLjY1LC01Ljk2IC00LjM3LC04LjA4IDMuODQsMS4xOSA3LjQyLDMuMzEgMTAuNDYsNi4xIHogbSAtMjAsLTcuNjkgaCAwLjEzIGMgMy41OCwwIDcuMjksMy44NCA5Ljk0LDEwLjQ3IC0zLjA1LDAuNTMgLTYuMzYsMC43OSAtOS44MSwwLjc5IC0zLjQ0LDAgLTYuODksLTAuMjYgLTEwLjA3LC0wLjc5IDIuNTIsLTYuNDkgNi4yMywtMTAuMzQgOS44MSwtMTAuNDcgeiBtIC05LjQxLDEuNzIgYyAtMS41OSwyLjEyIC0zLjA1LDQuNzcgLTQuMjQsNy45NSAtMC4xMywwIC0wLjEzLDAgLTAuMjYsMCAtMC44LC0wLjI2IC0xLjU5LC0wLjM5IC0yLjI2LC0wLjY2IC0wLjEzLDAgLTAuMjYsLTAuMTMgLTAuMzksLTAuMTMgLTAuNTMsLTAuMjcgLTEuMiwtMC41MyAtMS43MywtMC44IC0wLjI2LC0wLjEzIC0wLjM5LC0wLjEzIC0wLjY2LC0wLjI2IC0wLjEzLC0wLjEzIC0wLjI2LC0wLjEzIC0wLjUzLC0wLjI3IDMuMDUsLTIuNTEgNi4zNiwtNC42MyAxMC4wNywtNS44MyB6IG0gLTEwLjA3LDQ5LjE2IGMgMC4xMywwIDAuMjcsLTAuMTMgMC40LC0wLjEzIDAuMjYsLTAuMTQgMC40LC0wLjE0IDAuNjYsLTAuMjcgMC41MywtMC4yNiAxLjE5LC0wLjQgMS44NiwtMC42NiAwLjEzLDAgMC4yNiwtMC4xMyAwLjM5LC0wLjEzIDAuOCwtMC4yNyAxLjQ2LC0wLjQgMi4yNiwtMC42NyAwLjEzLDAgMC4xMywwIDAuMjYsMCAxLjE5LDMuMDUgMi42NSw1LjgzIDQuMjQsNy45NSAtMy43MSwtMS4zMiAtNy4xNSwtMy40NCAtMTAuMDcsLTYuMDkgeiBtIDE5LjYxLDcuNjggaCAtMC4xMyBjIC0zLjU4LC0wLjEzIC03LjI5LC0zLjg0IC05LjgxLC0xMC4zMyAzLjE4LC0wLjUzIDYuNjMsLTAuOCAxMC4wNywtMC44IDMuNDUsMCA2LjYzLDAuMjcgOS44MSwwLjggLTIuNTIsNi40OSAtNi4zNiwxMC4zMyAtOS45NCwxMC4zMyB6IG0gOS40MSwtMS41OSBjIDEuNzIsLTIuMTIgMy4xOCwtNC45IDQuMzcsLTguMDggMC4xMywwIDAuNCwwLjEzIDAuNTMsMC4xMyAwLjc5LDAuMjcgMS41OSwwLjQgMi4yNSwwLjY3IDAuMTMsMCAwLjI3LDAuMTMgMC40LDAuMTMgMC42NiwwLjI2IDEuMTksMC40IDEuODUsMC42NiAwLjI3LDAuMTMgMC40LDAuMTMgMC42NywwLjI3IDAuMTMsMCAwLjI2LDAuMTMgMC41MywwLjI2IC0zLjE4LDIuNjUgLTYuNzYsNC43NyAtMTAuNiw1Ljk2IHogbSAxMy4zOCwtOS4xNCBjIC0wLjQsMCAtMC42NiwtMC4xMyAtMS4wNiwtMC4yNiAtMC40LC0wLjE0IC0wLjkzLC0wLjQgLTEuMzMsLTAuNTMgLTAuMTMsMCAtMC4yNiwtMC4xNCAtMC4zOSwtMC4xNCAtMS41OSwtMC42NiAtMy4zMiwtMS4wNiAtNS4wNCwtMS41OSAwLjQsLTEuNTkgMC44LC0zLjE4IDEuMDYsLTQuNzcgaCAtMy45NyBjIC0wLjI3LDEuNDYgLTAuNTMsMi43OSAtMC45MywzLjk4IC0zLjQ0LC0wLjY2IC03LjE1LC0wLjkzIC0xMSwtMC45MyAtMy45NywwIC03LjY4LDAuNCAtMTEuMjYsMS4wNiAtMC40LC0xLjMyIC0wLjY2LC0yLjY1IC0wLjkzLC00LjExIGggLTMuOTcgYyAwLjI2LDEuNzMgMC42NiwzLjMyIDEuMDYsNC45MSAtMS41OSwwLjM5IC0zLjE4LDAuOTIgLTQuNjQsMS40NSAtMC4xMywwLjE0IC0wLjQsMC4xNCAtMC41MywwLjI3IC0wLjQsMC4xMyAtMC45MywwLjQgLTEuMzIsMC41MyAtMC4yNywwIC0wLjY3LDAuMTMgLTAuOTMsMC4yNiBDIDkuNTA1LDQ5LjkgNy4yNTUsNDMuOTQgNi44NTUsMzcuODUgaCAzLjMyIHYgLTMuODQgaCAtMy4zMiBjIDAuNCwtNi4xIDIuNjUsLTExLjkzIDYuNSwtMTYuNTcgbCAwLjEzLC0wLjEzIGMgMC4yNiwwLjEzIDAuNjYsMC4yNyAwLjkzLDAuNCAwLjUzLDAuMjYgMC45MiwwLjQgMS40NSwwLjY2IDAuMTQsMCAwLjI3LDAuMTMgMC40LDAuMTMgMS40NiwwLjUzIDMuMDUsMS4wNiA0Ljc3LDEuNDYgLTAuNCwxLjQ2IC0wLjY2LDIuOTIgLTAuOTMsNC4zNyBoIDMuOTggYyAwLjI2LC0xLjE5IDAuNTMsLTIuNTEgMC43OSwtMy41NyAzLjU4LDAuNjYgNy40MiwxLjA2IDExLjI3LDEuMDYgMy44NCwwIDcuNTUsLTAuNCAxMC45OSwtMC45MyAwLjI3LDEuMDYgMC41MywyLjI1IDAuOCwzLjU4IGggMy45NyBjIC0wLjI2LC0xLjQ2IC0wLjUzLC0yLjkyIC0wLjkzLC00LjM4IDEuNzMsLTAuMzkgMy4zMiwtMC45MiA0LjkxLC0xLjU5IDAuMTMsMCAwLjM5LC0wLjEzIDAuNTMsLTAuMTMgMC41MywtMC4xMyAwLjkyLC0wLjQgMS40NSwtMC41MyAwLjI3LC0wLjEzIDAuNjcsLTAuMjYgMC45MywtMC40IDMuODQsNC43NyA2LjIzLDEwLjYgNi42MywxNi43IGggLTMuOTggdiAzLjg0IGggMy45OCBjIC0wLjY3LDUuOTYgLTIuOTIsMTEuOTIgLTYuNzYsMTYuNTYgeiIvPiYjeGE7JiN4YTs8cGF0aCBpZD0icGF0aDc4ODEwIiBpbmtzY2FwZTpjb25uZWN0b3ItY3VydmF0dXJlPSIwIiBzdHlsZT0iZmlsbDojZmZmZmZmIiBkPSJtIDI3LjY4NSwzNS44IGMgMCwxLjU3IC0wLjIxLDIuOTEgLTAuNjIsNC4wMiAtMC40MSwxLjEyIC0xLDIuMDMgLTEuNzYsMi43MyAtMC43NywwLjcxIC0xLjcsMS4yMyAtMi44LDEuNTYgLTEuMSwwLjMzIC0yLjQxLDAuNDkgLTMuOTIsMC40OSBoIC00LjA5IGMgLTAuMjksMCAtMC41NCwtMC4wOCAtMC43MywtMC4yNSAtMC4yLC0wLjE4IC0wLjMsLTAuNDYgLTAuMywtMC44NCBWIDI4LjU5IGMgMCwtMC4zOSAwLjEsLTAuNjcgMC4zLC0wLjg0IDAuMiwtMC4xNyAwLjQ0LC0wLjI2IDAuNzMsLTAuMjYgaCA0LjM5IGMgMS41MywwIDIuODIsMC4xOCAzLjg4LDAuNTQgMS4wNywwLjM1IDEuOTYsMC44OCAyLjY5LDEuNTggMC43MywwLjcxIDEuMjgsMS41NyAxLjY2LDIuNiAwLjM4LDEuMDMgMC41NywyLjIzIDAuNTcsMy41OSB6IG0gLTMuNiwwLjEyIGMgMCwtMC44MiAtMC4wOSwtMS41NyAtMC4yOCwtMi4yNyAtMC4xOSwtMC42OSAtMC41LC0xLjMgLTAuOTIsLTEuODEgLTAuNDIsLTAuNTEgLTAuOTUsLTAuOTEgLTEuNjEsLTEuMiAtMC42NiwtMC4yOCAtMS41MiwtMC40MyAtMi41OSwtMC40MyBoIC0xLjc2IHYgMTEuNjQgaCAxLjgyIGMgMC45NSwwIDEuNzUsLTAuMTIgMi40LC0wLjM3IDAuNjYsLTAuMjUgMS4yLC0wLjYyIDEuNjQsLTEuMTEgMC40MywtMC41IDAuNzYsLTEuMTIgMC45OCwtMS44NiAwLjIxLC0wLjc0IDAuMzIsLTEuNjEgMC4zMiwtMi41OSB6Ii8+JiN4YTsmI3hhOzxwYXRoIGlkPSJwYXRoNzg4MTgiIGlua3NjYXBlOmNvbm5lY3Rvci1jdXJ2YXR1cmU9IjAiIHN0eWxlPSJmaWxsOiNmZmZmZmYiIGQ9Im0gNDQuNjU1LDQzLjM5IGMgMCwwLjIgLTAuMDMsMC4zOCAtMC4xLDAuNTQgLTAuMDcsMC4xNiAtMC4xNywwLjI5IC0wLjI5LDAuNCAtMC4xMSwwLjExIC0wLjI2LDAuMTggLTAuNDIsMC4yMyAtMC4xNiwwLjA1IC0wLjMzLDAuMDcgLTAuNSwwLjA3IGggLTEuNDggYyAtMC4zMSwwIC0wLjU3LC0wLjAzIC0wLjgsLTAuMDkgLTAuMjIsLTAuMDYgLTAuNDMsLTAuMTcgLTAuNjIsLTAuMzQgLTAuMTksLTAuMTYgLTAuMzcsLTAuMzggLTAuNTUsLTAuNjYgLTAuMTcsLTAuMjggLTAuMzcsLTAuNjQgLTAuNTksLTEuMDggbCAtNC4yNiwtOCBjIC0wLjI1LC0wLjQ3IC0wLjUsLTAuOTkgLTAuNzUsLTEuNTQgLTAuMjYsLTAuNTUgLTAuNDksLTEuMDkgLTAuNjksLTEuNjEgaCAtMC4wMyBjIDAuMDQsMC42NCAwLjA2LDEuMjcgMC4wOCwxLjkgMC4wMiwwLjYzIDAuMDMsMS4yOCAwLjAzLDEuOTUgdiA4Ljk1IGMgMCwwLjA5IC0wLjAzLDAuMTcgLTAuMDgsMC4yNCAtMC4wNSwwLjA3IC0wLjEzLDAuMTMgLTAuMjUsMC4xOCAtMC4xMiwwLjA1IC0wLjI4LDAuMDkgLTAuNDgsMC4xMSAtMC4yLDAuMDMgLTAuNDcsMC4wNCAtMC43OCwwLjA0IC0wLjMxLDAgLTAuNTcsLTAuMDEgLTAuNzcsLTAuMDQgLTAuMiwtMC4wMiAtMC4zNiwtMC4wNiAtMC40NywtMC4xMSAtMC4xMiwtMC4wNSAtMC4yLC0wLjExIC0wLjI0LC0wLjE4IC0wLjA1LC0wLjA3IC0wLjA3LC0wLjE1IC0wLjA3LC0wLjI0IFYgMjguNzMgYyAwLC0wLjQxIDAuMTIsLTAuNzIgMC4zNiwtMC45MyAwLjI0LC0wLjIxIDAuNTQsLTAuMzEgMC45LC0wLjMxIGggMS44NiBjIDAuMzMsMCAwLjYyLDAuMDMgMC44NSwwLjA4IDAuMjMsMC4wNiAwLjQzLDAuMTYgMC42MSwwLjI5IDAuMTgsMC4xMyAwLjM1LDAuMzIgMC41MSwwLjU1IDAuMTYsMC4yMyAwLjMyLDAuNTIgMC40OSwwLjg3IGwgMy4zMyw2LjI1IGMgMC4xOSwwLjM4IDAuMzksMC43NSAwLjU4LDEuMTIgMC4xOSwwLjM2IDAuMzcsMC43MyAwLjU1LDEuMSAwLjE3LDAuMzYgMC4zNCwwLjcyIDAuNTEsMS4wOCAwLjE3LDAuMzUgMC4zMywwLjcgMC40OSwxLjA1IGggMC4wMSBjIC0wLjAyLC0wLjYxIC0wLjA0LC0xLjI2IC0wLjA2LC0xLjkzIC0wLjAxLC0wLjY3IC0wLjAxLC0xLjMxIC0wLjAxLC0xLjkxIHYgLTguMDMgYyAwLC0wLjA5IDAuMDIsLTAuMTcgMC4wNywtMC4yNCAwLjA1LC0wLjA3IDAuMTQsLTAuMTMgMC4yNywtMC4xOSAwLjEyLC0wLjA1IDAuMjgsLTAuMDkgMC40OSwtMC4xMSAwLjIsLTAuMDIgMC40NiwtMC4wMyAwLjc4LC0wLjAzIDAuMywwIDAuNTUsMC4wMSAwLjc1LDAuMDMgMC4yLDAuMDIgMC4zNiwwLjA2IDAuNDcsMC4xMSAwLjExLDAuMDYgMC4xOSwwLjEyIDAuMjMsMC4xOSAwLjA1LDAuMDcgMC4wNywwLjE1IDAuMDcsMC4yNCB6Ii8+JiN4YTsmI3hhOzxwYXRoIGlkPSJwYXRoNzg4MjYiIGlua3NjYXBlOmNvbm5lY3Rvci1jdXJ2YXR1cmU9IjAiIHN0eWxlPSJmaWxsOiNmZmZmZmYiIGQ9Im0gNTguNTM1LDM5LjQ3IGMgMCwwLjkgLTAuMTcsMS42OSAtMC41LDIuMzcgLTAuMzQsMC42OCAtMC43OSwxLjI0IC0xLjM3LDEuNyAtMC41NywwLjQ1IC0xLjI0LDAuNzkgLTIuMDEsMS4wMiAtMC43NiwwLjIzIC0xLjU5LDAuMzQgLTIuNDYsMC4zNCAtMC41OSwwIC0xLjE0LC0wLjA1IC0xLjY0LC0wLjE0IC0wLjUxLC0wLjEgLTAuOTYsLTAuMjIgLTEuMzUsLTAuMzUgLTAuMzksLTAuMTQgLTAuNzEsLTAuMjggLTAuOTcsLTAuNDMgLTAuMjYsLTAuMTUgLTAuNDUsLTAuMjggLTAuNTYsLTAuNCAtMC4xMiwtMC4xMSAtMC4yLC0wLjI4IC0wLjI1LC0wLjUgLTAuMDQsLTAuMjEgLTAuMDcsLTAuNTIgLTAuMDcsLTAuOTMgMCwtMC4yNyAwLjAxLC0wLjUgMC4wMywtMC42OSAwLjAxLC0wLjE4IDAuMDQsLTAuMzMgMC4wOCwtMC40NSAwLjA0LC0wLjExIDAuMSwtMC4xOSAwLjE2LC0wLjI0IDAuMDcsLTAuMDUgMC4xNCwtMC4wNyAwLjIzLC0wLjA3IDAuMTMsMCAwLjMsMC4wNyAwLjUzLDAuMjEgMC4yMiwwLjE1IDAuNTEsMC4zMSAwLjg2LDAuNDkgMC4zNiwwLjE3IDAuNzgsMC4zMyAxLjI3LDAuNDggMC40OCwwLjE0IDEuMDUsMC4yMiAxLjY5LDAuMjIgMC40MywwIDAuODEsLTAuMDUgMS4xNCwtMC4xNSAwLjM0LC0wLjExIDAuNjIsLTAuMjUgMC44NSwtMC40NCAwLjI0LC0wLjE4IDAuNDEsLTAuNDEgMC41NCwtMC42OCAwLjEyLC0wLjI4IDAuMTksLTAuNTggMC4xOSwtMC45MiAwLC0wLjM4IC0wLjExLC0wLjcyIC0wLjMyLC0wLjk5IC0wLjIxLC0wLjI4IC0wLjQ5LC0wLjUzIC0wLjgzLC0wLjc0IC0wLjM0LC0wLjIyIC0wLjczLC0wLjQyIC0xLjE2LC0wLjYxIC0wLjQzLC0wLjE5IC0wLjg4LC0wLjM5IC0xLjMzLC0wLjYxIC0wLjQ2LC0wLjIxIC0wLjkxLC0wLjQ1IC0xLjM0LC0wLjcyIC0wLjQzLC0wLjI3IC0wLjgyLC0wLjU5IC0xLjE1LC0wLjk2IC0wLjM0LC0wLjM4IC0wLjYyLC0wLjgyIC0wLjgzLC0xLjMzIC0wLjIyLC0wLjUxIC0wLjMyLC0xLjEzIC0wLjMyLC0xLjg0IDAsLTAuODIgMC4xNSwtMS41NCAwLjQ2LC0yLjE3IDAuMywtMC42MiAwLjcxLC0xLjEzIDEuMjMsLTEuNTQgMC41MSwtMC40MSAxLjEyLC0wLjcyIDEuODIsLTAuOTIgMC43LC0wLjIgMS40NSwtMC4zMSAyLjIzLC0wLjMxIDAuNDEsMCAwLjgxLDAuMDMgMS4yMiwwLjEgMC40LDAuMDYgMC43OCwwLjE0IDEuMTMsMC4yNSAwLjM1LDAuMSAwLjY3LDAuMjIgMC45NCwwLjM2IDAuMjgsMC4xMyAwLjQ2LDAuMjQgMC41NCwwLjMzIDAuMDksMC4wOCAwLjE1LDAuMTYgMC4xOCwwLjIyIDAuMDMsMC4wNiAwLjA2LDAuMTUgMC4wOCwwLjI1IDAuMDIsMC4xIDAuMDQsMC4yMyAwLjA1LDAuMzggMCwwLjE1IDAuMDEsMC4zNSAwLjAxLDAuNTggMCwwLjI1IC0wLjAxLDAuNDcgLTAuMDIsMC42NCAtMC4wMSwwLjE4IC0wLjA0LDAuMzMgLTAuMDcsMC40NCAtMC4wMywwLjExIC0wLjA3LDAuMiAtMC4xMywwLjI1IC0wLjA2LDAuMDYgLTAuMTMsMC4wOCAtMC4yMywwLjA4IC0wLjEsMCAtMC4yNSwtMC4wNiAtMC40NiwtMC4xOCAtMC4yMiwtMC4xMyAtMC40OCwtMC4yNiAtMC43OCwtMC40MSAtMC4zMSwtMC4xNCAtMC42NywtMC4yNyAtMS4wNywtMC4zOSAtMC40MSwtMC4xMiAtMC44NiwtMC4xOCAtMS4zNCwtMC4xOCAtMC4zOCwwIC0wLjcxLDAuMDQgLTAuOTksMC4xNCAtMC4yOCwwLjA5IC0wLjUyLDAuMjIgLTAuNzEsMC4zOCAtMC4xOSwwLjE2IC0wLjMzLDAuMzYgLTAuNDIsMC41OSAtMC4wOSwwLjIzIC0wLjE0LDAuNDcgLTAuMTQsMC43MyAwLDAuMzcgMC4xLDAuNyAwLjMxLDAuOTggMC4yMSwwLjI4IDAuNDksMC41MyAwLjgzLDAuNzQgMC4zNSwwLjIyIDAuNzUsMC40MiAxLjE5LDAuNjEgMC40NCwwLjE5IDAuODksMC4zOSAxLjM1LDAuNiAwLjQ2LDAuMjIgMC45MSwwLjQ2IDEuMzUsMC43MiAwLjQ0LDAuMjcgMC44MywwLjU5IDEuMTgsMC45NyAwLjM0LDAuMzcgMC42MiwwLjgyIDAuODMsMS4zMiAwLjIxLDAuNTIgMC4zMiwxLjExIDAuMzIsMS44IHoiLz4mI3hhOzwvc3ZnPg==;" vertex="1" parent="1">
          <mxGeometry x="150.0000000000001" y="390" width="72" height="72" as="geometry" />
        </mxCell>
        <mxCell id="iqBsh06_ElT_HYazCzKP-8" value="" style="shape=image;verticalLabelPosition=bottom;labelBackgroundColor=#ffffff;verticalAlign=top;aspect=fixed;imageAspect=0;image=data:image/svg+xml,PHN2ZyB4bWxuczpkYz0iaHR0cDovL3B1cmwub3JnL2RjL2VsZW1lbnRzLzEuMS8iIHhtbG5zOmNjPSJodHRwOi8vY3JlYXRpdmVjb21tb25zLm9yZy9ucyMiIHhtbG5zOnJkZj0iaHR0cDovL3d3dy53My5vcmcvMTk5OS8wMi8yMi1yZGYtc3ludGF4LW5zIyIgeG1sbnM6c3ZnPSJodHRwOi8vd3d3LnczLm9yZy8yMDAwL3N2ZyIgeG1sbnM9Imh0dHA6Ly93d3cudzMub3JnLzIwMDAvc3ZnIiB4bWxuczpzb2RpcG9kaT0iaHR0cDovL3NvZGlwb2RpLnNvdXJjZWZvcmdlLm5ldC9EVEQvc29kaXBvZGktMC5kdGQiIHhtbG5zOmlua3NjYXBlPSJodHRwOi8vd3d3Lmlua3NjYXBlLm9yZy9uYW1lc3BhY2VzL2lua3NjYXBlIiB2ZXJzaW9uPSIxLjEiIGlkPSJzdmc4Mjg3OSIgaW5rc2NhcGU6dmVyc2lvbj0iMC45Mi4zICgyNDA1NTQ2LCAyMDE4LTAzLTExKSIgc29kaXBvZGk6ZG9jbmFtZT0ibG9hZF9iYWxhbmNlci5zdmciIHg9IjBweCIgeT0iMHB4IiB2aWV3Qm94PSIwIDAgMTAwLjMxIDEwMC4zMSIgeG1sOnNwYWNlPSJwcmVzZXJ2ZSIgd2lkdGg9IjEwMC4zMSIgaGVpZ2h0PSIxMDAuMzEiPjxtZXRhZGF0YSBpZD0ibWV0YWRhdGEyNDEyIj48cmRmOlJERj48Y2M6V29yayByZGY6YWJvdXQ9IiI+PGRjOmZvcm1hdD5pbWFnZS9zdmcreG1sPC9kYzpmb3JtYXQ+PGRjOnR5cGUgcmRmOnJlc291cmNlPSJodHRwOi8vcHVybC5vcmcvZGMvZGNtaXR5cGUvU3RpbGxJbWFnZSIvPjxkYzp0aXRsZS8+PC9jYzpXb3JrPjwvcmRmOlJERj48L21ldGFkYXRhPjxkZWZzIGlkPSJkZWZzMjQxMCIvPiYjeGE7PGZpbHRlciBpZD0iZmlsdGVyXzIiPiYjeGE7CTxmZUdhdXNzaWFuQmx1ciBpZD0iZmVHYXVzc2lhbkJsdXI4MjgzNiIgc3RkRGV2aWF0aW9uPSIyIi8+JiN4YTs8L2ZpbHRlcj4mI3hhOzxzb2RpcG9kaTpuYW1lZHZpZXcgYm9yZGVyY29sb3I9IiM2NjY2NjYiIGJvcmRlcm9wYWNpdHk9IjEiIGZpdC1tYXJnaW4tYm90dG9tPSIwIiBmaXQtbWFyZ2luLWxlZnQ9IjAiIGZpdC1tYXJnaW4tcmlnaHQ9IjAiIGZpdC1tYXJnaW4tdG9wPSIwIiBncmlkdG9sZXJhbmNlPSIxMCIgZ3VpZGV0b2xlcmFuY2U9IjEwIiBpZD0ibmFtZWR2aWV3ODI4ODEiIGlua3NjYXBlOmN1cnJlbnQtbGF5ZXI9InN2ZzgyODc5IiBpbmtzY2FwZTpjeD0iLTM2LjI2NDEyMyIgaW5rc2NhcGU6Y3k9IjQzLjM4OTQ1NSIgaW5rc2NhcGU6cGFnZW9wYWNpdHk9IjAiIGlua3NjYXBlOnBhZ2VzaGFkb3c9IjIiIGlua3NjYXBlOndpbmRvdy1oZWlnaHQ9IjEwMTciIGlua3NjYXBlOndpbmRvdy1tYXhpbWl6ZWQ9IjEiIGlua3NjYXBlOndpbmRvdy13aWR0aD0iMTkyMCIgaW5rc2NhcGU6d2luZG93LXg9Ii04IiBpbmtzY2FwZTp3aW5kb3cteT0iLTgiIGlua3NjYXBlOnpvb209IjUuMjEwODU3NiIgb2JqZWN0dG9sZXJhbmNlPSIxMCIgcGFnZWNvbG9yPSIjZmZmZmZmIiBzaG93Z3JpZD0iZmFsc2UiPiYjeGE7CTwvc29kaXBvZGk6bmFtZWR2aWV3PiYjeGE7JiN4YTs8cGF0aCBpZD0icGF0aDgyODQ5IiBpbmtzY2FwZTpjb25uZWN0b3ItY3VydmF0dXJlPSIwIiBzdHlsZT0iZmlsbDojN2ZiYTAwIiBkPSJtIDUwLjE1LDEwMC4zMSBjIC0yLjQ3LDAgLTQuNzksLTAuOTcgLTYuNTQsLTIuNzEgTCAyLjcxLDU2LjY5IEMgMC45OSw1NC45NyAwLDUyLjU5IDAsNTAuMTUgMCw0Ny43MiAwLjk5LDQ1LjMzIDIuNzEsNDMuNjEgTCA0My42MSwyLjcxIEMgNDUuMzYsMC45NiA0Ny42OCwwIDUwLjE1LDAgYyAyLjQ3LDAgNC44LDAuOTYgNi41NSwyLjcxIGwgNDAuODksNDAuOSBjIDEuNzUsMS43NCAyLjcyLDQuMDcgMi43Miw2LjU0IDAsMi40OCAtMC45Nyw0LjggLTIuNzIsNi41NSBMIDU2LjcsOTcuNiBjIC0xLjc1LDEuNzQgLTQuMDgsMi43MSAtNi41NSwyLjcxIHoiLz4mI3hhOyYjeGE7PHBhdGggaWQ9InBhdGg4Mjg1NyIgaW5rc2NhcGU6Y29ubmVjdG9yLWN1cnZhdHVyZT0iMCIgc3R5bGU9ImZpbGw6I2ZmZmZmZiIgZD0iTSA5MS41LDQ5LjQ4IDc4LjI0LDM2LjIxIHYgOS4zNyBMIDY0LjE2LDQ1LjU3IEMgNjIuOCw0MC43MiA1OSwzNi44OCA1NC4xNiwzNS41IFYgMjIuMDcgaCA5LjI2IEwgNTAuMTUsOC44MSAzNi44OSwyMi4wNyBoIDkuMjUgdiAxMy40MiBjIC00LjgzLDEuMzkgLTguNjMsNS4yMSAtOS45OSwxMC4wNSBMIDIyLjA3LDQ1LjUzIFYgMzYuMjYgTCA4LjgsNDkuNTMgMjIuMDcsNjIuNzkgdiAtOS4zNiBsIDE0LjA4LDAuMDEgYyAxLjM3LDQuODMgNS4xNyw4LjY0IDkuOTksMTAuMDIgdiA5LjMxIGMgLTIuMDEsMS40NiAtNS4wNyw0LjUzIC01LjA3LDguMSAwLDQuOTggNC4wOCw5LjAzIDkuMDUsOS4wMyA0Ljk4LDAgOS4wNSwtNC4wNSA5LjA1LC05LjAzIDAsLTMuNTMgLTMsLTYuNTcgLTUuMDEsLTguMDUgdiAtOS4zNiBjIDQuODIsLTEuMzggOC42MSwtNS4xOCA5Ljk4LC05Ljk5IGwgMTQuMSwwLjAxIHYgOS4yNiB6Ii8+JiN4YTsmI3hhOzxwYXRoIGlkPSJwYXRoODI4NjUiIGlua3NjYXBlOmNvbm5lY3Rvci1jdXJ2YXR1cmU9IjAiIHN0eWxlPSJmaWxsOiM1OWI0ZDkiIGQ9Im0gNTAuMTUsMzguOTMgYyAtNS44MiwwIC0xMC41NSw0LjczIC0xMC41NSwxMC41NSAwLDUuODIgNC43MywxMC41NSAxMC41NSwxMC41NSA1LjgxLDAgMTAuNTUsLTQuNzMgMTAuNTUsLTEwLjU1IDAsLTUuODIgLTQuNzQsLTEwLjU1IC0xMC41NSwtMTAuNTUgeiIvPiYjeGE7JiN4YTs8cGF0aCBpZD0icGF0aDgyODczIiBpbmtzY2FwZTpjb25uZWN0b3ItY3VydmF0dXJlPSIwIiBzdHlsZT0iZmlsbDojZmZmZmZmO2ZpbGwtb3BhY2l0eTowLjE1IiBkPSJNIDU2LjcsMi43MiBDIDU0Ljk1LDAuOTcgNTIuNjMsMCA1MC4xNSwwIDQ3LjY5LDAgNDUuMzYsMC45NyA0My42MSwyLjcyIEwgMi43MSw0My42MiBDIDAuOTksNDUuMzQgMCw0Ny43MiAwLDUwLjE2IDAsNTIuNTkgMC45OSw1NC45OCAyLjcxLDU2LjcgTCAyNS44Nyw3OS44NiA2OS40MywxNS40NSBaIi8+JiN4YTs8L3N2Zz4=;" vertex="1" parent="1">
          <mxGeometry y="348" width="100" height="100" as="geometry" />
        </mxCell>
        <mxCell id="iqBsh06_ElT_HYazCzKP-9" value="" style="shape=image;verticalLabelPosition=bottom;labelBackgroundColor=#ffffff;verticalAlign=top;aspect=fixed;imageAspect=0;image=data:image/svg+xml,PHN2ZyB4bWxuczpkYz0iaHR0cDovL3B1cmwub3JnL2RjL2VsZW1lbnRzLzEuMS8iIHhtbG5zOmNjPSJodHRwOi8vY3JlYXRpdmVjb21tb25zLm9yZy9ucyMiIHhtbG5zOnJkZj0iaHR0cDovL3d3dy53My5vcmcvMTk5OS8wMi8yMi1yZGYtc3ludGF4LW5zIyIgeG1sbnM6c3ZnPSJodHRwOi8vd3d3LnczLm9yZy8yMDAwL3N2ZyIgeG1sbnM9Imh0dHA6Ly93d3cudzMub3JnLzIwMDAvc3ZnIiB4bWxuczpzb2RpcG9kaT0iaHR0cDovL3NvZGlwb2RpLnNvdXJjZWZvcmdlLm5ldC9EVEQvc29kaXBvZGktMC5kdGQiIHhtbG5zOmlua3NjYXBlPSJodHRwOi8vd3d3Lmlua3NjYXBlLm9yZy9uYW1lc3BhY2VzL2lua3NjYXBlIiB2ZXJzaW9uPSIxLjEiIGlkPSJzdmc4MjQ1OSIgaW5rc2NhcGU6dmVyc2lvbj0iMC45Mi4zICgyNDA1NTQ2LCAyMDE4LTAzLTExKSIgc29kaXBvZGk6ZG9jbmFtZT0ia2V5X3ZhdWx0LnN2ZyIgeD0iMHB4IiB5PSIwcHgiIHZpZXdCb3g9IjAgMCA4OS42OSAxMDAuMTEiIHN0eWxlPSJlbmFibGUtYmFja2dyb3VuZDpuZXcgMCAwIDg5LjY5IDEwMC4xMTsiIHhtbDpzcGFjZT0icHJlc2VydmUiPjxtZXRhZGF0YSBpZD0ibWV0YWRhdGEyMzQ4Ij48cmRmOlJERj48Y2M6V29yayByZGY6YWJvdXQ9IiI+PGRjOmZvcm1hdD5pbWFnZS9zdmcreG1sPC9kYzpmb3JtYXQ+PGRjOnR5cGUgcmRmOnJlc291cmNlPSJodHRwOi8vcHVybC5vcmcvZGMvZGNtaXR5cGUvU3RpbGxJbWFnZSIvPjxkYzp0aXRsZS8+PC9jYzpXb3JrPjwvcmRmOlJERj48L21ldGFkYXRhPjxkZWZzIGlkPSJkZWZzMjM0NiIvPiYjeGE7PGZpbHRlciBpZD0iZmlsdGVyXzIiPiYjeGE7CTxmZUdhdXNzaWFuQmx1ciBpZD0iZmVHYXVzc2lhbkJsdXI4MjQzMiIgc3RkRGV2aWF0aW9uPSIyIi8+JiN4YTs8L2ZpbHRlcj4mI3hhOzxzb2RpcG9kaTpuYW1lZHZpZXcgYm9yZGVyY29sb3I9IiM2NjY2NjYiIGJvcmRlcm9wYWNpdHk9IjEiIGZpdC1tYXJnaW4tYm90dG9tPSIwIiBmaXQtbWFyZ2luLWxlZnQ9IjAiIGZpdC1tYXJnaW4tcmlnaHQ9IjAiIGZpdC1tYXJnaW4tdG9wPSIwIiBncmlkdG9sZXJhbmNlPSIxMCIgZ3VpZGV0b2xlcmFuY2U9IjEwIiBpZD0ibmFtZWR2aWV3ODI0NjEiIGlua3NjYXBlOmN1cnJlbnQtbGF5ZXI9InN2ZzgyNDU5IiBpbmtzY2FwZTpjeD0iNzMuODY0NzI3IiBpbmtzY2FwZTpjeT0iNTIuMzM5MjAxIiBpbmtzY2FwZTpwYWdlb3BhY2l0eT0iMCIgaW5rc2NhcGU6cGFnZXNoYWRvdz0iMiIgaW5rc2NhcGU6d2luZG93LWhlaWdodD0iMTAxNyIgaW5rc2NhcGU6d2luZG93LW1heGltaXplZD0iMSIgaW5rc2NhcGU6d2luZG93LXdpZHRoPSIxOTIwIiBpbmtzY2FwZTp3aW5kb3cteD0iLTgiIGlua3NjYXBlOndpbmRvdy15PSItOCIgaW5rc2NhcGU6em9vbT0iMy42OTA2MTY0IiBvYmplY3R0b2xlcmFuY2U9IjEwIiBwYWdlY29sb3I9IiNmZmZmZmYiIHNob3dncmlkPSJmYWxzZSI+JiN4YTsJPC9zb2RpcG9kaTpuYW1lZHZpZXc+JiN4YTsmI3hhOzxwYXRoIGlkPSJwYXRoODI0NDUiIGlua3NjYXBlOmNvbm5lY3Rvci1jdXJ2YXR1cmU9IjAiIHN0eWxlPSJmaWxsOiM3RkJBMDA7IiBkPSJNODkuNjksNTUuMjZjMC0xNC42Mi03LTI3LjQzLTE3LjYxLTM1LjY0ICBjMCwwLjQsMCwxLDAsMS40YzAsNC40MS0xLjIxLDguNjEtMy4wMSwxMi4yMWM1LjIxLDUuODEsOC40MSwxMy40Miw4LjQxLDIxLjgzYzAsMTguMDItMTQuNjEsMzIuNjMtMzIuNjMsMzIuNjMgIFMxMi4yMSw3My4wOCwxMi4yMSw1NS4wNmMwLTkuMDEsMy42MS0xNy4wMiw5LjQxLTIzLjAzYy0xLjYtMy40LTIuNi03LjItMi42LTExLjIxYzAtMC44LDAtMS44LDAuMi0yLjZDNy42MSwyNi4yMywwLDM5Ljg0LDAsNTUuMDYgIGMwLDI1LjAyLDIwLjAyLDQ1LjA1LDQ0Ljg1LDQ1LjA1QzY5LjY3LDEwMC4xMSw4OS42OSw4MC4wOCw4OS42OSw1NS4yNnoiLz4mI3hhOyYjeGE7PHBhdGggaWQ9InBhdGg4MjQ1MyIgaW5rc2NhcGU6Y29ubmVjdG9yLWN1cnZhdHVyZT0iMCIgc3R5bGU9ImZpbGw6I0ZDRDExNjsiIGQ9Ik00NS40NSwwQzM0LjA0LDAsMjQuODMsOS4yMSwyNC44MywyMC42MiAgYzAsOS40MSw2LjIxLDE3LjIyLDE0LjgyLDE5LjgydjIwLjQzaC05LjYxdjEwLjQxaDkuNjF2Ny42MWgxMS40MVY0MC4yNGM4LjYxLTIuNCwxNC44MS0xMC40MSwxNC44MS0xOS44MiAgQzY2LjA3LDkuMjEsNTYuODYsMCw0NS40NSwweiBNNDUuNDUsMTAuODFjNS40MSwwLDkuODEsNC40MSw5LjgxLDkuODFjMCw1LjQxLTQuNCw5LjgxLTkuODEsOS44MWMtNS40LDAtOS44MS00LjQtOS44MS05LjgxICBDMzUuNjQsMTUuMjIsNDAuMDUsMTAuODEsNDUuNDUsMTAuODF6Ii8+JiN4YTs8L3N2Zz4=;" vertex="1" parent="1">
          <mxGeometry x="630" y="520" width="90" height="100" as="geometry" />
        </mxCell>
        <mxCell id="iqBsh06_ElT_HYazCzKP-10" value="" style="shape=image;verticalLabelPosition=bottom;labelBackgroundColor=#ffffff;verticalAlign=top;aspect=fixed;imageAspect=0;image=data:image/svg+xml,PHN2ZyB4bWxuczpjYz0iaHR0cDovL2NyZWF0aXZlY29tbW9ucy5vcmcvbnMjIiB4bWxuczpkYz0iaHR0cDovL3B1cmwub3JnL2RjL2VsZW1lbnRzLzEuMS8iIHhtbG5zOmlua3NjYXBlPSJodHRwOi8vd3d3Lmlua3NjYXBlLm9yZy9uYW1lc3BhY2VzL2lua3NjYXBlIiB4bWxuczpyZGY9Imh0dHA6Ly93d3cudzMub3JnLzE5OTkvMDIvMjItcmRmLXN5bnRheC1ucyMiIHhtbG5zOnNvZGlwb2RpPSJodHRwOi8vc29kaXBvZGkuc291cmNlZm9yZ2UubmV0L0RURC9zb2RpcG9kaS0wLmR0ZCIgeG1sbnM6c3ZnPSJodHRwOi8vd3d3LnczLm9yZy8yMDAwL3N2ZyIgeG1sbnM9Imh0dHA6Ly93d3cudzMub3JnLzIwMDAvc3ZnIiB4bWxuczp4bGluaz0iaHR0cDovL3d3dy53My5vcmcvMTk5OS94bGluayIgdmVyc2lvbj0iMS4xIiBpZD0ic3ZnODc5NzciIGlua3NjYXBlOnZlcnNpb249IjAuOTIuMyAoMjQwNTU0NiwgMjAxOC0wMy0xMSkiIHNvZGlwb2RpOmRvY25hbWU9Im5ldHdvcmtpbmdfdm5ldF9pbnRlZ3JhdGlvbi5zdmciIHg9IjBweCIgeT0iMHB4IiB2aWV3Qm94PSIwIDAgNDAuMzMgMjEuNjEiIHN0eWxlPSJlbmFibGUtYmFja2dyb3VuZDpuZXcgMCAwIDQwLjMzIDIxLjYxOyIgeG1sOnNwYWNlPSJwcmVzZXJ2ZSI+JiN4YTs8c29kaXBvZGk6bmFtZWR2aWV3IGJvcmRlcmNvbG9yPSIjNjY2NjY2IiBib3JkZXJvcGFjaXR5PSIxIiBmaXQtbWFyZ2luLWJvdHRvbT0iMCIgZml0LW1hcmdpbi1sZWZ0PSIwIiBmaXQtbWFyZ2luLXJpZ2h0PSIwIiBmaXQtbWFyZ2luLXRvcD0iMCIgZ3JpZHRvbGVyYW5jZT0iMTAiIGd1aWRldG9sZXJhbmNlPSIxMCIgaWQ9Im5hbWVkdmlldzg3OTc5IiBpbmtzY2FwZTpjdXJyZW50LWxheWVyPSJzdmc4Nzk3NyIgaW5rc2NhcGU6Y3g9IjE1Ljg1MTY2MSIgaW5rc2NhcGU6Y3k9IjcuOTY2NDg0OSIgaW5rc2NhcGU6cGFnZW9wYWNpdHk9IjAiIGlua3NjYXBlOnBhZ2VzaGFkb3c9IjIiIGlua3NjYXBlOndpbmRvdy1oZWlnaHQ9IjEwMTciIGlua3NjYXBlOndpbmRvdy1tYXhpbWl6ZWQ9IjEiIGlua3NjYXBlOndpbmRvdy13aWR0aD0iMTkyMCIgaW5rc2NhcGU6d2luZG93LXg9Ii04IiBpbmtzY2FwZTp3aW5kb3cteT0iLTgiIGlua3NjYXBlOnpvb209IjE1LjA0NjUxNiIgb2JqZWN0dG9sZXJhbmNlPSIxMCIgcGFnZWNvbG9yPSIjZmZmZmZmIiBzaG93Z3JpZD0iZmFsc2UiPiYjeGE7CTwvc29kaXBvZGk6bmFtZWR2aWV3PiYjeGE7PGcgaWQ9Imc4Nzk3NSI+JiN4YTsJPHRpdGxlIGlkPSJ0aXRsZTg3OTQ1Ij5QYWdlLTE8L3RpdGxlPiYjeGE7CTxnIGlkPSJncm91cDQ2MzgtMSI+JiN4YTsJCTx0aXRsZSBpZD0idGl0bGU4Nzk0NyI+TmV0d29ya2luZy9WTkVUIEludGVncmF0aW9uPC90aXRsZT4mI3hhOwkJPGcgaWQ9InNoYXBlNDYzOS0yIiB0cmFuc2Zvcm09InRyYW5zbGF0ZSgyOC4xMDIzKSI+JiN4YTsJCQk8dGl0bGUgaWQ9InRpdGxlODc5NDkiPlNoZWV0LjQ2Mzk8L3RpdGxlPiYjeGE7CQkJPHBhdGggaWQ9InBhdGg4Nzk1MSIgaW5rc2NhcGU6Y29ubmVjdG9yLWN1cnZhdHVyZT0iMCIgc3R5bGU9ImZpbGw6IzM5OTlDNjsiIGQ9Ik0xMi4yMywxMC42OEw5Ljg0LDguMjlMMS4zOSwwTDAsMS4yNmw5LjU4LDkuNDIgICAgIEwwLDIwLjM1bDEuMzksMS4yNmw4LjQ1LTguM0wxMi4yMywxMC42OHoiLz4mI3hhOwkJPC9nPiYjeGE7CQk8ZyBpZD0ic2hhcGU0NjQwLTQiPiYjeGE7CQkJPHRpdGxlIGlkPSJ0aXRsZTg3OTU0Ij5TaGVldC40NjQwPC90aXRsZT4mI3hhOwkJCTxwYXRoIGlkPSJwYXRoODc5NTYiIGlua3NjYXBlOmNvbm5lY3Rvci1jdXJ2YXR1cmU9IjAiIHN0eWxlPSJmaWxsOiMzOTk5QzY7IiBkPSJNMCwxMC42OGwyLjM5LTIuMzlMMTAuODQsMGwxLjM5LDEuMjYgICAgIGwtOS41OCw5LjQybDkuNTgsOS42N2wtMS4zOSwxLjI2bC04LjQ1LTguM0wwLDEwLjY4eiIvPiYjeGE7CQk8L2c+JiN4YTsJCTxnIGlkPSJzaGFwZTQ2NDEtNiIgdHJhbnNmb3JtPSJ0cmFuc2xhdGUoMTAuMzI5MiwtOC41MzE5NykiPiYjeGE7CQkJPHRpdGxlIGlkPSJ0aXRsZTg3OTU5Ij5TaGVldC40NjQxPC90aXRsZT4mI3hhOwkJCTxwYXRoIGlkPSJwYXRoODc5NjEiIGlua3NjYXBlOmNvbm5lY3Rvci1jdXJ2YXR1cmU9IjAiIHN0eWxlPSJmaWxsOiM3RkJBMDA7IiBkPSJNNC45MywxOS4yMWMwLDEuMzgtMS4xNCwyLjQtMi40MSwyLjQgICAgIGMtMS4yNiwwLTIuNTItMS4xNS0yLjUyLTIuNGMwLTEuMjYsMS4wMi0yLjM4LDIuNTItMi4zOEMzLjkxLDE2LjgzLDQuOTMsMTcuOTUsNC45MywxOS4yMXoiLz4mI3hhOwkJPC9nPiYjeGE7CQk8ZyBpZD0ic2hhcGU0NjQyLTgiIHRyYW5zZm9ybT0idHJhbnNsYXRlKDE3LjY0NTcsLTguNTMxOTcpIj4mI3hhOwkJCTx0aXRsZSBpZD0idGl0bGU4Nzk2NCI+U2hlZXQuNDY0MjwvdGl0bGU+JiN4YTsJCQk8cGF0aCBpZD0icGF0aDg3OTY2IiBpbmtzY2FwZTpjb25uZWN0b3ItY3VydmF0dXJlPSIwIiBzdHlsZT0iZmlsbDojN0ZCQTAwOyIgZD0iTTQuOTEsMTkuMjFjMCwxLjM4LTEuMTMsMi40LTIuMzksMi40ICAgICBTMCwyMC40NiwwLDE5LjIxYzAtMS4yNiwxLjEzLTIuMzgsMi41Mi0yLjM4UzQuOTEsMTcuOTUsNC45MSwxOS4yMXoiLz4mI3hhOwkJPC9nPiYjeGE7CQk8ZyBpZD0ic2hhcGU0NjQzLTEwIiB0cmFuc2Zvcm09InRyYW5zbGF0ZSgyNS4yMDEyLC04LjUzMTk3KSI+JiN4YTsJCQk8dGl0bGUgaWQ9InRpdGxlODc5NjkiPlNoZWV0LjQ2NDM8L3RpdGxlPiYjeGE7CQkJPHBhdGggaWQ9InBhdGg4Nzk3MSIgaW5rc2NhcGU6Y29ubmVjdG9yLWN1cnZhdHVyZT0iMCIgc3R5bGU9ImZpbGw6IzdGQkEwMDsiIGQ9Ik00LjgsMTkuMjFjMC0xLjMyLTEuMDktMi4zOC0yLjQxLTIuMzggICAgIEMxLjA4LDE2LjgzLDAsMTcuODksMCwxOS4yMXMxLjA4LDIuNCwyLjM5LDIuNEMzLjcxLDIxLjYxLDQuOCwyMC41Myw0LjgsMTkuMjF6Ii8+JiN4YTsJCTwvZz4mI3hhOwk8L2c+JiN4YTs8L2c+JiN4YTs8L3N2Zz4=;" vertex="1" parent="1">
          <mxGeometry x="108" y="654.0000000000018" width="40" height="22" as="geometry" />
        </mxCell>
        <mxCell id="iqBsh06_ElT_HYazCzKP-11" value="" style="shape=image;verticalLabelPosition=bottom;labelBackgroundColor=#ffffff;verticalAlign=top;aspect=fixed;imageAspect=0;image=data:image/svg+xml,PHN2ZyB4bWxuczpjYz0iaHR0cDovL2NyZWF0aXZlY29tbW9ucy5vcmcvbnMjIiB4bWxuczpkYz0iaHR0cDovL3B1cmwub3JnL2RjL2VsZW1lbnRzLzEuMS8iIHhtbG5zOmlua3NjYXBlPSJodHRwOi8vd3d3Lmlua3NjYXBlLm9yZy9uYW1lc3BhY2VzL2lua3NjYXBlIiB4bWxuczpyZGY9Imh0dHA6Ly93d3cudzMub3JnLzE5OTkvMDIvMjItcmRmLXN5bnRheC1ucyMiIHhtbG5zOnNvZGlwb2RpPSJodHRwOi8vc29kaXBvZGkuc291cmNlZm9yZ2UubmV0L0RURC9zb2RpcG9kaS0wLmR0ZCIgeG1sbnM6c3ZnPSJodHRwOi8vd3d3LnczLm9yZy8yMDAwL3N2ZyIgeG1sbnM9Imh0dHA6Ly93d3cudzMub3JnLzIwMDAvc3ZnIiB4bWxuczp4bGluaz0iaHR0cDovL3d3dy53My5vcmcvMTk5OS94bGluayIgdmVyc2lvbj0iMS4xIiBpZD0ic3ZnODc3MDAiIGlua3NjYXBlOnZlcnNpb249IjAuOTIuMyAoMjQwNTU0NiwgMjAxOC0wMy0xMSkiIHNvZGlwb2RpOmRvY25hbWU9Im5ldHdvcmtfc2VjdXJpdHlfZ3JvdXAuc3ZnIiB4PSIwcHgiIHk9IjBweCIgdmlld0JveD0iMCAwIDIyLjgzIDMxLjEyIiBzdHlsZT0iZW5hYmxlLWJhY2tncm91bmQ6bmV3IDAgMCAyMi44MyAzMS4xMjsiIHhtbDpzcGFjZT0icHJlc2VydmUiPiYjeGE7PHNvZGlwb2RpOm5hbWVkdmlldyBib3JkZXJjb2xvcj0iIzY2NjY2NiIgYm9yZGVyb3BhY2l0eT0iMSIgZml0LW1hcmdpbi1ib3R0b209IjAiIGZpdC1tYXJnaW4tbGVmdD0iMCIgZml0LW1hcmdpbi1yaWdodD0iMCIgZml0LW1hcmdpbi10b3A9IjAiIGdyaWR0b2xlcmFuY2U9IjEwIiBndWlkZXRvbGVyYW5jZT0iMTAiIGlkPSJuYW1lZHZpZXc4NzcwMiIgaW5rc2NhcGU6Y3VycmVudC1sYXllcj0ic3ZnODc3MDAiIGlua3NjYXBlOmN4PSI3Ljc4MzU0ODIiIGlua3NjYXBlOmN5PSIxNi4yMjc2MjMiIGlua3NjYXBlOnBhZ2VvcGFjaXR5PSIwIiBpbmtzY2FwZTpwYWdlc2hhZG93PSIyIiBpbmtzY2FwZTp3aW5kb3ctaGVpZ2h0PSIxMDE3IiBpbmtzY2FwZTp3aW5kb3ctbWF4aW1pemVkPSIxIiBpbmtzY2FwZTp3aW5kb3ctd2lkdGg9IjE5MjAiIGlua3NjYXBlOndpbmRvdy14PSItOCIgaW5rc2NhcGU6d2luZG93LXk9Ii04IiBpbmtzY2FwZTp6b29tPSIxNC4wOTU3MzQiIG9iamVjdHRvbGVyYW5jZT0iMTAiIHBhZ2Vjb2xvcj0iI2ZmZmZmZiIgc2hvd2dyaWQ9ImZhbHNlIj4mI3hhOwk8L3NvZGlwb2RpOm5hbWVkdmlldz4mI3hhOzxnIGlkPSJnODc2OTgiIHRyYW5zZm9ybT0idHJhbnNsYXRlKC0wLjc1LC0wLjc1KSI+JiN4YTsJPHRpdGxlIGlkPSJ0aXRsZTg3NjQyIj5QYWdlLTE8L3RpdGxlPiYjeGE7CTxnIGlkPSJncm91cDU2NjktMSIgdHJhbnNmb3JtPSJ0cmFuc2xhdGUoMC43NSwtMC43NSkiPiYjeGE7CQk8dGl0bGUgaWQ9InRpdGxlODc2NDQiPk5ldHdvcmsgU2VjdXJpdHkgR3JvdXA8L3RpdGxlPiYjeGE7CQk8ZyBpZD0ic2hhcGU1NjcwLTIiPiYjeGE7CQkJPHRpdGxlIGlkPSJ0aXRsZTg3NjQ2Ij5TaGVldC41NjcwPC90aXRsZT4mI3hhOwkJCTxwYXRoIGlkPSJwYXRoODc2NDgiIGlua3NjYXBlOmNvbm5lY3Rvci1jdXJ2YXR1cmU9IjAiIHN0eWxlPSJmaWxsOiMzOTk5QzY7IiBkPSJNMTkuNDYsNS4yNEMxMi42LDQuNDksMTEuNDEsMS41LDExLjQxLDEuNSAgICAgUzkuODUsNS4zNywwLDUuMzd2MTUuOTZjMCwxLjkzLDEuMDYsMy43NCwyLjU2LDUuM2MzLjM2LDMuNTYsOC44NSw1Ljk5LDguODUsNS45OXMxMS40Mi00Ljk5LDExLjQyLTExLjI5VjUuMzcgICAgIEMyMS41OCw1LjM3LDIwLjQ2LDUuMywxOS40Niw1LjI0eiIvPiYjeGE7CQk8L2c+JiN4YTsJCTxnIGlkPSJzaGFwZTU2NzEtNCIgdHJhbnNmb3JtPSJ0cmFuc2xhdGUoMCwtNS45ODY5MikiPiYjeGE7CQkJPHRpdGxlIGlkPSJ0aXRsZTg3NjUxIj5TaGVldC41NjcxPC90aXRsZT4mI3hhOwkJCTxwYXRoIGlkPSJwYXRoODc2NTMiIGlua3NjYXBlOmNvbm5lY3Rvci1jdXJ2YXR1cmU9IjAiIHN0eWxlPSJmaWxsOiM1OUI0RDk7ZmlsbC1vcGFjaXR5OjAuNDsiIGQ9Ik0xNC4yOCwxNy43OGw1LjE4LTYuNTUgICAgIGMtNi44Ni0wLjc1LTguMDUtMy43NC04LjA1LTMuNzRTOS44NSwxMS4zNSwwLDExLjM1djE1Ljk3YzAsMS45MywxLjA2LDMuNzQsMi41Niw1LjNsMy44Ni00Ljg2TDE0LjI4LDE3Ljc4eiIvPiYjeGE7CQk8L2c+JiN4YTsJCTxnIGlkPSJncm91cDU2NzItNiIgdHJhbnNmb3JtPSJ0cmFuc2xhdGUoMi4zMDc0NiwtMy4xMTgxOSkiPiYjeGE7CQkJPHRpdGxlIGlkPSJ0aXRsZTg3NjU2Ij5TaGVldC41NjcyPC90aXRsZT4mI3hhOwkJCTxnIGlkPSJzaGFwZTU2NzMtNyIgdHJhbnNmb3JtPSJ0cmFuc2xhdGUoMC4wNjIzNjM3KSI+JiN4YTsJCQkJPHRpdGxlIGlkPSJ0aXRsZTg3NjU4Ij5TaGVldC41NjczPC90aXRsZT4mI3hhOwkJCQk8cGF0aCBpZD0icGF0aDg3NjYwIiBpbmtzY2FwZTpjb25uZWN0b3ItY3VydmF0dXJlPSIwIiBzdHlsZT0iZmlsbDojRkZGRkZGO2ZpbGwtb3BhY2l0eTowLjM7IiBkPSJNMCwxOS44M3YzLjgxICAgICAgYzAsMS41NiwwLjg3LDIuOTksMi4wNiw0LjI0YzIuNjgsMi44Nyw3LjA1LDQuNzQsNy4wNSw0Ljc0VjE5LjgzSDB6Ii8+JiN4YTsJCQk8L2c+JiN4YTsJCQk8ZyBpZD0ic2hhcGU1Njc0LTkiIHRyYW5zZm9ybT0idHJhbnNsYXRlKDkuMTA1MSkiPiYjeGE7CQkJCTx0aXRsZSBpZD0idGl0bGU4NzY2MyI+U2hlZXQuNTY3NDwvdGl0bGU+JiN4YTsJCQkJPHBhdGggaWQ9InBhdGg4NzY2NSIgaW5rc2NhcGU6Y29ubmVjdG9yLWN1cnZhdHVyZT0iMCIgc3R5bGU9ImZpbGw6I0ZGRkZGRjtmaWxsLW9wYWNpdHk6MC43OyIgZD0iTTAsMzIuNjIgICAgICBjMCwwLDkuMTEtMy45OSw5LjExLTguOTh2LTMuODFIMFYzMi42MnoiLz4mI3hhOwkJCTwvZz4mI3hhOwkJCTxnIGlkPSJzaGFwZTU2NzUtMTEiIHRyYW5zZm9ybT0idHJhbnNsYXRlKDAsLTEyLjc4NDYpIj4mI3hhOwkJCQk8dGl0bGUgaWQ9InRpdGxlODc2NjgiPlNoZWV0LjU2NzU8L3RpdGxlPiYjeGE7CQkJCTxwYXRoIGlkPSJwYXRoODc2NzAiIGlua3NjYXBlOmNvbm5lY3Rvci1jdXJ2YXR1cmU9IjAiIHN0eWxlPSJmaWxsOiNGRkZGRkY7ZmlsbC1vcGFjaXR5OjAuNzsiIGQ9Ik05LjExLDIwLjU4ICAgICAgYzAsMC0xLjI1LDMuMTItOS4xMSwzLjEydjguOTJoOS4xMVYyMC41OHoiLz4mI3hhOwkJCTwvZz4mI3hhOwkJCTxnIGlkPSJzaGFwZTU2NzYtMTMiIHRyYW5zZm9ybT0idHJhbnNsYXRlKDkuMTA1MSwtMTIuNzg0NikiPiYjeGE7CQkJCTx0aXRsZSBpZD0idGl0bGU4NzY3MyI+U2hlZXQuNTY3NjwvdGl0bGU+JiN4YTsJCQkJPHBhdGggaWQ9InBhdGg4NzY3NSIgaW5rc2NhcGU6Y29ubmVjdG9yLWN1cnZhdHVyZT0iMCIgc3R5bGU9ImZpbGw6I0ZGRkZGRjtmaWxsLW9wYWNpdHk6MC4zOyIgZD0iTTYuMzYsMjMuNTggICAgICBDMC45NCwyMi45NSwwLDIwLjY1LDAsMjAuNjV2MTEuOTdoOS4xMVYyMy43QzguMTEsMjMuNyw3LjE3LDIzLjY0LDYuMzYsMjMuNTh6Ii8+JiN4YTsJCQk8L2c+JiN4YTsJCTwvZz4mI3hhOwkJPGcgaWQ9Imdyb3VwNTY3Ny0xNSIgdHJhbnNmb3JtPSJ0cmFuc2xhdGUoMy4xMjQ0MiwtMTIuNzc0NikiPiYjeGE7CQkJPHRpdGxlIGlkPSJ0aXRsZTg3Njc5Ij5TaGVldC41Njc3PC90aXRsZT4mI3hhOwkJCTxnIGlkPSJzaGFwZTU2NzgtMTYiIHRyYW5zZm9ybT0idHJhbnNsYXRlKDAsLTAuMTAyOSkiPiYjeGE7CQkJCTx0aXRsZSBpZD0idGl0bGU4NzY4MSI+U2hlZXQuNTY3ODwvdGl0bGU+JiN4YTsJCQkJPHBhdGggaWQ9InBhdGg4NzY4MyIgaW5rc2NhcGU6Y29ubmVjdG9yLWN1cnZhdHVyZT0iMCIgc3R5bGU9ImZpbGw6IzNFM0UzRTsiIGQ9Ik01LjE4LDMyLjYyaC0xLjFsLTIuOTMtNC40OSAgICAgIGMtMC4wNy0wLjEyLTAuMTMtMC4yNC0wLjE4LTAuMzZIMC45NWMwLjAyLDAuMTMsMC4wMywwLjQxLDAuMDMsMC44NHY0LjAxSDB2LTYuMTFoMS4xOEw0LDMwLjg5YzAuMTIsMC4xOCwwLjIsMC4zMSwwLjIzLDAuMzggICAgICBoMC4wMmMtMC4wMy0wLjE2LTAuMDQtMC40NC0wLjA0LTAuODJ2LTMuOTRoMC45N0w1LjE4LDMyLjYyeiIvPiYjeGE7CQkJPC9nPiYjeGE7CQkJPGcgaWQ9InNoYXBlNTY3OS0xOCIgdHJhbnNmb3JtPSJ0cmFuc2xhdGUoNi40MTA5OSkiPiYjeGE7CQkJCTx0aXRsZSBpZD0idGl0bGU4NzY4NiI+U2hlZXQuNTY3OTwvdGl0bGU+JiN4YTsJCQkJPHBhdGggaWQ9InBhdGg4NzY4OCIgaW5rc2NhcGU6Y29ubmVjdG9yLWN1cnZhdHVyZT0iMCIgc3R5bGU9ImZpbGw6IzNFM0UzRTsiIGQ9Ik0wLDMyLjI3di0xLjA0YzAuMSwwLjA4LDAuMjEsMC4xNiwwLjM0LDAuMjMgICAgICBzMC4yNywwLjEyLDAuNDEsMC4xN2MwLjE1LDAuMDUsMC4yOSwwLjA4LDAuNDQsMC4xMWMwLjE0LDAuMDMsMC4yNywwLjA0LDAuNCwwLjA0YzAuNDIsMCwwLjc0LTAuMDcsMC45NS0wLjIyICAgICAgYzAuMjEtMC4xNCwwLjMxLTAuMzQsMC4zMS0wLjYxYzAtMC4xNS0wLjAzLTAuMjctMC4xLTAuMzhjLTAuMDctMC4xMS0wLjE3LTAuMi0wLjI5LTAuMjljLTAuMTMtMC4wOS0wLjI4LTAuMTgtMC40NS0wLjI2ICAgICAgYy0wLjE2LTAuMDgtMC4zNS0wLjE2LTAuNTQtMC4yNWMtMC4yMS0wLjExLTAuNC0wLjIyLTAuNTgtMC4zNGMtMC4xOC0wLjExLTAuMzMtMC4yNC0wLjQ3LTAuMzdjLTAuMTMtMC4xNC0wLjIzLTAuMy0wLjMxLTAuNDcgICAgICBDMC4wNCwyOC40MiwwLDI4LjIxLDAsMjcuOThjMC0wLjI5LDAuMDYtMC41NCwwLjE5LTAuNzVjMC4xMy0wLjIxLDAuMy0wLjM5LDAuNTItMC41MmMwLjIxLTAuMTQsMC40NS0wLjI0LDAuNzItMC4zMSAgICAgIHMwLjU0LTAuMSwwLjgzLTAuMWMwLjYzLDAsMS4xLDAuMDcsMS4zOSwwLjIydjFjLTAuMzQtMC4yNS0wLjc5LTAuMzgtMS4zNC0wLjM4Yy0wLjE1LDAtMC4zLDAuMDItMC40NCwwLjA1ICAgICAgYy0wLjE1LDAuMDItMC4yOSwwLjA3LTAuNDEsMC4xNGMtMC4xMSwwLjA2LTAuMjEsMC4xNS0wLjI4LDAuMjVjLTAuMDgsMC4xLTAuMTEsMC4yMy0wLjExLDAuMzdjMCwwLjE0LDAuMDIsMC4yNSwwLjA4LDAuMzUgICAgICBjMC4wNiwwLjEsMC4xNCwwLjE5LDAuMjUsMC4yOGMwLjExLDAuMDgsMC4yNCwwLjE2LDAuNCwwLjI0czAuMzQsMC4xNiwwLjU1LDAuMjVjMC4yMSwwLjExLDAuNDEsMC4yMywwLjYsMC4zNSAgICAgIGMwLjE5LDAuMTIsMC4zNiwwLjI2LDAuNSwwLjQxYzAuMTUsMC4xNCwwLjI2LDAuMzEsMC4zNCwwLjQ5YzAuMDksMC4xOCwwLjEzLDAuMzgsMC4xMywwLjYyYzAsMC4zLTAuMDYsMC41Ny0wLjE5LDAuNzggICAgICBjLTAuMTIsMC4yMS0wLjI5LDAuMzktMC41LDAuNTJjLTAuMjIsMC4xMy0wLjQ2LDAuMjMtMC43NCwwLjI5Yy0wLjI3LDAuMDYtMC41NiwwLjA5LTAuODcsMC4wOWMtMC4xLDAtMC4yMy0wLjAxLTAuMzgtMC4wMiAgICAgIGMtMC4xNS0wLjAyLTAuMy0wLjA0LTAuNDUtMC4wN2MtMC4xNi0wLjAzLTAuMzEtMC4wNy0wLjQ1LTAuMTFDMC4yLDMyLjM4LDAuMDksMzIuMzMsMCwzMi4yN3oiLz4mI3hhOwkJCTwvZz4mI3hhOwkJCTxnIGlkPSJzaGFwZTU2ODAtMjAiIHRyYW5zZm9ybT0idHJhbnNsYXRlKDExLjA1ODMsLTAuMDAxMjQ3MjcpIj4mI3hhOwkJCQk8dGl0bGUgaWQ9InRpdGxlODc2OTEiPlNoZWV0LjU2ODA8L3RpdGxlPiYjeGE7CQkJCTxwYXRoIGlkPSJwYXRoODc2OTMiIGlua3NjYXBlOmNvbm5lY3Rvci1jdXJ2YXR1cmU9IjAiIHN0eWxlPSJmaWxsOiMzRTNFM0U7IiBkPSJNNS4xNiwzMi4xYy0wLjYzLDAuMzUtMS4zNCwwLjUyLTIuMTIsMC41MiAgICAgIGMtMC45MSwwLTEuNjQtMC4yOC0yLjItMC44NEMwLjI4LDMxLjIxLDAsMzAuNDcsMCwyOS41NGMwLTAuOTUsMC4zMS0xLjcyLDAuOTItMi4zM2MwLjYxLTAuNjEsMS4zOS0wLjkxLDIuMzMtMC45MSAgICAgIGMwLjY4LDAsMS4yNSwwLjEsMS43MiwwLjN2MS4wNGMtMC40Ny0wLjMxLTEuMDMtMC40Ni0xLjY4LTAuNDZzLTEuMTgsMC4yMS0xLjYsMC42NHMtMC42MiwwLjk4LTAuNjIsMS42NyAgICAgIGMwLDAuNywwLjE3LDEuMjUsMC41MywxLjY1czAuODUsMC42MSwxLjQ2LDAuNjFjMC40MiwwLDAuNzktMC4wOSwxLjA5LTAuMjV2LTEuNDVIMi44NlYyOS4yaDIuM0M1LjE2LDI5LjIsNS4xNiwzMi4xLDUuMTYsMzIuMSAgICAgIHoiLz4mI3hhOwkJCTwvZz4mI3hhOwkJPC9nPiYjeGE7CTwvZz4mI3hhOzwvZz4mI3hhOzwvc3ZnPg==;" vertex="1" parent="1">
          <mxGeometry x="300" y="610" width="23" height="31" as="geometry" />
        </mxCell>
        <mxCell id="iqBsh06_ElT_HYazCzKP-12" value="" style="shape=image;verticalLabelPosition=bottom;labelBackgroundColor=#ffffff;verticalAlign=top;aspect=fixed;imageAspect=0;image=data:image/svg+xml,PHN2ZyB4bWxuczpjYz0iaHR0cDovL2NyZWF0aXZlY29tbW9ucy5vcmcvbnMjIiB4bWxuczpkYz0iaHR0cDovL3B1cmwub3JnL2RjL2VsZW1lbnRzLzEuMS8iIHhtbG5zOmlua3NjYXBlPSJodHRwOi8vd3d3Lmlua3NjYXBlLm9yZy9uYW1lc3BhY2VzL2lua3NjYXBlIiB4bWxuczpyZGY9Imh0dHA6Ly93d3cudzMub3JnLzE5OTkvMDIvMjItcmRmLXN5bnRheC1ucyMiIHhtbG5zOnNvZGlwb2RpPSJodHRwOi8vc29kaXBvZGkuc291cmNlZm9yZ2UubmV0L0RURC9zb2RpcG9kaS0wLmR0ZCIgeG1sbnM6c3ZnPSJodHRwOi8vd3d3LnczLm9yZy8yMDAwL3N2ZyIgeG1sbnM9Imh0dHA6Ly93d3cudzMub3JnLzIwMDAvc3ZnIiB4bWxuczp4bGluaz0iaHR0cDovL3d3dy53My5vcmcvMTk5OS94bGluayIgdmVyc2lvbj0iMS4xIiBpZD0ic3ZnODc0MzQiIGlua3NjYXBlOnZlcnNpb249IjAuOTIuMyAoMjQwNTU0NiwgMjAxOC0wMy0xMSkiIHNvZGlwb2RpOmRvY25hbWU9Im5ldHdvcmtfaW50ZXJmYWNlLnN2ZyIgeD0iMHB4IiB5PSIwcHgiIHZpZXdCb3g9IjAgMCAzMy44OCAzNy44OSIgc3R5bGU9ImVuYWJsZS1iYWNrZ3JvdW5kOm5ldyAwIDAgMzMuODggMzcuODk7IiB4bWw6c3BhY2U9InByZXNlcnZlIj4mI3hhOzxzb2RpcG9kaTpuYW1lZHZpZXcgYm9yZGVyY29sb3I9IiM2NjY2NjYiIGJvcmRlcm9wYWNpdHk9IjEiIGZpdC1tYXJnaW4tYm90dG9tPSIwIiBmaXQtbWFyZ2luLWxlZnQ9IjAiIGZpdC1tYXJnaW4tcmlnaHQ9IjAiIGZpdC1tYXJnaW4tdG9wPSIwIiBncmlkdG9sZXJhbmNlPSIxMCIgZ3VpZGV0b2xlcmFuY2U9IjEwIiBpZD0ibmFtZWR2aWV3ODc0MzYiIGlua3NjYXBlOmN1cnJlbnQtbGF5ZXI9InN2Zzg3NDM0IiBpbmtzY2FwZTpjeD0iMTMuMTgxMzciIGlua3NjYXBlOmN5PSIyMC4yOTk0NTQiIGlua3NjYXBlOnBhZ2VvcGFjaXR5PSIwIiBpbmtzY2FwZTpwYWdlc2hhZG93PSIyIiBpbmtzY2FwZTp3aW5kb3ctaGVpZ2h0PSIxMDE3IiBpbmtzY2FwZTp3aW5kb3ctbWF4aW1pemVkPSIxIiBpbmtzY2FwZTp3aW5kb3ctd2lkdGg9IjE5MjAiIGlua3NjYXBlOndpbmRvdy14PSItOCIgaW5rc2NhcGU6d2luZG93LXk9Ii04IiBpbmtzY2FwZTp6b29tPSIxMi4xMzQ5MTIiIG9iamVjdHRvbGVyYW5jZT0iMTAiIHBhZ2Vjb2xvcj0iI2ZmZmZmZiIgc2hvd2dyaWQ9ImZhbHNlIj4mI3hhOwk8L3NvZGlwb2RpOm5hbWVkdmlldz4mI3hhOzxnIGlkPSJnODc0MzIiIHRyYW5zZm9ybT0idHJhbnNsYXRlKC0yLjQ5Mzc1NjFlLTUpIj4mI3hhOwk8dGl0bGUgaWQ9InRpdGxlODczMzciPlBhZ2UtMTwvdGl0bGU+JiN4YTsJPGcgaWQ9Imdyb3VwNDY5MC0xIj4mI3hhOwkJPHRpdGxlIGlkPSJ0aXRsZTg3MzM5Ij5OZXR3b3JrIEludGVyZmFjZTwvdGl0bGU+JiN4YTsJCTxnIGlkPSJzaGFwZTQ2OTEtMiI+JiN4YTsJCQk8dGl0bGUgaWQ9InRpdGxlODczNDEiPlNoZWV0LjQ2OTE8L3RpdGxlPiYjeGE7CQkJPHBhdGggaWQ9InBhdGg4NzM0MyIgaW5rc2NhcGU6Y29ubmVjdG9yLWN1cnZhdHVyZT0iMCIgc3R5bGU9ImZpbGw6IzdGQkEwMDsiIGQ9Ik0wLDB2MzcuODloMzAuMzVWMEgweiIvPiYjeGE7CQk8L2c+JiN4YTsJCTxnIGlkPSJzaGFwZTQ2OTItNCIgdHJhbnNmb3JtPSJ0cmFuc2xhdGUoMzAuMzQ3NCwtMjguMjI2KSI+JiN4YTsJCQk8dGl0bGUgaWQ9InRpdGxlODczNDYiPlNoZWV0LjQ2OTI8L3RpdGxlPiYjeGE7CQkJPHBhdGggaWQ9InBhdGg4NzM0OCIgaW5rc2NhcGU6Y29ubmVjdG9yLWN1cnZhdHVyZT0iMCIgc3R5bGU9ImZpbGw6I0ZDRDExNjsiIGQ9Ik0wLDMwLjk5djYuOWgzLjUzdi02LjlIMHoiLz4mI3hhOwkJPC9nPiYjeGE7CQk8ZyBpZD0ic2hhcGU0NjkzLTYiIHRyYW5zZm9ybT0idHJhbnNsYXRlKDMwLjM0NzQsLTguNDM3MTMpIj4mI3hhOwkJCTx0aXRsZSBpZD0idGl0bGU4NzM1MSI+U2hlZXQuNDY5MzwvdGl0bGU+JiN4YTsJCQk8cGF0aCBpZD0icGF0aDg3MzUzIiBpbmtzY2FwZTpjb25uZWN0b3ItY3VydmF0dXJlPSIwIiBzdHlsZT0iZmlsbDojRkNEMTE2OyIgZD0iTTAsMjAuNHYxNy40OWgzLjUzVjIwLjRIMHoiLz4mI3hhOwkJPC9nPiYjeGE7CQk8ZyBpZD0ic2hhcGU0Njk0LTgiIHRyYW5zZm9ybT0idHJhbnNsYXRlKDEyLjEwODMsLTI1LjE1OCkiPiYjeGE7CQkJPHRpdGxlIGlkPSJ0aXRsZTg3MzU2Ij5TaGVldC40Njk0PC90aXRsZT4mI3hhOwkJCTxwYXRoIGlkPSJwYXRoODczNTgiIGlua3NjYXBlOmNvbm5lY3Rvci1jdXJ2YXR1cmU9IjAiIHN0eWxlPSJmaWxsOiMyRDMyMzk7IiBkPSJNMCwyOC44NHY5LjA1aDE0LjQxdi05LjA1SDB6Ii8+JiN4YTsJCTwvZz4mI3hhOwkJPGcgaWQ9InNoYXBlNDY5NS0xMCIgdHJhbnNmb3JtPSJ0cmFuc2xhdGUoOS41MDI3MywtMy41MjgyNSkiPiYjeGE7CQkJPHRpdGxlIGlkPSJ0aXRsZTg3MzYxIj5TaGVldC40Njk1PC90aXRsZT4mI3hhOwkJCTxwYXRoIGlkPSJwYXRoODczNjMiIGlua3NjYXBlOmNvbm5lY3Rvci1jdXJ2YXR1cmU9IjAiIHN0eWxlPSJmaWxsOiMyRDMyMzk7IiBkPSJNMCwyNy42MXYxMC4yOGgyLjNWMjcuNjFIMHoiLz4mI3hhOwkJPC9nPiYjeGE7CQk8ZyBpZD0ic2hhcGU0Njk2LTEyIiB0cmFuc2Zvcm09InRyYW5zbGF0ZSgxMy40ODc3LC0zLjUyODI1KSI+JiN4YTsJCQk8dGl0bGUgaWQ9InRpdGxlODczNjYiPlNoZWV0LjQ2OTY8L3RpdGxlPiYjeGE7CQkJPHBhdGggaWQ9InBhdGg4NzM2OCIgaW5rc2NhcGU6Y29ubmVjdG9yLWN1cnZhdHVyZT0iMCIgc3R5bGU9ImZpbGw6IzJEMzIzOTsiIGQ9Ik0wLDI3LjYxdjEwLjI4aDIuNDVWMjcuNjFIMHoiLz4mI3hhOwkJPC9nPiYjeGE7CQk8ZyBpZD0ic2hhcGU0Njk3LTE0IiB0cmFuc2Zvcm09InRyYW5zbGF0ZSgyMi4zNzc0LC0zLjk4ODQ2KSI+JiN4YTsJCQk8dGl0bGUgaWQ9InRpdGxlODczNzEiPlNoZWV0LjQ2OTc8L3RpdGxlPiYjeGE7CQkJPHBhdGggaWQ9InBhdGg4NzM3MyIgaW5rc2NhcGU6Y29ubmVjdG9yLWN1cnZhdHVyZT0iMCIgc3R5bGU9ImZpbGw6I0U1RTVFNTsiIGQ9Ik0wLDI4LjUzdjkuMzZoMy41M3YtOS4zNkwwLDI4LjUzeiIvPiYjeGE7CQk8L2c+JiN4YTsJCTxnIGlkPSJzaGFwZTQ2OTgtMTYiIHRyYW5zZm9ybT0idHJhbnNsYXRlKDExLjM0MiwtMTcuNjQxMykiPiYjeGE7CQkJPHRpdGxlIGlkPSJ0aXRsZTg3Mzc2Ij5TaGVldC40Njk4PC90aXRsZT4mI3hhOwkJCTxwYXRoIGlkPSJwYXRoODczNzgiIGlua3NjYXBlOmNvbm5lY3Rvci1jdXJ2YXR1cmU9IjAiIHN0eWxlPSJmaWxsOiNFNUU1RTU7IiBkPSJNMCwzNS45N2MwLTEuMDUsMC44Mi0xLjkxLDEuODQtMS45MSAgICAgczEuODQsMC44NiwxLjg0LDEuOTFjMCwxLjA3LTAuODIsMS45Mi0xLjg0LDEuOTJTMCwzNy4wNCwwLDM1Ljk3eiIvPiYjeGE7CQk8L2c+JiN4YTsJCTxnIGlkPSJzaGFwZTQ2OTktMTgiIHRyYW5zZm9ybT0idHJhbnNsYXRlKDIxLjc2NDMsLTE5LjAyMTkpIj4mI3hhOwkJCTx0aXRsZSBpZD0idGl0bGU4NzM4MSI+U2hlZXQuNDY5OTwvdGl0bGU+JiN4YTsJCQk8cGF0aCBpZD0icGF0aDg3MzgzIiBpbmtzY2FwZTpjb25uZWN0b3ItY3VydmF0dXJlPSIwIiBzdHlsZT0iZmlsbDojNkU5RTBCOyIgZD0iTTAsMzEuNzV2Ni4xNGgxLjUzdi02LjE0SDB6Ii8+JiN4YTsJCTwvZz4mI3hhOwkJPGcgaWQ9InNoYXBlNDcwMC0yMCIgdHJhbnNmb3JtPSJ0cmFuc2xhdGUoMTguMjM5MSwtNy41MTY3MikiPiYjeGE7CQkJPHRpdGxlIGlkPSJ0aXRsZTg3Mzg2Ij5TaGVldC40NzAwPC90aXRsZT4mI3hhOwkJCTxwYXRoIGlkPSJwYXRoODczODgiIGlua3NjYXBlOmNvbm5lY3Rvci1jdXJ2YXR1cmU9IjAiIHN0eWxlPSJmaWxsOiM2RTlFMEI7IiBkPSJNMCwyNS4xMnYxMi43N2gxLjUzVjI1LjEySDB6Ii8+JiN4YTsJCTwvZz4mI3hhOwkJPGcgaWQ9InNoYXBlNDcwMS0yMiIgdHJhbnNmb3JtPSJ0cmFuc2xhdGUoNi4yODQwNiwtOS4zNTc1NCkiPiYjeGE7CQkJPHRpdGxlIGlkPSJ0aXRsZTg3MzkxIj5TaGVldC40NzAxPC90aXRsZT4mI3hhOwkJCTxwYXRoIGlkPSJwYXRoODczOTMiIGlua3NjYXBlOmNvbm5lY3Rvci1jdXJ2YXR1cmU9IjAiIHN0eWxlPSJmaWxsOiM2RTlFMEI7IiBkPSJNMCwxOC41NnYxOS4zM2gxLjUzVjE4LjU2SDB6Ii8+JiN4YTsJCTwvZz4mI3hhOwkJPGcgaWQ9InNoYXBlNDcwMi0yNCIgdHJhbnNmb3JtPSJ0cmFuc2xhdGUoMy4wNjU0LC01LjgyOTI5KSI+JiN4YTsJCQk8dGl0bGUgaWQ9InRpdGxlODczOTYiPlNoZWV0LjQ3MDI8L3RpdGxlPiYjeGE7CQkJPHBhdGggaWQ9InBhdGg4NzM5OCIgaW5rc2NhcGU6Y29ubmVjdG9yLWN1cnZhdHVyZT0iMCIgc3R5bGU9ImZpbGw6IzZFOUUwQjsiIGQ9Ik0wLDExLjgxdjI2LjA4aDEuNjlWMTEuODFIMHoiLz4mI3hhOwkJPC9nPiYjeGE7CQk8ZyBpZD0ic2hhcGU0NzAzLTI2IiB0cmFuc2Zvcm09InRyYW5zbGF0ZSgxOC4yMzkxLC0xOS4wMjE5KSI+JiN4YTsJCQk8dGl0bGUgaWQ9InRpdGxlODc0MDEiPlNoZWV0LjQ3MDM8L3RpdGxlPiYjeGE7CQkJPHBhdGggaWQ9InBhdGg4NzQwMyIgaW5rc2NhcGU6Y29ubmVjdG9yLWN1cnZhdHVyZT0iMCIgc3R5bGU9ImZpbGw6IzZFOUUwQjsiIGQ9Ik01LjA2LDM2LjM2djEuNTNIMHYtMS41M0g1LjA2eiIvPiYjeGE7CQk8L2c+JiN4YTsJCTxnIGlkPSJzaGFwZTQ3MDQtMjgiIHRyYW5zZm9ybT0idHJhbnNsYXRlKDE4LjM0NDMsLTcuNTE2NzIpIj4mI3hhOwkJCTx0aXRsZSBpZD0idGl0bGU4NzQwNiI+U2hlZXQuNDcwNDwvdGl0bGU+JiN4YTsJCQk8cGF0aCBpZD0icGF0aDg3NDA4IiBpbmtzY2FwZTpjb25uZWN0b3ItY3VydmF0dXJlPSIwIiBzdHlsZT0iZmlsbDojNkU5RTBCOyIgZD0iTTQuMDMsMzYuMzZ2MS41M0gwdi0xLjUzSDQuMDN6Ii8+JiN4YTsJCTwvZz4mI3hhOwkJPGcgaWQ9InNoYXBlNDcwNS0zMCIgdHJhbnNmb3JtPSJ0cmFuc2xhdGUoMy4wNjU0LC01LjgyOTI5KSI+JiN4YTsJCQk8dGl0bGUgaWQ9InRpdGxlODc0MTEiPlNoZWV0LjQ3MDU8L3RpdGxlPiYjeGE7CQkJPHBhdGggaWQ9InBhdGg4NzQxMyIgaW5rc2NhcGU6Y29ubmVjdG9yLWN1cnZhdHVyZT0iMCIgc3R5bGU9ImZpbGw6IzZFOUUwQjsiIGQ9Ik02LjQ0LDM2LjJ2MS42OUgwVjM2LjJINi40NHoiLz4mI3hhOwkJPC9nPiYjeGE7CQk8ZyBpZD0ic2hhcGU0NzA2LTMyIiB0cmFuc2Zvcm09InRyYW5zbGF0ZSg2LjI4NDA2LC05LjM1NzU0KSI+JiN4YTsJCQk8dGl0bGUgaWQ9InRpdGxlODc0MTYiPlNoZWV0LjQ3MDY8L3RpdGxlPiYjeGE7CQkJPHBhdGggaWQ9InBhdGg4NzQxOCIgaW5rc2NhcGU6Y29ubmVjdG9yLWN1cnZhdHVyZT0iMCIgc3R5bGU9ImZpbGw6IzZFOUUwQjsiIGQ9Ik0zLjIyLDM2LjJ2MS42OUgwVjM2LjJIMy4yMnoiLz4mI3hhOwkJPC9nPiYjeGE7CQk8ZyBpZD0ic2hhcGU0NzA3LTM0IiB0cmFuc2Zvcm09InRyYW5zbGF0ZSgzLjA2NTQsLTMwLjM3MzcpIj4mI3hhOwkJCTx0aXRsZSBpZD0idGl0bGU4NzQyMSI+U2hlZXQuNDcwNzwvdGl0bGU+JiN4YTsJCQk8cGF0aCBpZD0icGF0aDg3NDIzIiBpbmtzY2FwZTpjb25uZWN0b3ItY3VydmF0dXJlPSIwIiBzdHlsZT0iZmlsbDojNkU5RTBCOyIgZD0iTTkuMDQsMzYuMnYxLjY5SDBWMzYuMkg5LjA0eiIvPiYjeGE7CQk8L2c+JiN4YTsJCTxnIGlkPSJzaGFwZTQ3MDgtMzYiIHRyYW5zZm9ybT0idHJhbnNsYXRlKDYuMjg0MDYsLTI3LjE1MjIpIj4mI3hhOwkJCTx0aXRsZSBpZD0idGl0bGU4NzQyNiI+U2hlZXQuNDcwODwvdGl0bGU+JiN4YTsJCQk8cGF0aCBpZD0icGF0aDg3NDI4IiBpbmtzY2FwZTpjb25uZWN0b3ItY3VydmF0dXJlPSIwIiBzdHlsZT0iZmlsbDojNkU5RTBCOyIgZD0iTTUuODIsMzYuMzZ2MS41M0gwdi0xLjUzSDUuODJ6Ii8+JiN4YTsJCTwvZz4mI3hhOwk8L2c+JiN4YTs8L2c+JiN4YTs8L3N2Zz4=;" vertex="1" parent="1">
          <mxGeometry x="130" y="520" width="34" height="38" as="geometry" />
        </mxCell>
        <mxCell id="iqBsh06_ElT_HYazCzKP-13" value="" style="shape=image;verticalLabelPosition=bottom;labelBackgroundColor=#ffffff;verticalAlign=top;aspect=fixed;imageAspect=0;image=data:image/svg+xml,PHN2ZyB4bWxuczpjYz0iaHR0cDovL2NyZWF0aXZlY29tbW9ucy5vcmcvbnMjIiB4bWxuczpkYz0iaHR0cDovL3B1cmwub3JnL2RjL2VsZW1lbnRzLzEuMS8iIHhtbG5zOmlua3NjYXBlPSJodHRwOi8vd3d3Lmlua3NjYXBlLm9yZy9uYW1lc3BhY2VzL2lua3NjYXBlIiB4bWxuczpyZGY9Imh0dHA6Ly93d3cudzMub3JnLzE5OTkvMDIvMjItcmRmLXN5bnRheC1ucyMiIHhtbG5zOnNvZGlwb2RpPSJodHRwOi8vc29kaXBvZGkuc291cmNlZm9yZ2UubmV0L0RURC9zb2RpcG9kaS0wLmR0ZCIgeG1sbnM6c3ZnPSJodHRwOi8vd3d3LnczLm9yZy8yMDAwL3N2ZyIgeG1sbnM9Imh0dHA6Ly93d3cudzMub3JnLzIwMDAvc3ZnIiB4bWxuczp4bGluaz0iaHR0cDovL3d3dy53My5vcmcvMTk5OS94bGluayIgdmVyc2lvbj0iMS4xIiBpZD0ic3ZnOTkyNDkiIGlua3NjYXBlOnZlcnNpb249IjAuOTIuMyAoMjQwNTU0NiwgMjAxOC0wMy0xMSkiIHNvZGlwb2RpOmRvY25hbWU9InN1Ym5ldHMuc3ZnIiB4PSIwcHgiIHk9IjBweCIgdmlld0JveD0iMCAwIDM0Ljg0IDIxLjYxIiBzdHlsZT0iZW5hYmxlLWJhY2tncm91bmQ6bmV3IDAgMCAzNC44NCAyMS42MTsiIHhtbDpzcGFjZT0icHJlc2VydmUiPiYjeGE7PHNvZGlwb2RpOm5hbWVkdmlldyBib3JkZXJjb2xvcj0iIzY2NjY2NiIgYm9yZGVyb3BhY2l0eT0iMSIgZml0LW1hcmdpbi1ib3R0b209IjAiIGZpdC1tYXJnaW4tbGVmdD0iMCIgZml0LW1hcmdpbi1yaWdodD0iMCIgZml0LW1hcmdpbi10b3A9IjAiIGdyaWR0b2xlcmFuY2U9IjEwIiBndWlkZXRvbGVyYW5jZT0iMTAiIGlkPSJuYW1lZHZpZXc5OTI1MSIgaW5rc2NhcGU6Y3VycmVudC1sYXllcj0ic3ZnOTkyNDkiIGlua3NjYXBlOmN4PSI0MC45MTcxNDUiIGlua3NjYXBlOmN5PSIwLjYzNzUyNTg2IiBpbmtzY2FwZTpwYWdlb3BhY2l0eT0iMCIgaW5rc2NhcGU6cGFnZXNoYWRvdz0iMiIgaW5rc2NhcGU6d2luZG93LWhlaWdodD0iMTAxNyIgaW5rc2NhcGU6d2luZG93LW1heGltaXplZD0iMSIgaW5rc2NhcGU6d2luZG93LXdpZHRoPSIxOTIwIiBpbmtzY2FwZTp3aW5kb3cteD0iLTgiIGlua3NjYXBlOndpbmRvdy15PSItOCIgaW5rc2NhcGU6em9vbT0iMTAuNjM5NDk0IiBvYmplY3R0b2xlcmFuY2U9IjEwIiBwYWdlY29sb3I9IiNmZmZmZmYiIHNob3dncmlkPSJmYWxzZSI+JiN4YTsJPC9zb2RpcG9kaTpuYW1lZHZpZXc+JiN4YTs8ZyBpZD0iZzk5MjQ3IiB0cmFuc2Zvcm09InRyYW5zbGF0ZSgtNC4yMzMxNzQ5ZS01KSI+JiN4YTsJPHRpdGxlIGlkPSJ0aXRsZTk5MjI3Ij5QYWdlLTE8L3RpdGxlPiYjeGE7CTxnIGlkPSJncm91cDQ2NTQtMSI+JiN4YTsJCTx0aXRsZSBpZD0idGl0bGU5OTIyOSI+U3VibmV0czwvdGl0bGU+JiN4YTsJCTxnIGlkPSJzaGFwZTQ2NTUtMiIgdHJhbnNmb3JtPSJ0cmFuc2xhdGUoMjIuNjEzKSI+JiN4YTsJCQk8dGl0bGUgaWQ9InRpdGxlOTkyMzEiPlNoZWV0LjQ2NTU8L3RpdGxlPiYjeGE7CQkJPHBhdGggaWQ9InBhdGg5OTIzMyIgaW5rc2NhcGU6Y29ubmVjdG9yLWN1cnZhdHVyZT0iMCIgc3R5bGU9ImZpbGw6IzM5OTlDNjsiIGQ9Ik0xMi4yMywxMC42OEw5Ljg0LDguMjlMMS4zOSwwTDAsMS4yNmw5LjU4LDkuNDIgICAgIEwwLDIwLjM1bDEuMzksMS4yNmw4LjQ1LTguM0wxMi4yMywxMC42OHoiLz4mI3hhOwkJPC9nPiYjeGE7CQk8ZyBpZD0ic2hhcGU0NjU2LTQiPiYjeGE7CQkJPHRpdGxlIGlkPSJ0aXRsZTk5MjM2Ij5TaGVldC40NjU2PC90aXRsZT4mI3hhOwkJCTxwYXRoIGlkPSJwYXRoOTkyMzgiIGlua3NjYXBlOmNvbm5lY3Rvci1jdXJ2YXR1cmU9IjAiIHN0eWxlPSJmaWxsOiMzOTk5QzY7IiBkPSJNMCwxMC42OGwyLjM5LTIuMzlMMTAuODQsMGwxLjM5LDEuMjYgICAgIGwtOS41OCw5LjQybDkuNTgsOS42N2wtMS4zOSwxLjI2bC04LjQ1LTguM0wwLDEwLjY4eiIvPiYjeGE7CQk8L2c+JiN4YTsJCTxnIGlkPSJzaGFwZTQ2NTctNiIgdHJhbnNmb3JtPSJ0cmFuc2xhdGUoMTQuODY4NSwtOC41MzE5NykiPiYjeGE7CQkJPHRpdGxlIGlkPSJ0aXRsZTk5MjQxIj5TaGVldC40NjU3PC90aXRsZT4mI3hhOwkJCTxwYXRoIGlkPSJwYXRoOTkyNDMiIGlua3NjYXBlOmNvbm5lY3Rvci1jdXJ2YXR1cmU9IjAiIHN0eWxlPSJmaWxsOiM3RkJBMDA7IiBkPSJNNC45MSwxOS4yMWMwLDEuMzgtMS4xMywyLjQtMi4zOSwyLjQgICAgIFMwLDIwLjQ2LDAsMTkuMjFjMC0xLjI2LDEuMTMtMi4zOCwyLjUyLTIuMzhTNC45MSwxNy45NSw0LjkxLDE5LjIxeiIvPiYjeGE7CQk8L2c+JiN4YTsJPC9nPiYjeGE7PC9nPiYjeGE7PC9zdmc+;" vertex="1" parent="1">
          <mxGeometry x="850" y="572" width="35" height="22" as="geometry" />
        </mxCell>
        <mxCell id="iqBsh06_ElT_HYazCzKP-14" value="" style="shape=image;verticalLabelPosition=bottom;labelBackgroundColor=#ffffff;verticalAlign=top;aspect=fixed;imageAspect=0;image=data:image/svg+xml,PHN2ZyB4bWxuczpkYz0iaHR0cDovL3B1cmwub3JnL2RjL2VsZW1lbnRzLzEuMS8iIHhtbG5zOmNjPSJodHRwOi8vY3JlYXRpdmVjb21tb25zLm9yZy9ucyMiIHhtbG5zOnJkZj0iaHR0cDovL3d3dy53My5vcmcvMTk5OS8wMi8yMi1yZGYtc3ludGF4LW5zIyIgeG1sbnM6c3ZnPSJodHRwOi8vd3d3LnczLm9yZy8yMDAwL3N2ZyIgeG1sbnM9Imh0dHA6Ly93d3cudzMub3JnLzIwMDAvc3ZnIiB4bWxuczpzb2RpcG9kaT0iaHR0cDovL3NvZGlwb2RpLnNvdXJjZWZvcmdlLm5ldC9EVEQvc29kaXBvZGktMC5kdGQiIHhtbG5zOmlua3NjYXBlPSJodHRwOi8vd3d3Lmlua3NjYXBlLm9yZy9uYW1lc3BhY2VzL2lua3NjYXBlIiB2ZXJzaW9uPSIxLjEiIGlkPSJzdmcxMDI2NjgiIGlua3NjYXBlOnZlcnNpb249IjAuOTIuMyAoMjQwNTU0NiwgMjAxOC0wMy0xMSkiIHNvZGlwb2RpOmRvY25hbWU9InZwbl9nYXRld2F5LnN2ZyIgeD0iMHB4IiB5PSIwcHgiIHZpZXdCb3g9IjAgMCA4OS42OSAxMDAuMTEiIHhtbDpzcGFjZT0icHJlc2VydmUiIHdpZHRoPSI4OS42OTAwMDIiIGhlaWdodD0iMTAwLjExIj48bWV0YWRhdGEgaWQ9Im1ldGFkYXRhNDMzMSI+PHJkZjpSREY+PGNjOldvcmsgcmRmOmFib3V0PSIiPjxkYzpmb3JtYXQ+aW1hZ2Uvc3ZnK3htbDwvZGM6Zm9ybWF0PjxkYzp0eXBlIHJkZjpyZXNvdXJjZT0iaHR0cDovL3B1cmwub3JnL2RjL2RjbWl0eXBlL1N0aWxsSW1hZ2UiLz48ZGM6dGl0bGUvPjwvY2M6V29yaz48L3JkZjpSREY+PC9tZXRhZGF0YT48ZGVmcyBpZD0iZGVmczQzMjkiPiYjeGE7CSYjeGE7JiN4YTsJJiN4YTsmI3hhOwkmI3hhOyYjeGE7CSYjeGE7JiN4YTsJCSYjeGE7CSYjeGE7CQkmI3hhOwkmI3hhOwkJJiN4YTsJPC9kZWZzPiYjeGE7PGZpbHRlciBpZD0iZmlsdGVyXzIiPiYjeGE7CTxmZUdhdXNzaWFuQmx1ciBpZD0iZmVHYXVzc2lhbkJsdXIxMDI2MjUiIHN0ZERldmlhdGlvbj0iMiIvPiYjeGE7PC9maWx0ZXI+JiN4YTs8c29kaXBvZGk6bmFtZWR2aWV3IGJvcmRlcmNvbG9yPSIjNjY2NjY2IiBib3JkZXJvcGFjaXR5PSIxIiBmaXQtbWFyZ2luLWJvdHRvbT0iMCIgZml0LW1hcmdpbi1sZWZ0PSIwIiBmaXQtbWFyZ2luLXJpZ2h0PSIwIiBmaXQtbWFyZ2luLXRvcD0iMCIgZ3JpZHRvbGVyYW5jZT0iMTAiIGd1aWRldG9sZXJhbmNlPSIxMCIgaWQ9Im5hbWVkdmlldzEwMjY3MCIgaW5rc2NhcGU6Y3VycmVudC1sYXllcj0ic3ZnMTAyNjY4IiBpbmtzY2FwZTpjeD0iLTM3LjI0Njc3NCIgaW5rc2NhcGU6Y3k9IjU0LjQwMjYwMSIgaW5rc2NhcGU6cGFnZW9wYWNpdHk9IjAiIGlua3NjYXBlOnBhZ2VzaGFkb3c9IjIiIGlua3NjYXBlOndpbmRvdy1oZWlnaHQ9IjEwMTciIGlua3NjYXBlOndpbmRvdy1tYXhpbWl6ZWQ9IjEiIGlua3NjYXBlOndpbmRvdy13aWR0aD0iMTkyMCIgaW5rc2NhcGU6d2luZG93LXg9Ii04IiBpbmtzY2FwZTp3aW5kb3cteT0iLTgiIGlua3NjYXBlOnpvb209IjMuNjkwNjE2NCIgb2JqZWN0dG9sZXJhbmNlPSIxMCIgcGFnZWNvbG9yPSIjZmZmZmZmIiBzaG93Z3JpZD0iZmFsc2UiPiYjeGE7CTwvc29kaXBvZGk6bmFtZWR2aWV3PiYjeGE7JiN4YTs8cGF0aCBpZD0icGF0aDEwMjYzOCIgaW5rc2NhcGU6Y29ubmVjdG9yLWN1cnZhdHVyZT0iMCIgc3R5bGU9ImZpbGw6I2EwYTFhMiIgZD0ibSA3OS4wOCwzNy4wNCB2IC00LjQgQyA3OS4wOCwyMy44MyA3NS44OCwxNS42MiA3MC4yNyw5LjgxIDY1LjA3LDMuODEgNTMuNDYsMCA0NC44NSwwIDM2LjI0LDAgMjQuNjIsMy44MSAxOS40Miw5LjgxIDE0LjAxLDE1LjYyIDEwLjYxLDIzLjgzIDEwLjYxLDMyLjY0IHYgNC40IGwgMTUuODIsMS44MSB2IC00LjAxIGMgMCwtNS4yIDEuOCwtMTEuODEgNC44LC0xNS4yMSAzLC0zLjQxIDkuNDEsLTUuMDEgMTMuNjIsLTUuMjEgNC4yLDAgMTAuNjEsMS44IDEzLjYxLDUuMjEgMywzLjQgNC44MSw3LjggNC44MSwxMi44MSB2IDYuNDEgeiIvPiYjeGE7JiN4YTs8cGF0aCBpZD0icGF0aDEwMjY0NiIgaW5rc2NhcGU6Y29ubmVjdG9yLWN1cnZhdHVyZT0iMCIgc3R5bGU9ImZpbGw6IzU5YjRkOSIgZD0iTSAxMC42MSwzNy4wNCBDIDIuOCwzNy4wNCAwLDQxLjY0IDAsNDcuNjUgdiA0MS44NCBjIDAsNS4yMSAzLjIsMTAuNjIgOS4yMSwxMC42MiBoIDcxLjI3IGMgNi44MSwwIDkuMjEsLTUuNDEgOS4yMSwtMTAuNjIgViA0Ny42NSBjIDAsLTUuNDEgLTIuMiwtMTAuNjEgLTEwLjYxLC0xMC42MSB6Ii8+JiN4YTsmI3hhOzxwYXRoIGlkPSJwYXRoMTAyNjU0IiBpbmtzY2FwZTpjb25uZWN0b3ItY3VydmF0dXJlPSIwIiBzdHlsZT0iZmlsbDojZmZmZmZmO2ZpbGwtb3BhY2l0eTowLjE1IiBkPSJNIDYzLjA3LDM3LjA0IEggMTAuNjEgQyAyLjgsMzcuMDQgMCw0MS42NCAwLDQ3LjY1IHYgNDEuODQgYyAwLDUuMjEgMy4yLDEwLjYyIDkuMjEsMTAuNjIgaCAxMy40MSB6Ii8+JiN4YTsmI3hhOzxwYXRoIGlkPSJwYXRoMTAyNjYyIiBpbmtzY2FwZTpjb25uZWN0b3ItY3VydmF0dXJlPSIwIiBzdHlsZT0iZmlsbDojZmZmZmZmIiBkPSJNIDMyLjgzLDU0LjI2IDQ0LjQ0LDQyLjY1IDU2LjA2LDU0LjI2IGggLTguMjEgdiA4LjQxIEggNDAuODQgViA1NC4yNiBaIE0gMTEuNDEsNzEuODggdiAtNi44MSBoIDEyLjAxIHYgLTggTCAzNC42Myw2OC4yOCAyMy40Miw3OS40OSBWIDcxLjY4IEggMTEuNDEgWiBNIDQ0LjQ0LDk0LjUxIDMyLjYzLDgyLjY5IGggOC4yMSB2IC04LjIxIGggNy4wMSB2IDguMjEgaCA4LjQxIHogTSA3Ny40OCw3MS44OCBIIDY1LjQ3IHYgOC4wMSBMIDU0LjA1LDY4LjQ4IDY1LjQ3LDU3LjA3IHYgOCBoIDEyLjAxIHoiLz4mI3hhOzwvc3ZnPg==;" vertex="1" parent="1">
          <mxGeometry x="750" y="370" width="90" height="100" as="geometry" />
        </mxCell>
        <mxCell id="iqBsh06_ElT_HYazCzKP-16" value="Produkt 1 - DEV" style="shape=image;verticalLabelPosition=bottom;labelBackgroundColor=#ffffff;verticalAlign=top;aspect=fixed;imageAspect=0;image=data:image/svg+xml,PHN2ZyB4bWxuczpkYz0iaHR0cDovL3B1cmwub3JnL2RjL2VsZW1lbnRzLzEuMS8iIHhtbG5zOmNjPSJodHRwOi8vY3JlYXRpdmVjb21tb25zLm9yZy9ucyMiIHhtbG5zOnJkZj0iaHR0cDovL3d3dy53My5vcmcvMTk5OS8wMi8yMi1yZGYtc3ludGF4LW5zIyIgeG1sbnM6c3ZnPSJodHRwOi8vd3d3LnczLm9yZy8yMDAwL3N2ZyIgeG1sbnM9Imh0dHA6Ly93d3cudzMub3JnLzIwMDAvc3ZnIiB4bWxuczpzb2RpcG9kaT0iaHR0cDovL3NvZGlwb2RpLnNvdXJjZWZvcmdlLm5ldC9EVEQvc29kaXBvZGktMC5kdGQiIHhtbG5zOmlua3NjYXBlPSJodHRwOi8vd3d3Lmlua3NjYXBlLm9yZy9uYW1lc3BhY2VzL2lua3NjYXBlIiB2ZXJzaW9uPSIxLjEiIGlkPSJzdmcxMDEzMjkiIGlua3NjYXBlOnZlcnNpb249IjAuOTIuMyAoMjQwNTU0NiwgMjAxOC0wMy0xMSkiIHNvZGlwb2RpOmRvY25hbWU9InZpcnR1YWxfbmV0d29ya192bmV0LnN2ZyIgeD0iMHB4IiB5PSIwcHgiIHZpZXdCb3g9IjAgMCAxNDguMTExMyA4NC45MzA2NDgiIHhtbDpzcGFjZT0icHJlc2VydmUiIHdpZHRoPSIxNDguMTExMyIgaGVpZ2h0PSI4NC45MzA2NDkiPjxtZXRhZGF0YSBpZD0ibWV0YWRhdGE0MTk0Ij48cmRmOlJERj48Y2M6V29yayByZGY6YWJvdXQ9IiI+PGRjOmZvcm1hdD5pbWFnZS9zdmcreG1sPC9kYzpmb3JtYXQ+PGRjOnR5cGUgcmRmOnJlc291cmNlPSJodHRwOi8vcHVybC5vcmcvZGMvZGNtaXR5cGUvU3RpbGxJbWFnZSIvPjxkYzp0aXRsZS8+PC9jYzpXb3JrPjwvcmRmOlJERj48L21ldGFkYXRhPjxkZWZzIGlkPSJkZWZzNDE5MiI+JiN4YTsJJiN4YTsmI3hhOwkmI3hhOyYjeGE7CSYjeGE7JiN4YTsJJiN4YTsmI3hhOwkmI3hhOyYjeGE7CQkmI3hhOwkmI3hhOwkJJiN4YTsJJiN4YTsJCSYjeGE7CSYjeGE7CQkmI3hhOwkmI3hhOwkJJiN4YTsJPC9kZWZzPiYjeGE7PGZpbHRlciBpZD0iZmlsdGVyXzIiPiYjeGE7CTxmZUdhdXNzaWFuQmx1ciBpZD0iZmVHYXVzc2lhbkJsdXIxMDEyNzgiIHN0ZERldmlhdGlvbj0iMiIvPiYjeGE7PC9maWx0ZXI+JiN4YTs8c29kaXBvZGk6bmFtZWR2aWV3IGJvcmRlcmNvbG9yPSIjNjY2NjY2IiBib3JkZXJvcGFjaXR5PSIxIiBmaXQtbWFyZ2luLWJvdHRvbT0iMCIgZml0LW1hcmdpbi1sZWZ0PSIwIiBmaXQtbWFyZ2luLXJpZ2h0PSIwIiBmaXQtbWFyZ2luLXRvcD0iMCIgZ3JpZHRvbGVyYW5jZT0iMTAiIGd1aWRldG9sZXJhbmNlPSIxMCIgaWQ9Im5hbWVkdmlldzEwMTMzMSIgaW5rc2NhcGU6Y3VycmVudC1sYXllcj0ic3ZnMTAxMzI5IiBpbmtzY2FwZTpjeD0iNDAuMTgyNTg3IiBpbmtzY2FwZTpjeT0iMTguNTU3ODYzIiBpbmtzY2FwZTpwYWdlb3BhY2l0eT0iMCIgaW5rc2NhcGU6cGFnZXNoYWRvdz0iMiIgaW5rc2NhcGU6d2luZG93LWhlaWdodD0iMTAxNyIgaW5rc2NhcGU6d2luZG93LW1heGltaXplZD0iMSIgaW5rc2NhcGU6d2luZG93LXdpZHRoPSIxOTIwIiBpbmtzY2FwZTp3aW5kb3cteD0iLTgiIGlua3NjYXBlOndpbmRvdy15PSItOCIgaW5rc2NhcGU6em9vbT0iMi45NzE3MDUzIiBvYmplY3R0b2xlcmFuY2U9IjEwIiBwYWdlY29sb3I9IiNmZmZmZmYiIHNob3dncmlkPSJmYWxzZSI+JiN4YTsJPC9zb2RpcG9kaTpuYW1lZHZpZXc+JiN4YTsmI3hhOzxwYXRoIGlkPSJwYXRoMTAxMjkxIiBpbmtzY2FwZTpjb25uZWN0b3ItY3VydmF0dXJlPSIwIiBzdHlsZT0iZmlsbDojMzk5OWM2IiBkPSJtIDE0Ny4xMTA2NSw0NC41OSBjIDEuNDgsLTEuNDggMS4xOCwtMy44NCAwLC01LjMyIGwgLTcuMSwtNy4xIC0zMS45NCwtMzEuMDYgYyAtMS40OCwtMS40OCAtMy41NSwtMS40OCAtNS4wMywwIC0xLjQ4LDEuNDggLTEuNzcsMy44NSAwLDUuMzMgbCAzMy40MiwzMi44MyBjIDEuNDgsMS40OCAxLjQ4LDMuODQgMCw1LjMyIGwgLTM0LjAxLDM0LjAxIGMgLTEuNDgsMS40OCAtMS40OCwzLjg1IDAsNS4zMyAxLjQ4LDEuNDggMy44NCwxLjE4IDUuMDMsMCBsIDMxLjY0LC0zMS4zNSBjIDAsMCAwLDAgMC4zLC0wLjMgeiIvPiYjeGE7JiN4YTs8cGF0aCBpZD0icGF0aDEwMTI5OSIgaW5rc2NhcGU6Y29ubmVjdG9yLWN1cnZhdHVyZT0iMCIgc3R5bGU9ImZpbGw6IzM5OTljNiIgZD0ibSAxLjAwMDY1MjEsNDQuNTkgYyAtMS40OCwtMS40OCAtMS4xOCwtMy44NCAwLC01LjMyIGwgNy4xLC03LjEgTCA0MC4wNDA2NTIsMS4xMSBjIDEuNDgsLTEuNDggMy41NSwtMS40OCA1LjAzLDAgMS40OCwxLjQ4IDEuNzcsMy44NSAwLDUuMzMgbCAtMzIuODMsMzIuODMgYyAtMS40OCwxLjQ4IC0xLjQ4LDMuODQgMCw1LjMyIGwgMzMuNDIsMzQuMDEgYyAxLjQ4LDEuNDggMS40OCwzLjg1IDAsNS4zMyAtMS40OCwxLjQ4IC0zLjg0LDEuMTggLTUuMDMsMCBMIDguMzkwNjUyMSw1Mi44NyBjIDAsMCAwLDAgLTAuMjksLTAuMjkgeiIvPiYjeGE7JiN4YTs8cGF0aCBpZD0icGF0aDEwMTMwNyIgaW5rc2NhcGU6Y29ubmVjdG9yLWN1cnZhdHVyZT0iMCIgc3R5bGU9ImZpbGw6IzdmYmEwMCIgZD0ibSA1My45NDA2NTIsNDEuOTMgYyAwLDUuNjIgLTQuNzMsOS43NiAtOS43Niw5Ljc2IC01LjAzLDAgLTEwLjM1LC00Ljc0IC0xMC4zNSwtOS43NiAwLC01LjAzIDQuMTQsLTkuNzYgMTAuMzUsLTkuNzYgNS45MiwwIDkuNzYsNC43MyA5Ljc2LDkuNzYgeiIvPiYjeGE7JiN4YTs8cGF0aCBpZD0icGF0aDEwMTMxNSIgaW5rc2NhcGU6Y29ubmVjdG9yLWN1cnZhdHVyZT0iMCIgc3R5bGU9ImZpbGw6IzdmYmEwMCIgZD0ibSA4My44MTA2NTIsNDEuOTMgYyAwLDUuNjIgLTQuNzMsOS43NiAtOS43Niw5Ljc2IC01LjAzLDAgLTEwLjM1LC00Ljc0IC0xMC4zNSwtOS43NiAwLC01LjAzIDQuNzMsLTkuNzYgMTAuMzUsLTkuNzYgNS42MiwwIDkuNzYsNC43MyA5Ljc2LDkuNzYgeiIvPiYjeGE7JiN4YTs8Y2lyY2xlIGlkPSJlbGxpcHNlMTAxMzIzIiBzdHlsZT0iZmlsbDojN2ZiYTAwIiBjeD0iMTA0LjIyMDY1IiBjeT0iNDEuOTMiIHI9IjkuNzYwMDAwMiIvPiYjeGE7PC9zdmc+;" vertex="1" parent="1">
          <mxGeometry x="960" y="264" width="69.65" height="40" as="geometry" />
        </mxCell>
        <mxCell id="iqBsh06_ElT_HYazCzKP-18" value="" style="aspect=fixed;html=1;points=[];align=center;image;fontSize=12;image=img/lib/azure2/iot/IoT_Hub.svg;" vertex="1" parent="1">
          <mxGeometry x="148" y="610" width="64" height="64" as="geometry" />
        </mxCell>
        <mxCell id="iqBsh06_ElT_HYazCzKP-19" value="" style="aspect=fixed;html=1;points=[];align=center;image;fontSize=12;image=img/lib/azure2/networking/Private_Link.svg;" vertex="1" parent="1">
          <mxGeometry x="430" y="320" width="72" height="66" as="geometry" />
        </mxCell>
        <mxCell id="iqBsh06_ElT_HYazCzKP-20" value="" style="aspect=fixed;html=1;points=[];align=center;image;fontSize=12;image=img/lib/azure2/networking/Web_Application_Firewall_Policies_WAF.svg;" vertex="1" parent="1">
          <mxGeometry x="339" y="504" width="68" height="68" as="geometry" />
        </mxCell>
        <mxCell id="iqBsh06_ElT_HYazCzKP-21" value="" style="aspect=fixed;html=1;points=[];align=center;image;fontSize=12;image=img/lib/azure2/networking/Virtual_WANs.svg;" vertex="1" parent="1">
          <mxGeometry x="472.5" y="22" width="65" height="64" as="geometry" />
        </mxCell>
        <mxCell id="iqBsh06_ElT_HYazCzKP-22" value="" style="aspect=fixed;html=1;points=[];align=center;image;fontSize=12;image=img/lib/azure2/networking/Azure_Firewall_Manager.svg;" vertex="1" parent="1">
          <mxGeometry x="1020" y="530" width="70" height="60" as="geometry" />
        </mxCell>
        <mxCell id="iqBsh06_ElT_HYazCzKP-23" value="" style="aspect=fixed;html=1;points=[];align=center;image;fontSize=12;image=img/lib/azure2/other/Peering_Service.svg;" vertex="1" parent="1">
          <mxGeometry x="471" y="134" width="68" height="69" as="geometry" />
        </mxCell>
        <mxCell id="iqBsh06_ElT_HYazCzKP-31" value="" style="edgeStyle=orthogonalEdgeStyle;rounded=0;orthogonalLoop=1;jettySize=auto;html=1;" edge="1" parent="1" source="iqBsh06_ElT_HYazCzKP-24" target="iqBsh06_ElT_HYazCzKP-23">
          <mxGeometry relative="1" as="geometry" />
        </mxCell>
        <mxCell id="iqBsh06_ElT_HYazCzKP-24" value="BBHC Core" style="shape=image;verticalLabelPosition=bottom;labelBackgroundColor=#ffffff;verticalAlign=top;aspect=fixed;imageAspect=0;image=data:image/svg+xml,PHN2ZyB4bWxuczpkYz0iaHR0cDovL3B1cmwub3JnL2RjL2VsZW1lbnRzLzEuMS8iIHhtbG5zOmNjPSJodHRwOi8vY3JlYXRpdmVjb21tb25zLm9yZy9ucyMiIHhtbG5zOnJkZj0iaHR0cDovL3d3dy53My5vcmcvMTk5OS8wMi8yMi1yZGYtc3ludGF4LW5zIyIgeG1sbnM6c3ZnPSJodHRwOi8vd3d3LnczLm9yZy8yMDAwL3N2ZyIgeG1sbnM9Imh0dHA6Ly93d3cudzMub3JnLzIwMDAvc3ZnIiB4bWxuczpzb2RpcG9kaT0iaHR0cDovL3NvZGlwb2RpLnNvdXJjZWZvcmdlLm5ldC9EVEQvc29kaXBvZGktMC5kdGQiIHhtbG5zOmlua3NjYXBlPSJodHRwOi8vd3d3Lmlua3NjYXBlLm9yZy9uYW1lc3BhY2VzL2lua3NjYXBlIiB2ZXJzaW9uPSIxLjEiIGlkPSJzdmcxMDEzMjkiIGlua3NjYXBlOnZlcnNpb249IjAuOTIuMyAoMjQwNTU0NiwgMjAxOC0wMy0xMSkiIHNvZGlwb2RpOmRvY25hbWU9InZpcnR1YWxfbmV0d29ya192bmV0LnN2ZyIgeD0iMHB4IiB5PSIwcHgiIHZpZXdCb3g9IjAgMCAxNDguMTExMyA4NC45MzA2NDgiIHhtbDpzcGFjZT0icHJlc2VydmUiIHdpZHRoPSIxNDguMTExMyIgaGVpZ2h0PSI4NC45MzA2NDkiPjxtZXRhZGF0YSBpZD0ibWV0YWRhdGE0MTk0Ij48cmRmOlJERj48Y2M6V29yayByZGY6YWJvdXQ9IiI+PGRjOmZvcm1hdD5pbWFnZS9zdmcreG1sPC9kYzpmb3JtYXQ+PGRjOnR5cGUgcmRmOnJlc291cmNlPSJodHRwOi8vcHVybC5vcmcvZGMvZGNtaXR5cGUvU3RpbGxJbWFnZSIvPjxkYzp0aXRsZS8+PC9jYzpXb3JrPjwvcmRmOlJERj48L21ldGFkYXRhPjxkZWZzIGlkPSJkZWZzNDE5MiI+JiN4YTsJJiN4YTsmI3hhOwkmI3hhOyYjeGE7CSYjeGE7JiN4YTsJJiN4YTsmI3hhOwkmI3hhOyYjeGE7CQkmI3hhOwkmI3hhOwkJJiN4YTsJJiN4YTsJCSYjeGE7CSYjeGE7CQkmI3hhOwkmI3hhOwkJJiN4YTsJPC9kZWZzPiYjeGE7PGZpbHRlciBpZD0iZmlsdGVyXzIiPiYjeGE7CTxmZUdhdXNzaWFuQmx1ciBpZD0iZmVHYXVzc2lhbkJsdXIxMDEyNzgiIHN0ZERldmlhdGlvbj0iMiIvPiYjeGE7PC9maWx0ZXI+JiN4YTs8c29kaXBvZGk6bmFtZWR2aWV3IGJvcmRlcmNvbG9yPSIjNjY2NjY2IiBib3JkZXJvcGFjaXR5PSIxIiBmaXQtbWFyZ2luLWJvdHRvbT0iMCIgZml0LW1hcmdpbi1sZWZ0PSIwIiBmaXQtbWFyZ2luLXJpZ2h0PSIwIiBmaXQtbWFyZ2luLXRvcD0iMCIgZ3JpZHRvbGVyYW5jZT0iMTAiIGd1aWRldG9sZXJhbmNlPSIxMCIgaWQ9Im5hbWVkdmlldzEwMTMzMSIgaW5rc2NhcGU6Y3VycmVudC1sYXllcj0ic3ZnMTAxMzI5IiBpbmtzY2FwZTpjeD0iNDAuMTgyNTg3IiBpbmtzY2FwZTpjeT0iMTguNTU3ODYzIiBpbmtzY2FwZTpwYWdlb3BhY2l0eT0iMCIgaW5rc2NhcGU6cGFnZXNoYWRvdz0iMiIgaW5rc2NhcGU6d2luZG93LWhlaWdodD0iMTAxNyIgaW5rc2NhcGU6d2luZG93LW1heGltaXplZD0iMSIgaW5rc2NhcGU6d2luZG93LXdpZHRoPSIxOTIwIiBpbmtzY2FwZTp3aW5kb3cteD0iLTgiIGlua3NjYXBlOndpbmRvdy15PSItOCIgaW5rc2NhcGU6em9vbT0iMi45NzE3MDUzIiBvYmplY3R0b2xlcmFuY2U9IjEwIiBwYWdlY29sb3I9IiNmZmZmZmYiIHNob3dncmlkPSJmYWxzZSI+JiN4YTsJPC9zb2RpcG9kaTpuYW1lZHZpZXc+JiN4YTsmI3hhOzxwYXRoIGlkPSJwYXRoMTAxMjkxIiBpbmtzY2FwZTpjb25uZWN0b3ItY3VydmF0dXJlPSIwIiBzdHlsZT0iZmlsbDojMzk5OWM2IiBkPSJtIDE0Ny4xMTA2NSw0NC41OSBjIDEuNDgsLTEuNDggMS4xOCwtMy44NCAwLC01LjMyIGwgLTcuMSwtNy4xIC0zMS45NCwtMzEuMDYgYyAtMS40OCwtMS40OCAtMy41NSwtMS40OCAtNS4wMywwIC0xLjQ4LDEuNDggLTEuNzcsMy44NSAwLDUuMzMgbCAzMy40MiwzMi44MyBjIDEuNDgsMS40OCAxLjQ4LDMuODQgMCw1LjMyIGwgLTM0LjAxLDM0LjAxIGMgLTEuNDgsMS40OCAtMS40OCwzLjg1IDAsNS4zMyAxLjQ4LDEuNDggMy44NCwxLjE4IDUuMDMsMCBsIDMxLjY0LC0zMS4zNSBjIDAsMCAwLDAgMC4zLC0wLjMgeiIvPiYjeGE7JiN4YTs8cGF0aCBpZD0icGF0aDEwMTI5OSIgaW5rc2NhcGU6Y29ubmVjdG9yLWN1cnZhdHVyZT0iMCIgc3R5bGU9ImZpbGw6IzM5OTljNiIgZD0ibSAxLjAwMDY1MjEsNDQuNTkgYyAtMS40OCwtMS40OCAtMS4xOCwtMy44NCAwLC01LjMyIGwgNy4xLC03LjEgTCA0MC4wNDA2NTIsMS4xMSBjIDEuNDgsLTEuNDggMy41NSwtMS40OCA1LjAzLDAgMS40OCwxLjQ4IDEuNzcsMy44NSAwLDUuMzMgbCAtMzIuODMsMzIuODMgYyAtMS40OCwxLjQ4IC0xLjQ4LDMuODQgMCw1LjMyIGwgMzMuNDIsMzQuMDEgYyAxLjQ4LDEuNDggMS40OCwzLjg1IDAsNS4zMyAtMS40OCwxLjQ4IC0zLjg0LDEuMTggLTUuMDMsMCBMIDguMzkwNjUyMSw1Mi44NyBjIDAsMCAwLDAgLTAuMjksLTAuMjkgeiIvPiYjeGE7JiN4YTs8cGF0aCBpZD0icGF0aDEwMTMwNyIgaW5rc2NhcGU6Y29ubmVjdG9yLWN1cnZhdHVyZT0iMCIgc3R5bGU9ImZpbGw6IzdmYmEwMCIgZD0ibSA1My45NDA2NTIsNDEuOTMgYyAwLDUuNjIgLTQuNzMsOS43NiAtOS43Niw5Ljc2IC01LjAzLDAgLTEwLjM1LC00Ljc0IC0xMC4zNSwtOS43NiAwLC01LjAzIDQuMTQsLTkuNzYgMTAuMzUsLTkuNzYgNS45MiwwIDkuNzYsNC43MyA5Ljc2LDkuNzYgeiIvPiYjeGE7JiN4YTs8cGF0aCBpZD0icGF0aDEwMTMxNSIgaW5rc2NhcGU6Y29ubmVjdG9yLWN1cnZhdHVyZT0iMCIgc3R5bGU9ImZpbGw6IzdmYmEwMCIgZD0ibSA4My44MTA2NTIsNDEuOTMgYyAwLDUuNjIgLTQuNzMsOS43NiAtOS43Niw5Ljc2IC01LjAzLDAgLTEwLjM1LC00Ljc0IC0xMC4zNSwtOS43NiAwLC01LjAzIDQuNzMsLTkuNzYgMTAuMzUsLTkuNzYgNS42MiwwIDkuNzYsNC43MyA5Ljc2LDkuNzYgeiIvPiYjeGE7JiN4YTs8Y2lyY2xlIGlkPSJlbGxpcHNlMTAxMzIzIiBzdHlsZT0iZmlsbDojN2ZiYTAwIiBjeD0iMTA0LjIyMDY1IiBjeT0iNDEuOTMiIHI9IjkuNzYwMDAwMiIvPiYjeGE7PC9zdmc+;" vertex="1" parent="1">
          <mxGeometry x="300" y="148.5" width="69.65" height="40" as="geometry" />
        </mxCell>
        <mxCell id="iqBsh06_ElT_HYazCzKP-25" value="Produkt 1 - SBX" style="shape=image;verticalLabelPosition=bottom;labelBackgroundColor=#ffffff;verticalAlign=top;aspect=fixed;imageAspect=0;image=data:image/svg+xml,PHN2ZyB4bWxuczpkYz0iaHR0cDovL3B1cmwub3JnL2RjL2VsZW1lbnRzLzEuMS8iIHhtbG5zOmNjPSJodHRwOi8vY3JlYXRpdmVjb21tb25zLm9yZy9ucyMiIHhtbG5zOnJkZj0iaHR0cDovL3d3dy53My5vcmcvMTk5OS8wMi8yMi1yZGYtc3ludGF4LW5zIyIgeG1sbnM6c3ZnPSJodHRwOi8vd3d3LnczLm9yZy8yMDAwL3N2ZyIgeG1sbnM9Imh0dHA6Ly93d3cudzMub3JnLzIwMDAvc3ZnIiB4bWxuczpzb2RpcG9kaT0iaHR0cDovL3NvZGlwb2RpLnNvdXJjZWZvcmdlLm5ldC9EVEQvc29kaXBvZGktMC5kdGQiIHhtbG5zOmlua3NjYXBlPSJodHRwOi8vd3d3Lmlua3NjYXBlLm9yZy9uYW1lc3BhY2VzL2lua3NjYXBlIiB2ZXJzaW9uPSIxLjEiIGlkPSJzdmcxMDEzMjkiIGlua3NjYXBlOnZlcnNpb249IjAuOTIuMyAoMjQwNTU0NiwgMjAxOC0wMy0xMSkiIHNvZGlwb2RpOmRvY25hbWU9InZpcnR1YWxfbmV0d29ya192bmV0LnN2ZyIgeD0iMHB4IiB5PSIwcHgiIHZpZXdCb3g9IjAgMCAxNDguMTExMyA4NC45MzA2NDgiIHhtbDpzcGFjZT0icHJlc2VydmUiIHdpZHRoPSIxNDguMTExMyIgaGVpZ2h0PSI4NC45MzA2NDkiPjxtZXRhZGF0YSBpZD0ibWV0YWRhdGE0MTk0Ij48cmRmOlJERj48Y2M6V29yayByZGY6YWJvdXQ9IiI+PGRjOmZvcm1hdD5pbWFnZS9zdmcreG1sPC9kYzpmb3JtYXQ+PGRjOnR5cGUgcmRmOnJlc291cmNlPSJodHRwOi8vcHVybC5vcmcvZGMvZGNtaXR5cGUvU3RpbGxJbWFnZSIvPjxkYzp0aXRsZS8+PC9jYzpXb3JrPjwvcmRmOlJERj48L21ldGFkYXRhPjxkZWZzIGlkPSJkZWZzNDE5MiI+JiN4YTsJJiN4YTsmI3hhOwkmI3hhOyYjeGE7CSYjeGE7JiN4YTsJJiN4YTsmI3hhOwkmI3hhOyYjeGE7CQkmI3hhOwkmI3hhOwkJJiN4YTsJJiN4YTsJCSYjeGE7CSYjeGE7CQkmI3hhOwkmI3hhOwkJJiN4YTsJPC9kZWZzPiYjeGE7PGZpbHRlciBpZD0iZmlsdGVyXzIiPiYjeGE7CTxmZUdhdXNzaWFuQmx1ciBpZD0iZmVHYXVzc2lhbkJsdXIxMDEyNzgiIHN0ZERldmlhdGlvbj0iMiIvPiYjeGE7PC9maWx0ZXI+JiN4YTs8c29kaXBvZGk6bmFtZWR2aWV3IGJvcmRlcmNvbG9yPSIjNjY2NjY2IiBib3JkZXJvcGFjaXR5PSIxIiBmaXQtbWFyZ2luLWJvdHRvbT0iMCIgZml0LW1hcmdpbi1sZWZ0PSIwIiBmaXQtbWFyZ2luLXJpZ2h0PSIwIiBmaXQtbWFyZ2luLXRvcD0iMCIgZ3JpZHRvbGVyYW5jZT0iMTAiIGd1aWRldG9sZXJhbmNlPSIxMCIgaWQ9Im5hbWVkdmlldzEwMTMzMSIgaW5rc2NhcGU6Y3VycmVudC1sYXllcj0ic3ZnMTAxMzI5IiBpbmtzY2FwZTpjeD0iNDAuMTgyNTg3IiBpbmtzY2FwZTpjeT0iMTguNTU3ODYzIiBpbmtzY2FwZTpwYWdlb3BhY2l0eT0iMCIgaW5rc2NhcGU6cGFnZXNoYWRvdz0iMiIgaW5rc2NhcGU6d2luZG93LWhlaWdodD0iMTAxNyIgaW5rc2NhcGU6d2luZG93LW1heGltaXplZD0iMSIgaW5rc2NhcGU6d2luZG93LXdpZHRoPSIxOTIwIiBpbmtzY2FwZTp3aW5kb3cteD0iLTgiIGlua3NjYXBlOndpbmRvdy15PSItOCIgaW5rc2NhcGU6em9vbT0iMi45NzE3MDUzIiBvYmplY3R0b2xlcmFuY2U9IjEwIiBwYWdlY29sb3I9IiNmZmZmZmYiIHNob3dncmlkPSJmYWxzZSI+JiN4YTsJPC9zb2RpcG9kaTpuYW1lZHZpZXc+JiN4YTsmI3hhOzxwYXRoIGlkPSJwYXRoMTAxMjkxIiBpbmtzY2FwZTpjb25uZWN0b3ItY3VydmF0dXJlPSIwIiBzdHlsZT0iZmlsbDojMzk5OWM2IiBkPSJtIDE0Ny4xMTA2NSw0NC41OSBjIDEuNDgsLTEuNDggMS4xOCwtMy44NCAwLC01LjMyIGwgLTcuMSwtNy4xIC0zMS45NCwtMzEuMDYgYyAtMS40OCwtMS40OCAtMy41NSwtMS40OCAtNS4wMywwIC0xLjQ4LDEuNDggLTEuNzcsMy44NSAwLDUuMzMgbCAzMy40MiwzMi44MyBjIDEuNDgsMS40OCAxLjQ4LDMuODQgMCw1LjMyIGwgLTM0LjAxLDM0LjAxIGMgLTEuNDgsMS40OCAtMS40OCwzLjg1IDAsNS4zMyAxLjQ4LDEuNDggMy44NCwxLjE4IDUuMDMsMCBsIDMxLjY0LC0zMS4zNSBjIDAsMCAwLDAgMC4zLC0wLjMgeiIvPiYjeGE7JiN4YTs8cGF0aCBpZD0icGF0aDEwMTI5OSIgaW5rc2NhcGU6Y29ubmVjdG9yLWN1cnZhdHVyZT0iMCIgc3R5bGU9ImZpbGw6IzM5OTljNiIgZD0ibSAxLjAwMDY1MjEsNDQuNTkgYyAtMS40OCwtMS40OCAtMS4xOCwtMy44NCAwLC01LjMyIGwgNy4xLC03LjEgTCA0MC4wNDA2NTIsMS4xMSBjIDEuNDgsLTEuNDggMy41NSwtMS40OCA1LjAzLDAgMS40OCwxLjQ4IDEuNzcsMy44NSAwLDUuMzMgbCAtMzIuODMsMzIuODMgYyAtMS40OCwxLjQ4IC0xLjQ4LDMuODQgMCw1LjMyIGwgMzMuNDIsMzQuMDEgYyAxLjQ4LDEuNDggMS40OCwzLjg1IDAsNS4zMyAtMS40OCwxLjQ4IC0zLjg0LDEuMTggLTUuMDMsMCBMIDguMzkwNjUyMSw1Mi44NyBjIDAsMCAwLDAgLTAuMjksLTAuMjkgeiIvPiYjeGE7JiN4YTs8cGF0aCBpZD0icGF0aDEwMTMwNyIgaW5rc2NhcGU6Y29ubmVjdG9yLWN1cnZhdHVyZT0iMCIgc3R5bGU9ImZpbGw6IzdmYmEwMCIgZD0ibSA1My45NDA2NTIsNDEuOTMgYyAwLDUuNjIgLTQuNzMsOS43NiAtOS43Niw5Ljc2IC01LjAzLDAgLTEwLjM1LC00Ljc0IC0xMC4zNSwtOS43NiAwLC01LjAzIDQuMTQsLTkuNzYgMTAuMzUsLTkuNzYgNS45MiwwIDkuNzYsNC43MyA5Ljc2LDkuNzYgeiIvPiYjeGE7JiN4YTs8cGF0aCBpZD0icGF0aDEwMTMxNSIgaW5rc2NhcGU6Y29ubmVjdG9yLWN1cnZhdHVyZT0iMCIgc3R5bGU9ImZpbGw6IzdmYmEwMCIgZD0ibSA4My44MTA2NTIsNDEuOTMgYyAwLDUuNjIgLTQuNzMsOS43NiAtOS43Niw5Ljc2IC01LjAzLDAgLTEwLjM1LC00Ljc0IC0xMC4zNSwtOS43NiAwLC01LjAzIDQuNzMsLTkuNzYgMTAuMzUsLTkuNzYgNS42MiwwIDkuNzYsNC43MyA5Ljc2LDkuNzYgeiIvPiYjeGE7JiN4YTs8Y2lyY2xlIGlkPSJlbGxpcHNlMTAxMzIzIiBzdHlsZT0iZmlsbDojN2ZiYTAwIiBjeD0iMTA0LjIyMDY1IiBjeT0iNDEuOTMiIHI9IjkuNzYwMDAwMiIvPiYjeGE7PC9zdmc+;" vertex="1" parent="1">
          <mxGeometry x="960" y="324" width="69.65" height="40" as="geometry" />
        </mxCell>
        <mxCell id="iqBsh06_ElT_HYazCzKP-27" value="Produkt 1 - QAS" style="shape=image;verticalLabelPosition=bottom;labelBackgroundColor=#ffffff;verticalAlign=top;aspect=fixed;imageAspect=0;image=data:image/svg+xml,PHN2ZyB4bWxuczpkYz0iaHR0cDovL3B1cmwub3JnL2RjL2VsZW1lbnRzLzEuMS8iIHhtbG5zOmNjPSJodHRwOi8vY3JlYXRpdmVjb21tb25zLm9yZy9ucyMiIHhtbG5zOnJkZj0iaHR0cDovL3d3dy53My5vcmcvMTk5OS8wMi8yMi1yZGYtc3ludGF4LW5zIyIgeG1sbnM6c3ZnPSJodHRwOi8vd3d3LnczLm9yZy8yMDAwL3N2ZyIgeG1sbnM9Imh0dHA6Ly93d3cudzMub3JnLzIwMDAvc3ZnIiB4bWxuczpzb2RpcG9kaT0iaHR0cDovL3NvZGlwb2RpLnNvdXJjZWZvcmdlLm5ldC9EVEQvc29kaXBvZGktMC5kdGQiIHhtbG5zOmlua3NjYXBlPSJodHRwOi8vd3d3Lmlua3NjYXBlLm9yZy9uYW1lc3BhY2VzL2lua3NjYXBlIiB2ZXJzaW9uPSIxLjEiIGlkPSJzdmcxMDEzMjkiIGlua3NjYXBlOnZlcnNpb249IjAuOTIuMyAoMjQwNTU0NiwgMjAxOC0wMy0xMSkiIHNvZGlwb2RpOmRvY25hbWU9InZpcnR1YWxfbmV0d29ya192bmV0LnN2ZyIgeD0iMHB4IiB5PSIwcHgiIHZpZXdCb3g9IjAgMCAxNDguMTExMyA4NC45MzA2NDgiIHhtbDpzcGFjZT0icHJlc2VydmUiIHdpZHRoPSIxNDguMTExMyIgaGVpZ2h0PSI4NC45MzA2NDkiPjxtZXRhZGF0YSBpZD0ibWV0YWRhdGE0MTk0Ij48cmRmOlJERj48Y2M6V29yayByZGY6YWJvdXQ9IiI+PGRjOmZvcm1hdD5pbWFnZS9zdmcreG1sPC9kYzpmb3JtYXQ+PGRjOnR5cGUgcmRmOnJlc291cmNlPSJodHRwOi8vcHVybC5vcmcvZGMvZGNtaXR5cGUvU3RpbGxJbWFnZSIvPjxkYzp0aXRsZS8+PC9jYzpXb3JrPjwvcmRmOlJERj48L21ldGFkYXRhPjxkZWZzIGlkPSJkZWZzNDE5MiI+JiN4YTsJJiN4YTsmI3hhOwkmI3hhOyYjeGE7CSYjeGE7JiN4YTsJJiN4YTsmI3hhOwkmI3hhOyYjeGE7CQkmI3hhOwkmI3hhOwkJJiN4YTsJJiN4YTsJCSYjeGE7CSYjeGE7CQkmI3hhOwkmI3hhOwkJJiN4YTsJPC9kZWZzPiYjeGE7PGZpbHRlciBpZD0iZmlsdGVyXzIiPiYjeGE7CTxmZUdhdXNzaWFuQmx1ciBpZD0iZmVHYXVzc2lhbkJsdXIxMDEyNzgiIHN0ZERldmlhdGlvbj0iMiIvPiYjeGE7PC9maWx0ZXI+JiN4YTs8c29kaXBvZGk6bmFtZWR2aWV3IGJvcmRlcmNvbG9yPSIjNjY2NjY2IiBib3JkZXJvcGFjaXR5PSIxIiBmaXQtbWFyZ2luLWJvdHRvbT0iMCIgZml0LW1hcmdpbi1sZWZ0PSIwIiBmaXQtbWFyZ2luLXJpZ2h0PSIwIiBmaXQtbWFyZ2luLXRvcD0iMCIgZ3JpZHRvbGVyYW5jZT0iMTAiIGd1aWRldG9sZXJhbmNlPSIxMCIgaWQ9Im5hbWVkdmlldzEwMTMzMSIgaW5rc2NhcGU6Y3VycmVudC1sYXllcj0ic3ZnMTAxMzI5IiBpbmtzY2FwZTpjeD0iNDAuMTgyNTg3IiBpbmtzY2FwZTpjeT0iMTguNTU3ODYzIiBpbmtzY2FwZTpwYWdlb3BhY2l0eT0iMCIgaW5rc2NhcGU6cGFnZXNoYWRvdz0iMiIgaW5rc2NhcGU6d2luZG93LWhlaWdodD0iMTAxNyIgaW5rc2NhcGU6d2luZG93LW1heGltaXplZD0iMSIgaW5rc2NhcGU6d2luZG93LXdpZHRoPSIxOTIwIiBpbmtzY2FwZTp3aW5kb3cteD0iLTgiIGlua3NjYXBlOndpbmRvdy15PSItOCIgaW5rc2NhcGU6em9vbT0iMi45NzE3MDUzIiBvYmplY3R0b2xlcmFuY2U9IjEwIiBwYWdlY29sb3I9IiNmZmZmZmYiIHNob3dncmlkPSJmYWxzZSI+JiN4YTsJPC9zb2RpcG9kaTpuYW1lZHZpZXc+JiN4YTsmI3hhOzxwYXRoIGlkPSJwYXRoMTAxMjkxIiBpbmtzY2FwZTpjb25uZWN0b3ItY3VydmF0dXJlPSIwIiBzdHlsZT0iZmlsbDojMzk5OWM2IiBkPSJtIDE0Ny4xMTA2NSw0NC41OSBjIDEuNDgsLTEuNDggMS4xOCwtMy44NCAwLC01LjMyIGwgLTcuMSwtNy4xIC0zMS45NCwtMzEuMDYgYyAtMS40OCwtMS40OCAtMy41NSwtMS40OCAtNS4wMywwIC0xLjQ4LDEuNDggLTEuNzcsMy44NSAwLDUuMzMgbCAzMy40MiwzMi44MyBjIDEuNDgsMS40OCAxLjQ4LDMuODQgMCw1LjMyIGwgLTM0LjAxLDM0LjAxIGMgLTEuNDgsMS40OCAtMS40OCwzLjg1IDAsNS4zMyAxLjQ4LDEuNDggMy44NCwxLjE4IDUuMDMsMCBsIDMxLjY0LC0zMS4zNSBjIDAsMCAwLDAgMC4zLC0wLjMgeiIvPiYjeGE7JiN4YTs8cGF0aCBpZD0icGF0aDEwMTI5OSIgaW5rc2NhcGU6Y29ubmVjdG9yLWN1cnZhdHVyZT0iMCIgc3R5bGU9ImZpbGw6IzM5OTljNiIgZD0ibSAxLjAwMDY1MjEsNDQuNTkgYyAtMS40OCwtMS40OCAtMS4xOCwtMy44NCAwLC01LjMyIGwgNy4xLC03LjEgTCA0MC4wNDA2NTIsMS4xMSBjIDEuNDgsLTEuNDggMy41NSwtMS40OCA1LjAzLDAgMS40OCwxLjQ4IDEuNzcsMy44NSAwLDUuMzMgbCAtMzIuODMsMzIuODMgYyAtMS40OCwxLjQ4IC0xLjQ4LDMuODQgMCw1LjMyIGwgMzMuNDIsMzQuMDEgYyAxLjQ4LDEuNDggMS40OCwzLjg1IDAsNS4zMyAtMS40OCwxLjQ4IC0zLjg0LDEuMTggLTUuMDMsMCBMIDguMzkwNjUyMSw1Mi44NyBjIDAsMCAwLDAgLTAuMjksLTAuMjkgeiIvPiYjeGE7JiN4YTs8cGF0aCBpZD0icGF0aDEwMTMwNyIgaW5rc2NhcGU6Y29ubmVjdG9yLWN1cnZhdHVyZT0iMCIgc3R5bGU9ImZpbGw6IzdmYmEwMCIgZD0ibSA1My45NDA2NTIsNDEuOTMgYyAwLDUuNjIgLTQuNzMsOS43NiAtOS43Niw5Ljc2IC01LjAzLDAgLTEwLjM1LC00Ljc0IC0xMC4zNSwtOS43NiAwLC01LjAzIDQuMTQsLTkuNzYgMTAuMzUsLTkuNzYgNS45MiwwIDkuNzYsNC43MyA5Ljc2LDkuNzYgeiIvPiYjeGE7JiN4YTs8cGF0aCBpZD0icGF0aDEwMTMxNSIgaW5rc2NhcGU6Y29ubmVjdG9yLWN1cnZhdHVyZT0iMCIgc3R5bGU9ImZpbGw6IzdmYmEwMCIgZD0ibSA4My44MTA2NTIsNDEuOTMgYyAwLDUuNjIgLTQuNzMsOS43NiAtOS43Niw5Ljc2IC01LjAzLDAgLTEwLjM1LC00Ljc0IC0xMC4zNSwtOS43NiAwLC01LjAzIDQuNzMsLTkuNzYgMTAuMzUsLTkuNzYgNS42MiwwIDkuNzYsNC43MyA5Ljc2LDkuNzYgeiIvPiYjeGE7JiN4YTs8Y2lyY2xlIGlkPSJlbGxpcHNlMTAxMzIzIiBzdHlsZT0iZmlsbDojN2ZiYTAwIiBjeD0iMTA0LjIyMDY1IiBjeT0iNDEuOTMiIHI9IjkuNzYwMDAwMiIvPiYjeGE7PC9zdmc+;" vertex="1" parent="1">
          <mxGeometry x="960" y="203" width="69.65" height="40" as="geometry" />
        </mxCell>
        <mxCell id="iqBsh06_ElT_HYazCzKP-28" value="Produkt 1 - PRD" style="shape=image;verticalLabelPosition=bottom;labelBackgroundColor=#ffffff;verticalAlign=top;aspect=fixed;imageAspect=0;image=data:image/svg+xml,PHN2ZyB4bWxuczpkYz0iaHR0cDovL3B1cmwub3JnL2RjL2VsZW1lbnRzLzEuMS8iIHhtbG5zOmNjPSJodHRwOi8vY3JlYXRpdmVjb21tb25zLm9yZy9ucyMiIHhtbG5zOnJkZj0iaHR0cDovL3d3dy53My5vcmcvMTk5OS8wMi8yMi1yZGYtc3ludGF4LW5zIyIgeG1sbnM6c3ZnPSJodHRwOi8vd3d3LnczLm9yZy8yMDAwL3N2ZyIgeG1sbnM9Imh0dHA6Ly93d3cudzMub3JnLzIwMDAvc3ZnIiB4bWxuczpzb2RpcG9kaT0iaHR0cDovL3NvZGlwb2RpLnNvdXJjZWZvcmdlLm5ldC9EVEQvc29kaXBvZGktMC5kdGQiIHhtbG5zOmlua3NjYXBlPSJodHRwOi8vd3d3Lmlua3NjYXBlLm9yZy9uYW1lc3BhY2VzL2lua3NjYXBlIiB2ZXJzaW9uPSIxLjEiIGlkPSJzdmcxMDEzMjkiIGlua3NjYXBlOnZlcnNpb249IjAuOTIuMyAoMjQwNTU0NiwgMjAxOC0wMy0xMSkiIHNvZGlwb2RpOmRvY25hbWU9InZpcnR1YWxfbmV0d29ya192bmV0LnN2ZyIgeD0iMHB4IiB5PSIwcHgiIHZpZXdCb3g9IjAgMCAxNDguMTExMyA4NC45MzA2NDgiIHhtbDpzcGFjZT0icHJlc2VydmUiIHdpZHRoPSIxNDguMTExMyIgaGVpZ2h0PSI4NC45MzA2NDkiPjxtZXRhZGF0YSBpZD0ibWV0YWRhdGE0MTk0Ij48cmRmOlJERj48Y2M6V29yayByZGY6YWJvdXQ9IiI+PGRjOmZvcm1hdD5pbWFnZS9zdmcreG1sPC9kYzpmb3JtYXQ+PGRjOnR5cGUgcmRmOnJlc291cmNlPSJodHRwOi8vcHVybC5vcmcvZGMvZGNtaXR5cGUvU3RpbGxJbWFnZSIvPjxkYzp0aXRsZS8+PC9jYzpXb3JrPjwvcmRmOlJERj48L21ldGFkYXRhPjxkZWZzIGlkPSJkZWZzNDE5MiI+JiN4YTsJJiN4YTsmI3hhOwkmI3hhOyYjeGE7CSYjeGE7JiN4YTsJJiN4YTsmI3hhOwkmI3hhOyYjeGE7CQkmI3hhOwkmI3hhOwkJJiN4YTsJJiN4YTsJCSYjeGE7CSYjeGE7CQkmI3hhOwkmI3hhOwkJJiN4YTsJPC9kZWZzPiYjeGE7PGZpbHRlciBpZD0iZmlsdGVyXzIiPiYjeGE7CTxmZUdhdXNzaWFuQmx1ciBpZD0iZmVHYXVzc2lhbkJsdXIxMDEyNzgiIHN0ZERldmlhdGlvbj0iMiIvPiYjeGE7PC9maWx0ZXI+JiN4YTs8c29kaXBvZGk6bmFtZWR2aWV3IGJvcmRlcmNvbG9yPSIjNjY2NjY2IiBib3JkZXJvcGFjaXR5PSIxIiBmaXQtbWFyZ2luLWJvdHRvbT0iMCIgZml0LW1hcmdpbi1sZWZ0PSIwIiBmaXQtbWFyZ2luLXJpZ2h0PSIwIiBmaXQtbWFyZ2luLXRvcD0iMCIgZ3JpZHRvbGVyYW5jZT0iMTAiIGd1aWRldG9sZXJhbmNlPSIxMCIgaWQ9Im5hbWVkdmlldzEwMTMzMSIgaW5rc2NhcGU6Y3VycmVudC1sYXllcj0ic3ZnMTAxMzI5IiBpbmtzY2FwZTpjeD0iNDAuMTgyNTg3IiBpbmtzY2FwZTpjeT0iMTguNTU3ODYzIiBpbmtzY2FwZTpwYWdlb3BhY2l0eT0iMCIgaW5rc2NhcGU6cGFnZXNoYWRvdz0iMiIgaW5rc2NhcGU6d2luZG93LWhlaWdodD0iMTAxNyIgaW5rc2NhcGU6d2luZG93LW1heGltaXplZD0iMSIgaW5rc2NhcGU6d2luZG93LXdpZHRoPSIxOTIwIiBpbmtzY2FwZTp3aW5kb3cteD0iLTgiIGlua3NjYXBlOndpbmRvdy15PSItOCIgaW5rc2NhcGU6em9vbT0iMi45NzE3MDUzIiBvYmplY3R0b2xlcmFuY2U9IjEwIiBwYWdlY29sb3I9IiNmZmZmZmYiIHNob3dncmlkPSJmYWxzZSI+JiN4YTsJPC9zb2RpcG9kaTpuYW1lZHZpZXc+JiN4YTsmI3hhOzxwYXRoIGlkPSJwYXRoMTAxMjkxIiBpbmtzY2FwZTpjb25uZWN0b3ItY3VydmF0dXJlPSIwIiBzdHlsZT0iZmlsbDojMzk5OWM2IiBkPSJtIDE0Ny4xMTA2NSw0NC41OSBjIDEuNDgsLTEuNDggMS4xOCwtMy44NCAwLC01LjMyIGwgLTcuMSwtNy4xIC0zMS45NCwtMzEuMDYgYyAtMS40OCwtMS40OCAtMy41NSwtMS40OCAtNS4wMywwIC0xLjQ4LDEuNDggLTEuNzcsMy44NSAwLDUuMzMgbCAzMy40MiwzMi44MyBjIDEuNDgsMS40OCAxLjQ4LDMuODQgMCw1LjMyIGwgLTM0LjAxLDM0LjAxIGMgLTEuNDgsMS40OCAtMS40OCwzLjg1IDAsNS4zMyAxLjQ4LDEuNDggMy44NCwxLjE4IDUuMDMsMCBsIDMxLjY0LC0zMS4zNSBjIDAsMCAwLDAgMC4zLC0wLjMgeiIvPiYjeGE7JiN4YTs8cGF0aCBpZD0icGF0aDEwMTI5OSIgaW5rc2NhcGU6Y29ubmVjdG9yLWN1cnZhdHVyZT0iMCIgc3R5bGU9ImZpbGw6IzM5OTljNiIgZD0ibSAxLjAwMDY1MjEsNDQuNTkgYyAtMS40OCwtMS40OCAtMS4xOCwtMy44NCAwLC01LjMyIGwgNy4xLC03LjEgTCA0MC4wNDA2NTIsMS4xMSBjIDEuNDgsLTEuNDggMy41NSwtMS40OCA1LjAzLDAgMS40OCwxLjQ4IDEuNzcsMy44NSAwLDUuMzMgbCAtMzIuODMsMzIuODMgYyAtMS40OCwxLjQ4IC0xLjQ4LDMuODQgMCw1LjMyIGwgMzMuNDIsMzQuMDEgYyAxLjQ4LDEuNDggMS40OCwzLjg1IDAsNS4zMyAtMS40OCwxLjQ4IC0zLjg0LDEuMTggLTUuMDMsMCBMIDguMzkwNjUyMSw1Mi44NyBjIDAsMCAwLDAgLTAuMjksLTAuMjkgeiIvPiYjeGE7JiN4YTs8cGF0aCBpZD0icGF0aDEwMTMwNyIgaW5rc2NhcGU6Y29ubmVjdG9yLWN1cnZhdHVyZT0iMCIgc3R5bGU9ImZpbGw6IzdmYmEwMCIgZD0ibSA1My45NDA2NTIsNDEuOTMgYyAwLDUuNjIgLTQuNzMsOS43NiAtOS43Niw5Ljc2IC01LjAzLDAgLTEwLjM1LC00Ljc0IC0xMC4zNSwtOS43NiAwLC01LjAzIDQuMTQsLTkuNzYgMTAuMzUsLTkuNzYgNS45MiwwIDkuNzYsNC43MyA5Ljc2LDkuNzYgeiIvPiYjeGE7JiN4YTs8cGF0aCBpZD0icGF0aDEwMTMxNSIgaW5rc2NhcGU6Y29ubmVjdG9yLWN1cnZhdHVyZT0iMCIgc3R5bGU9ImZpbGw6IzdmYmEwMCIgZD0ibSA4My44MTA2NTIsNDEuOTMgYyAwLDUuNjIgLTQuNzMsOS43NiAtOS43Niw5Ljc2IC01LjAzLDAgLTEwLjM1LC00Ljc0IC0xMC4zNSwtOS43NiAwLC01LjAzIDQuNzMsLTkuNzYgMTAuMzUsLTkuNzYgNS42MiwwIDkuNzYsNC43MyA5Ljc2LDkuNzYgeiIvPiYjeGE7JiN4YTs8Y2lyY2xlIGlkPSJlbGxpcHNlMTAxMzIzIiBzdHlsZT0iZmlsbDojN2ZiYTAwIiBjeD0iMTA0LjIyMDY1IiBjeT0iNDEuOTMiIHI9IjkuNzYwMDAwMiIvPiYjeGE7PC9zdmc+;" vertex="1" parent="1">
          <mxGeometry x="960" y="142" width="69.65" height="40" as="geometry" />
        </mxCell>
      </root>
    </mxGraphModel>
  </diagram>
</mxfile>
